{
.formatVersion = 3;
axes = (
{
name = Weight;
tag = wght;
}
);
classes = (
{
code = "dollar comma period slash semicolon A O a g i l o cent sterling yen Scedilla scedilla Tcedilla tcedilla florin Decyr Zhecyr Kacyr Elcyr becyr vecyr gecyr decyr zhecyr zecyr ishortcyr kacyr elcyr encyr pecyr tecyr tsecyr checyr shacyr shchacyr hardcyr softcyr yucyr emdash colonmonetary franc lira won dong Euro indianrupee dollar.tf comma.tf period.tf zero.numr one.numr two.numr three.numr four.numr five.numr six.numr seven.numr eight.numr nine.numr cent.tf sterling.tf yen.tf florin.tf colonmonetary.tf franc.tf lira.tf dong.tf Euro.tf indianrupee.tf turkishlira.tf colon.tf";
name = aalt;
},
{
code = "dollar.tf comma.tf period.tf fraction semicolon.tf ordfeminine ordmasculine ordfeminine g.ss01 idotaccent l.ss01 ordmasculine cent.tf sterling.tf yen.tf Scommaaccent scommaaccent Tcommaaccent tcommaaccent florin.tf Decyr.bgr Zhecyr.bgr Kacyr.bgr Elcyr.bgr becyr.locl vecyr.bgr decyr.bgr zhecyr.bgr zecyr.bgr kacyr.bgr elcyr.bgr yucyr.bgr emdash.alt colonmonetary.tf franc.tf lira.tf won.tf dong.tf Euro.tf indianrupee.tf turkishlira.tf dollar comma period zero.dnom one.dnom two.dnom three.dnom four.dnom five.dnom six.dnom seven.dnom eight.dnom nine.dnom cent sterling yen florin colonmonetary franc lira dong Euro indianrupee colon.tf.case";
name = aalt2;
},
{
code = "zero.tf one.tf two.tf three.tf four.tf five.tf six.tf seven.tf eight.tf nine.tf";
name = calt;
},
{
code = "zero one two three four five six seven eight nine";
name = calt_dnom_frac_lnum_numr_onum_ordn_sinf_subs_sups;
},
{
code = "gravecomb acutecomb circumflexcomb tildecomb macroncomb brevecomb dotaccentcomb dieresiscomb ringcomb hungarumlautcomb caroncomb hookabovecomb dblgravecomb breveinvertedcomb";
name = ccmp;
},
{
code = "zero.dnom one.dnom two.dnom three.dnom four.dnom five.dnom six.dnom seven.dnom eight.dnom nine.dnom";
name = dnom_frac;
},
{

glyphs = (
{
glyphname = .notdef;
leftMetricsKey = H;
rightMetricsKey = H;
layers = (
{
layerId = "735450B9-CA28-42C1-9B3C-08680A8E3308";
shapes = (
{
closed = 1;
nodes = (
(652,847,l),
(143,847,l),
(2,-165,l),
(510,-165,l)
);
},
{
closed = 1;
nodes = (
(61,-115,l),
(188,797,l),
(593,797,l),
(465,-115,l)
);
},
{
closed = 1;
nodes = (
(493,-132,l),
(213,833,l),
(160,806,l),
(435,-137,l)
);
}
);
width = 630;
},
{
layerId = "AC69D05A-01B2-435C-837D-E8B538C011DB";
shapes = (
{
closed = 1;
nodes = (
(666,847,l),
(175,847,l),
(37,-165,l),
(529,-165,l)
);
},
{
closed = 1;
nodes = (
(94,-115,l),
(219,797,l),
(608,797,l),
(485,-115,l)
);
},
{
closed = 1;
nodes = (
(513,-132,l),
(243,833,l),
(190,806,l),
(456,-137,l)
);
}
);
width = 683;
},
{
layerId = "479E441D-7DC1-4B7F-91CA-24AB0BA7ACEE";
shapes = (
{
closed = 1;
nodes = (
(672,847,l),
(189,847,l),
(53,-165,l),
(537,-165,l)
);
},
{
closed = 1;
nodes = (
(109,-115,l),
(232,797,l),
(615,797,l),
(494,-115,l)
);
},
{
closed = 1;
nodes = (
(522,-132,l),
(256,833,l),
(203,806,l),
(465,-137,l)
);
}
);
width = 705;
}
);
},
{
glyphname = exclam;
layers = (
{
layerId = "735450B9-CA28-42C1-9B3C-08680A8E3308";
shapes = (
{
closed = 1;
nodes = (
(20,197,l),
(-7,0,l),
(203,0,l),
(231,197,l)
);
},
{
closed = 1;
nodes = (
(89,742,l),
(77,266,l),
(198,266,l),
(320,742,l)
);
}
);
width = 287;
},
{
layerId = "AC69D05A-01B2-435C-837D-E8B538C011DB";
shapes = (
{
closed = 1;
nodes = (
(46,117,l),
(29,0,l),
(138,0,l),
(154,117,l)
);
},
{
closed = 1;
nodes = (
(131,742,l),
(86,240,l),
(148,240,l),
(240,742,l)
);
}
);
width = 242;
},
{
guides = (
{
angle = 90;
position = "{90, 0}";
},
{
angle = 90;
position = "{168, 0}";
}
);
layerId = "479E441D-7DC1-4B7F-91CA-24AB0BA7ACEE";
shapes = (
{
closed = 1;
nodes = (
(58,79,l),
(47,0,l),
(106,0,l),
(117,79,l)
);
},
{
closed = 1;
nodes = (
(151,742,l),
(91,228,l),
(124,228,l),
(201,742,l)
);
}
);
width = 221;
}
);
unicode = 33;
},
{
glyphname = quotedbl;
layers = (
{
layerId = "735450B9-CA28-42C1-9B3C-08680A8E3308";
shapes = (
{
closed = 1;
nodes = (
(361,742,l),
(361,411,l),
(456,411,l),
(548,742,l)
);
},
{
closed = 1;
nodes = (
(105,742,l),
(105,411,l),
(200,411,l),
(292,742,l)
);
}
);
width = 518;
},
{
layerId = "AC69D05A-01B2-435C-837D-E8B538C011DB";
shapes = (
{
closed = 1;
nodes = (
(300,742,l),
(296,507,l),
(348,507,l),
(407,742,l)
);
},
{
closed = 1;
nodes = (
(132,742,l),
(128,507,l),
(180,507,l),
(239,742,l)
);
}
);
width = 404;
},
{
layerId = "479E441D-7DC1-4B7F-91CA-24AB0BA7ACEE";
shapes = (
{
closed = 1;
nodes = (
(272,742,l),
(267,550,l),
(299,550,l),
(346,742,l)
);
},
{
closed = 1;
nodes = (
(143,742,l),
(138,550,l),
(170,550,l),
(217,742,l)
);
}
);
width = 352;
}
);
leftKerningGroup = quotedbl2;
rightKerningGroup = quotedbl;
unicode = 34;
},
{
glyphname = numbersign;
layers = (
{
layerId = "735450B9-CA28-42C1-9B3C-08680A8E3308";
shapes = (
{
closed = 1;
nodes = (
(220,744,l),
(112,9,l),
(209,-3,l),
(316,734,l)
);
},
{
closed = 1;
nodes = (
(444,744,l),
(336,9,l),
(433,-3,l),
(540,734,l)
);
},
{
closed = 1;
nodes = (
(29,318,l),
(29,222,l),
(589,222,l),
(589,318,l)
);
},
{
closed = 1;
nodes = (
(62,528,l),
(62,432,l),
(622,432,l),
(622,528,l)
);
}
);
width = 614;
},
{
layerId = "AC69D05A-01B2-435C-837D-E8B538C011DB";
shapes = (
{
closed = 1;
nodes = (
(239,743,l),
(127,6,l),
(184,-2,l),
(295,736,l)
);
},
{
closed = 1;
nodes = (
(449,743,l),
(337,6,l),
(393,-2,l),
(505,736,l)
);
},
{
closed = 1;
nodes = (
(43,297,l),
(43,241,l),
(548,241,l),
(548,297,l)
);
},
{
closed = 1;
nodes = (
(76,507,l),
(76,451,l),
(581,451,l),
(581,507,l)
);
}
);
width = 587;
},
{
layerId = "479E441D-7DC1-4B7F-91CA-24AB0BA7ACEE";
shapes = (
{
closed = 1;
nodes = (
(248,743,l),
(134,5,l),
(172,-1,l),
(286,737,l)
);
},
{
closed = 1;
nodes = (
(451,743,l),
(337,5,l),
(375,-1,l),
(489,737,l)
);
},
{
closed = 1;
nodes = (
(49,288,l),
(49,250,l),
(529,250,l),
(529,288,l)
);
},
{
closed = 1;
nodes = (
(82,498,l),
(82,460,l),
(562,460,l),
(562,498,l)
);
}
);
width = 574;
}
);
unicode = 35;
},
{
glyphname = dollar;
layers = (
{
layerId = "735450B9-CA28-42C1-9B3C-08680A8E3308";
shapes = (
{
closed = 1;
nodes = (
(661,331,o),
(595,417,o),
(500,441,cs),
(426,459,l),
(446,597,l),
(484,597,o),
(505,586,o),
(557,542,c),
(651,645,l),
(607,684,o),
(545,714,o),
(466,733,c),
(476,802,l),
(353,802,l),
(341,736,l),
(215,736,o),
(89,645,o),
(72,526,cs),
(56,416,o),
(105,314,o),
(282,292,c),
(258,129,l),
(197,145,o),
(141,179,o),
(96,216,c),
(-12,111,l),
(51,47,o),
(126,7,o),
(238,-2,c),
(227,-73,l),
(353,-73,l),
(364,-2,l),
(517,-2,o),
(629,102,o),
(646,223,cs)
);
},
{
closed = 1;
nodes = (
(274,478,l),
(248,485,o),
(234,500,o),
(234,528,cs),
(234,574,o),
(290,600,o),
(324,600,c),
(307,471,l)
);
},
{
closed = 1;
nodes = (
(400,274,l),
(467,265,o),
(485,242,o),
(480,211,c),
(476,176,o),
(438,147,o),
(381,140,c)
);
}
);
width = 693;
},
{
layerId = "AC69D05A-01B2-435C-837D-E8B538C011DB";
shapes = (
{
closed = 1;
nodes = (
(554,282,o),
(500,352,o),
(400,392,c),
(355,409,l),
(391,673,l),
(450,669,o),
(491,647,o),
(530,597,c),
(582,645,l),
(538,698,o),
(482,734,o),
(401,745,c),
(411,816,l),
(347,816,l),
(337,747,l),
(218,747,o),
(109,662,o),
(94,550,c),
(78,447,o),
(127,386,o),
(281,332,c),
(246,63,l),
(152,68,o),
(106,105,o),
(64,167,c),
(7,121,l),
(54,39,o),
(116,-5,o),
(236,-8,c),
(224,-87,l),
(288,-87,l),
(299,-8,l),
(434,-8,o),
(527,72,o),
(542,182,cs)
);
},
{
closed = 1;
nodes = (
(259,435,l),
(191,469,o),
(170,500,o),
(176,547,cs),
(184,610,o),
(234,667,o),
(327,674,c),
(294,421,l)
);
},
{
closed = 1;
nodes = (
(342,317,l),
(435,282,o),
(468,245,o),
(458,184,c),
(450,118,o),
(391,69,o),
(309,66,c)
);
}
);
width = 591;
},
{
layerId = "479E441D-7DC1-4B7F-91CA-24AB0BA7ACEE";
shapes = (
{
closed = 1;
nodes = (
(506,259,o),
(457,322,o),
(355,370,cs),
(322,386,l),
(366,707,l),
(434,701,o),
(485,675,o),
(517,622,c),
(551,645,l),
(507,705,o),
(453,743,o),
(371,751,c),
(381,822,l),
(344,822,l),
(335,752,l),
(219,752,o),
(118,669,o),
(104,561,c),
(88,461,o),
(137,418,o),
(281,350,c),
(240,33,l),
(132,33,o),
(90,71,o),
(49,145,c),
(16,125,l),
(55,36,o),
(112,-10,o),
(235,-10,c),
(223,-93,l),
(259,-93,l),
(270,-10,l),
(396,-10,o),
(480,59,o),
(494,163,cs)
);
},
{
closed = 1;
nodes = (
(252,415,l),
(165,461,o),
(141,500,o),
(149,556,cs),
(161,627,o),
(209,698,o),
(329,707,c),
(288,398,l)
);
},
{
closed = 1;
nodes = (
(316,337,l),
(421,289,o),
(460,246,o),
(448,171,c),
(438,92,o),
(369,33,o),
(276,33,c)
);
}
);
width = 544;
}
);
unicode = 36;
},
{
glyphname = percent;
layers = (
{
layerId = "735450B9-CA28-42C1-9B3C-08680A8E3308";
shapes = (
{
closed = 1;
nodes = (
(184,753,o),
(86,656,o),
(71,552,cs),
(55,439,o),
(131,334,o),
(248,334,cs),
(356,334,o),
(450,427,o),
(464,530,cs),
(480,644,o),
(405,753,o),
(291,753,cs)
);
},
{
closed = 1;
nodes = (
(207,432,o),
(204,463,o),
(213,529,cs),
(224,609,o),
(248,656,o),
(292,656,cs),
(328,656,o),
(332,622,o),
(322,551,cs),
(312,475,o),
(290,432,o),
(244,432,cs)
);
},
{
closed = 1;
nodes = (
(642,409,o),
(545,312,o),
(530,208,cs),
(514,95,o),
(589,-10,o),
(706,-10,cs),
(814,-10,o),
(908,83,o),
(923,186,cs),
(939,300,o),
(863,409,o),
(749,409,cs)
);
},
{
closed = 1;
nodes = (
(666,88,o),
(662,119,o),
(672,185,cs),
(683,265,o),
(707,312,o),
(751,312,cs),
(787,312,o),
(791,278,o),
(781,207,cs),
(770,131,o),
(749,88,o),
(703,88,cs)
);
},
{
alignment = -1;
pos = (358,0);
ref = fraction;
}
);
width = 973;
},
{
layerId = "AC69D05A-01B2-435C-837D-E8B538C011DB";
shapes = (
{
closed = 1;
nodes = (
(190,753,o),
(108,673,o),
(91,546,cs),
(73,413,o),
(135,329,o),
(235,329,cs),
(330,329,o),
(409,408,o),
(427,536,cs),
(444,668,o),
(383,753,o),
(285,753,cs)
);
},
{
closed = 1;
nodes = (
(171,380,o),
(146,443,o),
(157,535,cs),
(170,633,o),
(218,702,o),
(284,702,cs),
(345,702,o),
(373,639,o),
(359,545,cs),
(346,448,o),
(299,380,o),
(233,380,cs)
);
},
{
closed = 1;
nodes = (
(590,414,o),
(509,334,o),
(492,207,cs),
(474,74,o),
(535,-10,o),
(635,-10,cs),
(731,-10,o),
(810,69,o),
(827,197,cs),
(846,329,o),
(784,414,o),
(686,414,cs)
);
},
{
closed = 1;
nodes = (
(575,41,o),
(547,106,o),
(559,196,cs),
(572,292,o),
(622,363,o),
(686,363,cs),
(745,363,o),
(773,298,o),
(761,206,c),
(747,110,o),
(699,41,o),
(634,41,cs)
);
},
{
alignment = -1;
pos = (326,0);
ref = fraction;
}
);
width = 891;
},
{
layerId = "479E441D-7DC1-4B7F-91CA-24AB0BA7ACEE";
shapes = (
{
closed = 1;
nodes = (
(192,753,o),
(118,681,o),
(100,543,cs),
(81,401,o),
(137,327,o),
(229,327,cs),
(318,327,o),
(391,399,o),
(410,539,cs),
(428,679,o),
(373,753,o),
(282,753,cs)
);
},
{
closed = 1;
nodes = (
(155,357,o),
(119,434,o),
(132,538,cs),
(146,644,o),
(205,723,o),
(280,723,cs),
(353,723,o),
(391,647,o),
(376,542,cs),
(362,435,o),
(303,357,o),
(228,357,cs)
);
},
{
closed = 1;
nodes = (
(566,416,o),
(493,344,o),
(475,206,cs),
(456,64,o),
(511,-10,o),
(603,-10,cs),
(693,-10,o),
(765,62,o),
(784,202,cs),
(803,342,o),
(748,416,o),
(657,416,cs)
);
},
{
closed = 1;
nodes = (
(533,20,o),
(494,100,o),
(507,201,cs),
(521,304,o),
(583,386,o),
(656,386,cs),
(726,386,o),
(765,307,o),
(752,205,cs),
(737,101,o),
(676,20,o),
(603,20,cs)
);
},
{
alignment = -1;
pos = (311,0);
ref = fraction;
}
);
width = 853;
}
);
unicode = 37;
},
{
glyphname = ampersand;
layers = (
{
guides = (
{
angle = 130.836;
position = "{264, 330}";
},
{
angle = 310.205;
position = "{406, 489}";
}
);
layerId = "735450B9-CA28-42C1-9B3C-08680A8E3308";
shapes = (
{
closed = 1;
nodes = (
(320,753,o),
(210,675,o),
(195,570,cs),
(186,505,o),
(219,473,o),
(259,417,c),
(120,349,o),
(45,291,o),
(30,186,cs),
(14,75,o),
(77,-5,o),
(256,-5,cs),
(326,-5,o),
(420,9,o),
(512,64,c),
(558,0,l),
(786,0,l),
(647,194,l),
(699,272,o),
(786,363,o),
(833,441,c),
(626,441,l),
(610,397,o),
(584,341,o),
(570,307,c),
(508,394,l),
(599,449,o),
(679,511,o),
(689,589,cs),
(703,685,o),
(607,753,o),
(465,753,cs)
);
},
{
closed = 1;
nodes = (
(496,640,o),
(523,618,o),
(517,578,cs),
(513,548,o),
(492,521,o),
(441,489,c),
(422,514,l),
(397,545,o),
(390,566,o),
(393,585,cs),
(397,614,o),
(423,636,o),
(458,638,cs)
);
},
{
closed = 1;
nodes = (
(433,178,l),
(401,153,o),
(352,144,o),
(329,144,cs),
(301,144,o),
(261,160,o),
(257,200,c),
(251,247,o),
(298,284,o),
(339,307,c)
);
}
);
width = 854;
},
{
guides = (
{
angle = 130.836;
position = "{264, 330}";
},
{
angle = 310.205;
position = "{406, 489}";
}
);
layerId = "AC69D05A-01B2-435C-837D-E8B538C011DB";
shapes = (
{
closed = 1;
nodes = (
(277,753,o),
(180,674,o),
(167,569,c),
(158,508,o),
(181,473,o),
(229,411,c),
(107,349,o),
(42,283,o),
(29,187,cs),
(13,73,o),
(79,-5,o),
(218,-5,cs),
(292,-5,o),
(373,21,o),
(454,83,c),
(512,0,l),
(619,0,l),
(520,145,l),
(577,214,o),
(633,290,o),
(661,397,c),
(570,397,l),
(552,299,o),
(504,228,o),
(481,201,c),
(351,392,l),
(497,458,o),
(552,535,o),
(561,602,cs),
(574,695,o),
(500,753,o),
(396,753,cs)
);
},
{
closed = 1;
nodes = (
(444,691,o),
(487,661,o),
(479,600,cs),
(471,546,o),
(428,499,o),
(315,445,c),
(296,473,ls),
(269,511,o),
(253,532,o),
(259,573,cs),
(267,635,o),
(317,690,o),
(390,690,cs)
);
},
{
closed = 1;
nodes = (
(417,139,l),
(368,96,o),
(303,68,o),
(247,68,cs),
(175,68,o),
(120,114,o),
(127,188,cs),
(133,259,o),
(192,315,o),
(270,353,c)
);
}
);
width = 690;
},
{
guides = (
{
angle = 308.914;
position = "{290, 286}";
}
);
layerId = "479E441D-7DC1-4B7F-91CA-24AB0BA7ACEE";
shapes = (
{
closed = 1;
nodes = (
(258,753,o),
(167,673,o),
(154,568,c),
(145,510,o),
(164,473,o),
(215,408,c),
(101,349,o),
(41,279,o),
(29,187,cs),
(13,72,o),
(80,-5,o),
(201,-5,cs),
(277,-5,o),
(352,27,o),
(427,92,c),
(491,0,l),
(543,0,l),
(462,122,l),
(521,188,o),
(564,257,o),
(583,377,c),
(545,377,l),
(526,255,o),
(467,177,o),
(440,153,c),
(280,391,l),
(450,462,o),
(494,546,o),
(503,608,cs),
(515,700,o),
(452,753,o),
(365,753,cs)
);
},
{
closed = 1;
nodes = (
(421,714,o),
(470,681,o),
(461,610,cs),
(452,545,o),
(399,489,o),
(258,425,c),
(239,454,l),
(211,495,o),
(191,516,o),
(198,567,cs),
(208,645,o),
(269,714,o),
(359,714,cs)
);
},
{
closed = 1;
nodes = (
(409,121,l),
(353,70,o),
(280,33,o),
(209,33,cs),
(118,33,o),
(56,93,o),
(68,183,cs),
(79,264,o),
(144,329,o),
(238,374,c)
);
}
);
width = 616;
}
);
unicode = 38;
},
{
glyphname = quotesingle;
layers = (
{
layerId = "735450B9-CA28-42C1-9B3C-08680A8E3308";
shapes = (
{
closed = 1;
nodes = (
(104,742,l),
(104,411,l),
(199,411,l),
(291,742,l)
);
}
);
width = 262;
},
{
layerId = "AC69D05A-01B2-435C-837D-E8B538C011DB";
shapes = (
{
closed = 1;
nodes = (
(133,742,l),
(129,507,l),
(181,507,l),
(240,742,l)
);
}
);
width = 243;
},
{
layerId = "479E441D-7DC1-4B7F-91CA-24AB0BA7ACEE";
shapes = (
{
closed = 1;
nodes = (
(145,742,l),
(140,550,l),
(172,550,l),
(219,742,l)
);
}
);
width = 235;
}
);
leftKerningGroup = quotedbl2;
rightKerningGroup = quotedbl;
unicode = 39;
},
{
glyphname = parenleft;
layers = (
{
layerId = "735450B9-CA28-42C1-9B3C-08680A8E3308";
shapes = (
{
closed = 1;
nodes = (
(256,-165,l),
(206,-7,o),
(188,125,o),
(209,273,cs),
(234,446,o),
(307,609,o),
(399,742,c),
(239,742,l),
(138,612,o),
(63,459,o),
(40,296,cs),
(13,111,o),
(59,-22,o),
(132,-165,c)
);
}
);
width = 350;
},
{
layerId = "AC69D05A-01B2-435C-837D-E8B538C011DB";
shapes = (
{
closed = 1;
nodes = (
(200,-165,l),
(151,-10,o),
(134,128,o),
(155,279,cs),
(178,445,o),
(252,609,o),
(338,742,c),
(269,742,l),
(171,614,o),
(93,455,o),
(71,290,c),
(46,112,o),
(82,-23,o),
(148,-165,c)
);
}
);
width = 294;
},
{
layerId = "479E441D-7DC1-4B7F-91CA-24AB0BA7ACEE";
shapes = (
{
closed = 1;
nodes = (
(174,-165,l),
(126,-12,o),
(109,130,o),
(130,282,cs),
(153,445,o),
(227,609,o),
(310,742,c),
(282,742,l),
(186,615,o),
(106,453,o),
(85,287,cs),
(61,112,o),
(92,-23,o),
(155,-165,c)
);
}
);
width = 269;
}
);
unicode = 40;
},
{
glyphname = parenright;
layers = (
{
layerId = "735450B9-CA28-42C1-9B3C-08680A8E3308";
shapes = (
{
closed = 1;
nodes = (
(110,-165,l),
(211,-35,o),
(285,118,o),
(308,281,cs),
(335,466,o),
(290,599,o),
(217,742,c),
(93,742,l),
(143,584,o),
(161,452,o),
(140,304,cs),
(115,131,o),
(42,-32,o),
(-50,-165,c)
);
}
);
width = 350;
},
{
layerId = "AC69D05A-01B2-435C-837D-E8B538C011DB";
shapes = (
{
closed = 1;
nodes = (
(28,-165,l),
(126,-37,o),
(203,122,o),
(226,287,cs),
(250,465,o),
(215,600,o),
(149,742,c),
(97,742,l),
(145,587,o),
(162,449,o),
(142,298,c),
(118,132,o),
(45,-32,o),
(-41,-165,c)
);
}
);
width = 301;
},
{
layerId = "479E441D-7DC1-4B7F-91CA-24AB0BA7ACEE";
shapes = (
{
closed = 1;
nodes = (
(-9,-165,l),
(87,-38,o),
(166,124,o),
(188,290,cs),
(212,465,o),
(181,600,o),
(118,742,c),
(99,742,l),
(146,589,o),
(163,447,o),
(143,295,cs),
(120,132,o),
(46,-32,o),
(-37,-165,c)
);
}
);
width = 278;
}
);
leftKerningGroup = question;
unicode = 41;
},
{
glyphname = asterisk;
layers = (
{
layerId = "735450B9-CA28-42C1-9B3C-08680A8E3308";
shapes = (
{
closed = 1;
nodes = (
(499,352,l),
(387,483,l),
(547,526,l),
(511,639,l),
(353,568,l),
(370,742,l),
(247,742,l),
(261,569,l),
(106,640,l),
(65,528,l),
(230,483,l),
(116,351,l),
(218,279,l),
(307,431,l),
(396,281,l)
);
}
);
width = 533;
},
{
layerId = "AC69D05A-01B2-435C-837D-E8B538C011DB";
shapes = (
{
closed = 1;
nodes = (
(375,440,l),
(281,555,l),
(412,597,l),
(393,654,l),
(264,598,l),
(273,742,l),
(206,742,l),
(215,599,l),
(87,650,l),
(67,593,l),
(200,555,l),
(104,435,l),
(158,397,l),
(240,529,l),
(320,401,l)
);
}
);
width = 381;
},
{
layerId = "479E441D-7DC1-4B7F-91CA-24AB0BA7ACEE";
shapes = (
{
closed = 1;
nodes = (
(318,480,l),
(233,588,l),
(350,629,l),
(340,661,l),
(224,612,l),
(229,742,l),
(187,742,l),
(194,612,l),
(79,654,l),
(68,622,l),
(187,587,l),
(99,473,l),
(131,451,l),
(210,574,l),
(285,455,l)
);
}
);
width = 312;
}
);
unicode = 42;
},
{
glyphname = plus;
layers = (
{
layerId = "735450B9-CA28-42C1-9B3C-08680A8E3308";
shapes = (
{
closed = 1;
nodes = (
(62,444,l),
(62,303,l),
(584,303,l),
(584,444,l)
);
},
{
closed = 1;
nodes = (
(394,635,l),
(253,635,l),
(253,113,l),
(394,113,l)
);
}
);
width = 611;
},
{
layerId = "AC69D05A-01B2-435C-837D-E8B538C011DB";
shapes = (
{
closed = 1;
nodes = (
(70,408,l),
(70,337,l),
(509,338,l),
(509,408,l)
);
},
{
closed = 1;
nodes = (
(325,592,l),
(254,592,l),
(255,154,l),
(325,154,l)
);
}
);
width = 544;
},
{
layerId = "479E441D-7DC1-4B7F-91CA-24AB0BA7ACEE";
shapes = (
{
closed = 1;
nodes = (
(74,391,l),
(74,353,l),
(475,354,l),
(475,392,l)
);
},
{
closed = 1;
nodes = (
(293,573,l),
(255,573,l),
(256,172,l),
(294,172,l)
);
}
);
width = 514;
}
);
unicode = 43;
},
{
glyphname = comma;
layers = (
{
layerId = "735450B9-CA28-42C1-9B3C-08680A8E3308";
shapes = (
{
closed = 1;
nodes = (
(45,-157,l),
(188,21,l),
(209,174,l),
(27,174,l),
(3,0,l),
(65,0,l),
(-21,-157,l)
);
}
);
width = 289;
},
{
layerId = "AC69D05A-01B2-435C-837D-E8B538C011DB";
shapes = (
{
closed = 1;
nodes = (
(28,-127,l),
(130,15,l),
(143,111,l),
(30,111,l),
(16,0,l),
(59,0,l),
(-14,-127,l)
);
}
);
width = 227;
},
{
guides = (
{
angle = 67.614;
position = "{-42, 0}";
}
);
layerId = "479E441D-7DC1-4B7F-91CA-24AB0BA7ACEE";
shapes = (
{
closed = 1;
nodes = (
(20,-114,l),
(104,12,l),
(113,82,l),
(32,82,l),
(22,0,l),
(56,0,l),
(-11,-114,l)
);
}
);
width = 199;
}
);
leftKerningGroup = comma2;
rightKerningGroup = comma;
unicode = 44;
},
{
glyphname = hyphen;
layers = (
{
layerId = "735450B9-CA28-42C1-9B3C-08680A8E3308";
shapes = (
{
closed = 1;
nodes = (
(52,333,l),
(33,193,l),
(331,193,l),
(351,333,l)
);
}
);
width = 391;
},
{
layerId = "AC69D05A-01B2-435C-837D-E8B538C011DB";
shapes = (
{
closed = 1;
nodes = (
(65,300,l),
(55,229,l),
(305,229,l),
(316,301,l)
);
}
);
width = 371;
},
{
layerId = "479E441D-7DC1-4B7F-91CA-24AB0BA7ACEE";
shapes = (
{
closed = 1;
nodes = (
(70,285,l),
(65,245,l),
(294,246,l),
(299,286,l)
);
}
);
width = 362;
}
);
leftKerningGroup = hyphen2;
rightKerningGroup = hyphen;
unicode = 45;
},
{
glyphname = period;
layers = (
{
layerId = "735450B9-CA28-42C1-9B3C-08680A8E3308";
shapes = (
{
closed = 1;
nodes = (
(24,201,l),
(-4,0,l),
(206,0,l),
(234,201,l)
);
}
);
width = 289;
},
{
layerId = "AC69D05A-01B2-435C-837D-E8B538C011DB";
shapes = (
{
closed = 1;
nodes = (
(35,117,l),
(18,0,l),
(124,0,l),
(139,117,l)
);
}
);
width = 216;
},
{
layerId = "479E441D-7DC1-4B7F-91CA-24AB0BA7ACEE";
shapes = (
{
closed = 1;
nodes = (
(39,79,l),
(28,0,l),
(87,0,l),
(98,79,l)
);
}
);
width = 183;
}
);
leftKerningGroup = comma2;
rightKerningGroup = comma;
unicode = 46;
},
{
color = (255, 153, 254, 255);
glyphname = slash;
layers = (
{
layerId = "735450B9-CA28-42C1-9B3C-08680A8E3308";
shapes = (
{
closed = 1;
nodes = (
(97,0,l),
(464,742,l),
(325,742,l),
(-42,0,l)
);
}
);
width = 398;
},
{
layerId = "AC69D05A-01B2-435C-837D-E8B538C011DB";
shapes = (
{
closed = 1;
nodes = (
(41,-41,l),
(395,742,l),
(322,742,l),
(-32,-41,l)
);
}
);
width = 340;
},
{
guides = (
{
position = "{0, 695}";
showMeasurement = 1;
}
);
layerId = "479E441D-7DC1-4B7F-91CA-24AB0BA7ACEE";
shapes = (
{
closed = 1;
nodes = (
(15,-60,l),
(364,742,l),
(321,742,l),
(-28,-60,l)
);
}
);
width = 314;
}
);
unicode = 47;
},
{
glyphname = zero;
layers = (
{
layerId = "735450B9-CA28-42C1-9B3C-08680A8E3308";
shapes = (
{
closed = 1;
nodes = (
(539,-12,o),
(646,236,o),
(646,433,cs),
(646,600,o),
(562,754,o),
(378,754,cs),
(148,754,o),
(41,507,o),
(41,309,cs),
(41,141,o),
(126,-12,o),
(310,-12,cs)
);
},
{
closed = 1;
nodes = (
(229,358,o),
(252,602,o),
(367,602,cs),
(445,602,o),
(458,544,o),
(458,479,cs),
(458,385,o),
(437,140,o),
(320,140,cs),
(243,140,o),
(229,201,o),
(229,265,cs)
);
}
);
width = 657;
},
{
layerId = "AC69D05A-01B2-435C-837D-E8B538C011DB";
shapes = (
{
closed = 1;
nodes = (
(498,-12,o),
(588,267,o),
(588,444,cs),
(588,592,o),
(525,754,o),
(354,754,cs),
(135,754,o),
(45,476,o),
(45,298,cs),
(45,150,o),
(109,-12,o),
(280,-12,cs)
);
},
{
closed = 1;
nodes = (
(126,415,o),
(174,680,o),
(348,680,cs),
(474,680,o),
(507,568,o),
(507,463,cs),
(507,328,o),
(460,62,o),
(287,62,cs),
(160,62,o),
(126,173,o),
(126,280,cs)
);
}
);
width = 601;
},
{
layerId = "479E441D-7DC1-4B7F-91CA-24AB0BA7ACEE";
shapes = (
{
closed = 1;
nodes = (
(482,-12,o),
(565,279,o),
(565,449,cs),
(565,589,o),
(510,754,o),
(344,754,cs),
(130,754,o),
(47,463,o),
(47,293,cs),
(47,153,o),
(102,-12,o),
(268,-12,cs)
);
},
{
closed = 1;
nodes = (
(85,438,o),
(143,711,o),
(340,711,cs),
(485,711,o),
(527,578,o),
(527,456,cs),
(527,305,o),
(469,30,o),
(273,30,cs),
(127,30,o),
(85,162,o),
(85,286,cs)
);
}
);
width = 579;
}
);
leftKerningGroup = six2;
rightKerningGroup = six;
unicode = 48;
},
{
glyphname = one;
layers = (
{
background = {
shapes = (
{
closed = 1;
nodes = (
(380,164,ls),
(373,164,o),
(371,166,o),
(372,173,cs),
(449,721,ls),
(451,735,o),
(447,742,o),
(436,742,cs),
(345,742,ls),
(326,742,o),
(316,740,o),
(293,730,cs),
(101,641,ls),
(87,634,o),
(86,632,o),
(83,615,cs),
(69,520,ls),
(67,504,o),
(75,496,o),
(93,500,cs),
(182,520,ls),
(193,522,o),
(194,520,o),
(193,513,cs),
(146,179,ls),
(145,169,o),
(141,164,o),
(132,164,cs),
(39,164,ls),
(24,164,o),
(20,161,o),
(19,151,cs),
(1,19,ls),
(-1,6,o),
(2,0,o),
(19,0,cs),
(451,0,ls),
(468,0,o),
(472,4,o),
(474,16,cs),
(492,146,ls),
(494,160,o),
(489,164,o),
(475,164,cs)
);
}
);
};
guides = (
{
angle = 262.023;
position = "{401, 453}";
}
);
layerId = "735450B9-CA28-42C1-9B3C-08680A8E3308";
shapes = (
{
closed = 1;
nodes = (
(336,0,l),
(439,742,l),
(319,742,l),
(86,634,l),
(65,494,l),
(208,523,l),
(136,0,l)
);
},
{
closed = 1;
nodes = (
(21,164,l),
(-1,0,l),
(471,0,l),
(495,164,l)
);
}
);
width = 537;
},
{
guides = (
{
angle = 262.023;
position = "{401, 453}";
}
);
layerId = "AC69D05A-01B2-435C-837D-E8B538C011DB";
shapes = (
{
closed = 1;
nodes = (
(249,0,l),
(353,742,l),
(287,742,l),
(104,657,l),
(94,594,l),
(254,646,l),
(165,0,l)
);
},
{
closed = 1;
nodes = (
(24,77,l),
(13,0,l),
(387,0,l),
(399,77,l)
);
}
);
width = 466;
},
{
background = {
shapes = (
{
closed = 1;
nodes = (
(228,42,ls),
(225,42,o),
(223,44,o),
(224,48,cs),
(321,732,ls),
(322,739,o),
(319,742,o),
(313,742,cs),
(286,742,ls),
(278,742,o),
(273,742,o),
(263,737,cs),
(119,670,ls),
(113,667,o),
(111,663,o),
(110,657,cs),
(107,634,ls),
(106,628,o),
(109,626,o),
(115,628,cs),
(261,683,ls),
(266,685,o),
(268,684,o),
(267,679,cs),
(178,48,ls),
(177,44,o),
(174,42,o),
(171,42,cs),
(30,42,ls),
(26,42,o),
(25,41,o),
(24,37,cs),
(20,7,ls),
(19,2,o),
(21,0,o),
(26,0,cs),
(348,0,ls),
(352,0,o),
(353,2,o),
(354,7,cs),
(359,35,ls),
(360,39,o),
(357,42,o),
(352,42,cs)
);
}
);
};
guides = (
{
angle = 81.95;
position = "{273, 392}";
}
);
layerId = "479E441D-7DC1-4B7F-91CA-24AB0BA7ACEE";
shapes = (
{
closed = 1;
nodes = (
(214,0,l),
(318,742,l),
(274,742,l),
(111,666,l),
(106,634,l),
(273,695,l),
(177,0,l)
);
},
{
closed = 1;
nodes = (
(25,42,l),
(19,0,l),
(353,0,l),
(360,42,l)
);
}
);
width = 438;
}
);
leftKerningGroup = one2;
rightKerningGroup = one;
unicode = 49;
},
{
glyphname = two;
layers = (
{
layerId = "735450B9-CA28-42C1-9B3C-08680A8E3308";
shapes = (
{
closed = 1;
nodes = (
(565,0,l),
(592,186,l),
(283,186,l),
(285,177,l),
(487,306,ls),
(579,365,o),
(634,427,o),
(634,540,cs),
(634,686,o),
(519,754,o),
(384,754,cs),
(216,754,o),
(125,662,o),
(75,511,c),
(228,465,l),
(250,521,o),
(286,601,o),
(365,601,cs),
(406,601,o),
(429,566,o),
(429,527,cs),
(429,450,o),
(318,381,o),
(265,336,cs),
(38,140,l),
(17,0,l)
);
}
);
width = 644;
},
{
layerId = "AC69D05A-01B2-435C-837D-E8B538C011DB";
shapes = (
{
closed = 1;
nodes = (
(484,0,l),
(497,83,l),
(128,83,l),
(131,72,l),
(370,280,ls),
(460,358,o),
(556,439,o),
(556,568,cs),
(556,689,o),
(465,754,o),
(351,754,cs),
(219,754,o),
(111,658,o),
(77,535,c),
(153,515,l),
(172,597,o),
(253,677,o),
(342,677,cs),
(412,677,o),
(467,633,o),
(467,560,cs),
(467,457,o),
(361,378,o),
(293,314,cs),
(39,77,l),
(28,0,l)
);
}
);
width = 566;
},
{
layerId = "479E441D-7DC1-4B7F-91CA-24AB0BA7ACEE";
shapes = (
{
closed = 1;
nodes = (
(452,0,l),
(458,42,l),
(66,42,l),
(69,30,l),
(323,270,ls),
(412,355,o),
(525,444,o),
(525,579,cs),
(525,690,o),
(443,754,o),
(337,754,cs),
(220,754,o),
(106,657,o),
(78,545,c),
(123,535,l),
(141,627,o),
(239,708,o),
(333,708,cs),
(414,708,o),
(483,660,o),
(483,574,cs),
(483,460,o),
(379,377,o),
(304,305,cs),
(40,51,l),
(33,0,l)
);
}
);
width = 534;
}
);
leftKerningGroup = two2;
rightKerningGroup = two;
unicode = 50;
},
{
glyphname = three;
layers = (
{
layerId = "735450B9-CA28-42C1-9B3C-08680A8E3308";
shapes = (
{
closed = 1;
nodes = (
(461,-12,o),
(592,55,o),
(592,223,cs),
(592,321,o),
(513,395,o),
(419,401,c),
(416,378,l),
(513,378,o),
(621,469,o),
(621,567,cs),
(621,698,o),
(473,754,o),
(363,754,cs),
(252,754,o),
(148,699,o),
(66,628,c),
(180,517,l),
(217,558,o),
(273,603,o),
(331,603,cs),
(372,603,o),
(413,585,o),
(413,539,cs),
(413,481,o),
(354,450,o),
(303,450,cs),
(237,450,l),
(216,303,l),
(286,303,ls),
(337,303,o),
(388,282,o),
(388,224,cs),
(388,166,o),
(352,144,o),
(299,144,cs),
(226,144,o),
(169,182,o),
(143,250,c),
(11,142,l),
(69,39,o),
(197,-12,o),
(311,-12,cs)
);
}
);
width = 632;
},
{
layerId = "AC69D05A-01B2-435C-837D-E8B538C011DB";
shapes = (
{
closed = 1;
nodes = (
(410,-12,o),
(541,74,o),
(541,224,cs),
(541,337,o),
(445,393,o),
(343,400,c),
(340,377,l),
(457,372,o),
(567,453,o),
(567,575,cs),
(567,700,o),
(448,754,o),
(339,754,cs),
(248,754,o),
(170,702,o),
(107,642,c),
(163,589,l),
(211,639,o),
(257,680,o),
(331,680,cs),
(402,680,o),
(479,646,o),
(479,565,cs),
(479,464,o),
(392,424,o),
(304,424,cs),
(220,424,l),
(210,350,l),
(293,350,ls),
(373,350,o),
(454,313,o),
(454,222,cs),
(454,122,o),
(364,63,o),
(271,63,cs),
(185,63,o),
(128,109,o),
(89,179,c),
(26,128,l),
(83,40,o),
(162,-12,o),
(271,-12,cs)
);
}
);
width = 583;
},
{
layerId = "479E441D-7DC1-4B7F-91CA-24AB0BA7ACEE";
shapes = (
{
closed = 1;
nodes = (
(390,-12,o),
(520,82,o),
(520,225,cs),
(520,344,o),
(417,392,o),
(313,400,c),
(310,377,l),
(434,369,o),
(545,446,o),
(545,578,cs),
(545,701,o),
(438,754,o),
(329,754,cs),
(247,754,o),
(179,703,o),
(124,648,c),
(156,618,l),
(209,671,o),
(250,711,o),
(331,711,cs),
(414,711,o),
(506,671,o),
(506,576,cs),
(506,457,o),
(408,414,o),
(304,414,cs),
(213,414,l),
(207,369,l),
(296,369,ls),
(387,369,o),
(481,326,o),
(481,221,cs),
(481,104,o),
(369,30,o),
(260,30,cs),
(169,30,o),
(112,79,o),
(67,150,c),
(32,122,l),
(88,40,o),
(148,-12,o),
(255,-12,cs)
);
}
);
width = 563;
}
);
leftKerningGroup = six2;
rightKerningGroup = six;
unicode = 51;
},
{
glyphname = four;
layers = (
{
layerId = "735450B9-CA28-42C1-9B3C-08680A8E3308";
shapes = (
{
closed = 1;
nodes = (
(497,0,l),
(601,742,l),
(417,742,l),
(50,312,l),
(29,160,l),
(627,160,l),
(648,309,l),
(168,309,l),
(163,273,l),
(409,578,l),
(381,578,l),
(299,0,l)
);
}
);
width = 686;
},
{
layerId = "AC69D05A-01B2-435C-837D-E8B538C011DB";
shapes = (
{
closed = 1;
nodes = (
(432,0,l),
(536,742,l),
(446,742,l),
(46,238,l),
(38,178,l),
(580,178,l),
(590,251,l),
(111,251,l),
(107,222,l),
(460,673,l),
(442,673,l),
(347,0,l)
);
}
);
width = 639;
},
{
layerId = "479E441D-7DC1-4B7F-91CA-24AB0BA7ACEE";
shapes = (
{
closed = 1;
nodes = (
(406,0,l),
(510,742,l),
(457,742,l),
(44,208,l),
(41,185,l),
(561,185,l),
(567,227,l),
(88,227,l),
(84,201,l),
(480,712,l),
(467,712,l),
(367,0,l)
);
}
);
width = 620;
}
);
leftKerningGroup = four2;
rightKerningGroup = four;
unicode = 52;
},
{
glyphname = five;
layers = (
{
layerId = "735450B9-CA28-42C1-9B3C-08680A8E3308";
shapes = (
{
closed = 1;
nodes = (
(470,-12,o),
(591,91,o),
(591,262,cs),
(591,409,o),
(475,472,o),
(341,472,cs),
(299,472,o),
(262,464,o),
(222,450,c),
(244,429,l),
(275,576,l),
(582,576,l),
(613,742,l),
(163,742,l),
(82,378,l),
(200,299,l),
(232,312,o),
(266,329,o),
(302,329,cs),
(355,329,o),
(395,300,o),
(395,245,cs),
(395,179,o),
(351,133,o),
(284,133,cs),
(213,133,o),
(183,181,o),
(151,236,c),
(13,136,l),
(67,34,o),
(194,-12,o),
(305,-12,cs)
);
}
);
width = 628;
},
{
layerId = "AC69D05A-01B2-435C-837D-E8B538C011DB";
shapes = (
{
closed = 1;
nodes = (
(425,-12,o),
(539,123,o),
(539,274,cs),
(539,407,o),
(451,490,o),
(320,490,cs),
(249,490,o),
(195,465,o),
(143,420,c),
(155,407,l),
(212,666,l),
(548,666,l),
(562,742,l),
(157,742,l),
(72,354,l),
(132,324,l),
(168,380,o),
(235,419,o),
(304,419,cs),
(398,419,o),
(455,353,o),
(455,262,cs),
(455,152,o),
(375,60,o),
(261,60,cs),
(183,60,o),
(122,112,o),
(88,179,c),
(24,132,l),
(77,38,o),
(158,-12,o),
(269,-12,cs)
);
}
);
width = 576;
},
{
layerId = "479E441D-7DC1-4B7F-91CA-24AB0BA7ACEE";
shapes = (
{
closed = 1;
nodes = (
(407,-12,o),
(518,136,o),
(518,279,cs),
(518,406,o),
(442,497,o),
(311,497,cs),
(229,497,o),
(168,466,o),
(111,408,c),
(119,398,l),
(186,703,l),
(534,703,l),
(541,742,l),
(155,742,l),
(68,345,l),
(104,334,l),
(142,407,o),
(222,455,o),
(305,455,cs),
(415,455,o),
(479,375,o),
(479,269,cs),
(479,141,o),
(385,31,o),
(252,31,cs),
(171,31,o),
(97,84,o),
(63,156,c),
(28,130,l),
(81,39,o),
(143,-12,o),
(255,-12,cs)
);
}
);
width = 555;
}
);
leftKerningGroup = five2;
rightKerningGroup = five;
unicode = 53;
},
{
glyphname = six;
layers = (
{
layerId = "735450B9-CA28-42C1-9B3C-08680A8E3308";
shapes = (
{
closed = 1;
nodes = (
(173,754,o),
(43,518,o),
(43,314,cs),
(43,145,o),
(138,-12,o),
(322,-12,cs),
(472,-12,o),
(611,106,o),
(611,260,cs),
(611,374,o),
(527,462,o),
(414,462,cs),
(352,462,o),
(279,441,o),
(223,417,c),
(202,287,l),
(238,303,o),
(281,317,o),
(320,317,cs),
(368,317,o),
(412,288,o),
(412,237,cs),
(412,186,o),
(365,137,o),
(313,137,cs),
(244,137,o),
(235,222,o),
(235,273,cs),
(235,358,o),
(259,604,o),
(379,604,cs),
(421,604,o),
(463,580,o),
(489,547,c),
(605,659,l),
(557,717,o),
(474,754,o),
(401,754,cs)
);
}
);
width = 642;
},
{
layerId = "AC69D05A-01B2-435C-837D-E8B538C011DB";
shapes = (
{
closed = 1;
nodes = (
(162,754,o),
(41,485,o),
(41,280,cs),
(41,121,o),
(119,-12,o),
(291,-12,cs),
(443,-12,o),
(557,105,o),
(557,256,cs),
(557,384,o),
(464,466,o),
(340,466,cs),
(242,466,o),
(163,413,o),
(115,334,c),
(114,259,l),
(151,336,o),
(228,393,o),
(319,393,cs),
(407,393,o),
(472,344,o),
(472,252,cs),
(472,145,o),
(405,61,o),
(294,61,cs),
(171,61,o),
(124,152,o),
(124,265,cs),
(124,415,o),
(203,681,o),
(388,681,cs),
(435,681,o),
(484,661,o),
(518,628,c),
(569,688,l),
(524,731,o),
(463,754,o),
(400,754,cs)
);
}
);
width = 592;
},
{
layerId = "479E441D-7DC1-4B7F-91CA-24AB0BA7ACEE";
shapes = (
{
closed = 1;
nodes = (
(158,754,o),
(40,471,o),
(40,266,cs),
(40,111,o),
(112,-12,o),
(279,-12,cs),
(431,-12,o),
(535,105,o),
(535,255,cs),
(535,388,o),
(439,467,o),
(310,467,cs),
(198,467,o),
(116,401,o),
(71,301,c),
(78,247,l),
(116,350,o),
(207,423,o),
(319,423,cs),
(423,423,o),
(496,367,o),
(496,258,cs),
(496,129,o),
(421,30,o),
(287,30,cs),
(141,30,o),
(79,124,o),
(79,262,cs),
(79,438,o),
(180,712,o),
(392,712,cs),
(441,712,o),
(492,693,o),
(529,660,c),
(555,700,l),
(511,737,o),
(458,754,o),
(400,754,cs)
);
}
);
width = 572;
}
);
leftKerningGroup = six2;
rightKerningGroup = six;
unicode = 54;
},
{
glyphname = seven;
layers = (
{
layerId = "735450B9-CA28-42C1-9B3C-08680A8E3308";
shapes = (
{
closed = 1;
nodes = (
(301,0,l),
(326,150,o),
(415,371,o),
(628,624,c),
(644,742,l),
(109,742,l),
(74,576,l),
(416,576,l),
(407,607,l),
(243,402,o),
(102,139,o),
(77,0,c)
);
}
);
width = 603;
},
{
layerId = "AC69D05A-01B2-435C-837D-E8B538C011DB";
shapes = (
{
closed = 1;
nodes = (
(208,0,l),
(247,139,o),
(408,451,o),
(591,665,c),
(601,742,l),
(120,742,l),
(100,660,l),
(503,660,l),
(495,671,l),
(307,443,o),
(151,144,o),
(105,0,c)
);
}
);
width = 575;
},
{
layerId = "479E441D-7DC1-4B7F-91CA-24AB0BA7ACEE";
shapes = (
{
closed = 1;
nodes = (
(163,0,l),
(209,134,o),
(404,489,o),
(573,684,c),
(580,742,l),
(125,742,l),
(113,700,l),
(545,700,l),
(538,702,l),
(338,463,o),
(174,146,o),
(119,0,c)
);
}
);
width = 561;
}
);
leftKerningGroup = seven2;
rightKerningGroup = seven;
unicode = 55;
},
{
glyphname = eight;
layers = (
{
layerId = "735450B9-CA28-42C1-9B3C-08680A8E3308";
shapes = (
{
closed = 1;
nodes = (
(477,-13,o),
(603,66,o),
(603,224,cs),
(603,318,o),
(541,364,o),
(469,410,c),
(465,379,l),
(544,403,o),
(615,443,o),
(615,536,cs),
(615,680,o),
(458,753,o),
(333,753,cs),
(187,753,o),
(75,666,o),
(75,514,cs),
(75,433,o),
(115,390,o),
(182,352,c),
(184,370,l),
(84,358,o),
(20,301,o),
(20,197,cs),
(20,44,o),
(205,-13,o),
(331,-13,cs)
);
},
{
closed = 1;
nodes = (
(206,247,o),
(238,277,o),
(260,302,c),
(302,277,o),
(396,252,o),
(396,192,cs),
(396,152,o),
(354,138,o),
(320,138,cs),
(278,138,o),
(206,160,o),
(206,212,cs)
);
},
{
closed = 1;
nodes = (
(354,478,o),
(272,513,o),
(272,556,cs),
(272,591,o),
(316,602,o),
(344,602,cs),
(386,602,o),
(441,574,o),
(441,526,cs),
(441,495,o),
(410,475,o),
(386,460,c)
);
}
);
width = 639;
},
{
layerId = "AC69D05A-01B2-435C-837D-E8B538C011DB";
shapes = (
{
closed = 1;
nodes = (
(446,-12,o),
(567,61,o),
(567,212,cs),
(567,329,o),
(468,370,o),
(376,408,c),
(371,374,l),
(473,395,o),
(588,454,o),
(588,574,cs),
(588,704,o),
(446,754,o),
(337,754,cs),
(213,754,o),
(98,689,o),
(98,552,cs),
(98,459,o),
(173,415,o),
(247,378,c),
(250,400,l),
(133,377,o),
(26,325,o),
(26,191,cs),
(26,43,o),
(181,-12,o),
(307,-12,cs)
);
},
{
closed = 1;
nodes = (
(110,302,o),
(214,330,o),
(289,357,c),
(361,329,o),
(480,294,o),
(480,198,cs),
(480,102,o),
(389,61,o),
(304,61,cs),
(217,61,o),
(110,101,o),
(110,204,cs)
);
},
{
closed = 1;
nodes = (
(287,443,o),
(184,492,o),
(184,570,cs),
(184,652,o),
(275,680,o),
(341,680,cs),
(410,680,o),
(508,654,o),
(508,569,cs),
(508,488,o),
(420,444,o),
(352,427,c)
);
}
);
width = 609;
},
{
layerId = "479E441D-7DC1-4B7F-91CA-24AB0BA7ACEE";
shapes = (
{
closed = 1;
nodes = (
(433,-12,o),
(552,59,o),
(552,207,cs),
(552,333,o),
(438,373,o),
(338,407,c),
(333,372,l),
(444,392,o),
(577,459,o),
(577,589,cs),
(577,713,o),
(441,754,o),
(338,754,cs),
(224,754,o),
(107,698,o),
(107,568,cs),
(107,470,o),
(196,425,o),
(273,388,c),
(276,412,l),
(153,384,o),
(28,335,o),
(28,189,cs),
(28,42,o),
(172,-12,o),
(298,-12,cs)
);
},
{
closed = 1;
nodes = (
(71,324,o),
(204,352,o),
(300,379,c),
(385,350,o),
(514,311,o),
(514,200,cs),
(514,82,o),
(403,30,o),
(298,30,cs),
(192,30,o),
(71,77,o),
(71,201,cs)
);
},
{
closed = 1;
nodes = (
(260,429,o),
(148,483,o),
(148,576,cs),
(148,676,o),
(258,711,o),
(340,711,cs),
(419,711,o),
(535,686,o),
(535,587,cs),
(535,485,o),
(424,432,o),
(338,414,c)
);
}
);
width = 597;
}
);
leftKerningGroup = six2;
rightKerningGroup = six;
unicode = 56;
},
{
glyphname = nine;
layers = (
{
layerId = "735450B9-CA28-42C1-9B3C-08680A8E3308";
shapes = (
{
closed = 1;
nodes = (
(503,-12,o),
(633,223,o),
(633,428,cs),
(633,597,o),
(538,754,o),
(354,754,cs),
(205,754,o),
(65,637,o),
(65,483,cs),
(65,370,o),
(148,280,o),
(261,280,cs),
(323,280,o),
(397,301,o),
(453,325,c),
(474,455,l),
(438,438,o),
(395,425,o),
(355,425,cs),
(308,425,o),
(264,453,o),
(264,504,cs),
(264,555,o),
(311,605,o),
(363,605,cs),
(432,605,o),
(440,521,o),
(440,470,cs),
(440,385,o),
(415,137,o),
(297,137,cs),
(255,137,o),
(212,162,o),
(186,195,c),
(70,83,l),
(118,25,o),
(201,-12,o),
(275,-12,cs)
);
}
);
width = 642;
},
{
layerId = "AC69D05A-01B2-435C-837D-E8B538C011DB";
shapes = (
{
closed = 1;
nodes = (
(465,-12,o),
(586,257,o),
(586,464,cs),
(586,622,o),
(507,754,o),
(335,754,cs),
(182,754,o),
(69,636,o),
(69,484,cs),
(69,358,o),
(162,276,o),
(286,276,cs),
(384,276,o),
(463,330,o),
(511,408,c),
(512,484,l),
(475,405,o),
(398,349,o),
(307,349,cs),
(219,349,o),
(154,397,o),
(154,490,cs),
(154,596,o),
(221,681,o),
(332,681,cs),
(456,681,o),
(502,590,o),
(502,477,cs),
(502,327,o),
(423,61,o),
(238,61,cs),
(192,61,o),
(142,81,o),
(108,114,c),
(56,54,l),
(101,11,o),
(163,-12,o),
(226,-12,cs)
);
}
);
width = 592;
},
{
layerId = "479E441D-7DC1-4B7F-91CA-24AB0BA7ACEE";
shapes = (
{
closed = 1;
nodes = (
(449,-12,o),
(567,271,o),
(567,478,cs),
(567,632,o),
(494,754,o),
(327,754,cs),
(173,754,o),
(71,636,o),
(71,485,cs),
(71,353,o),
(168,275,o),
(296,275,cs),
(408,275,o),
(490,341,o),
(535,441,c),
(528,495,l),
(490,392,o),
(399,319,o),
(287,319,cs),
(183,319,o),
(110,375,o),
(110,484,cs),
(110,613,o),
(185,712,o),
(319,712,cs),
(465,712,o),
(527,618,o),
(527,480,cs),
(527,304,o),
(426,30,o),
(214,30,cs),
(166,30,o),
(114,48,o),
(77,82,c),
(50,42,l),
(94,5,o),
(147,-12,o),
(206,-12,cs)
);
}
);
width = 572;
}
);
leftKerningGroup = six2;
rightKerningGroup = six;
unicode = 57;
},
{
glyphname = colon;
layers = (
{
layerId = "735450B9-CA28-42C1-9B3C-08680A8E3308";
shapes = (
{
closed = 1;
nodes = (
(70,525,l),
(43,328,l),
(253,328,l),
(281,525,l)
);
},
{
closed = 1;
nodes = (
(25,200,l),
(-2,3,l),
(207,3,l),
(235,200,l)
);
}
);
width = 290;
},
{
layerId = "AC69D05A-01B2-435C-837D-E8B538C011DB";
shapes = (
{
closed = 1;
nodes = (
(87,508,l),
(71,392,l),
(178,392,l),
(194,508,l)
);
},
{
closed = 1;
nodes = (
(35,119,l),
(20,3,l),
(125,3,l),
(141,119,l)
);
}
);
width = 217;
},
{
layerId = "479E441D-7DC1-4B7F-91CA-24AB0BA7ACEE";
shapes = (
{
closed = 1;
nodes = (
(95,500,l),
(84,421,l),
(144,421,l),
(154,500,l)
);
},
{
closed = 1;
nodes = (
(39,82,l),
(30,3,l),
(88,3,l),
(98,82,l)
);
}
);
width = 184;
}
);
rightKerningGroup = comma;
unicode = 58;
},
{
glyphname = semicolon;
layers = (
{
layerId = "735450B9-CA28-42C1-9B3C-08680A8E3308";
shapes = (
{
closed = 1;
nodes = (
(60,-169,l),
(213,15,l),
(240,198,l),
(29,198,l),
(2,0,l),
(71,0,l),
(-31,-169,l)
);
},
{
closed = 1;
nodes = (
(257,321,l),
(285,522,l),
(75,522,l),
(47,321,l)
);
}
);
width = 295;
},
{
layerId = "AC69D05A-01B2-435C-837D-E8B538C011DB";
shapes = (
{
closed = 1;
nodes = (
(32,-145,l),
(133,9,l),
(148,116,l),
(41,116,l),
(25,0,l),
(66,0,l),
(-13,-145,l)
);
},
{
closed = 1;
nodes = (
(181,390,l),
(197,507,l),
(91,507,l),
(75,390,l)
);
}
);
width = 240;
},
{
layerId = "479E441D-7DC1-4B7F-91CA-24AB0BA7ACEE";
shapes = (
{
closed = 1;
nodes = (
(19,-134,l),
(96,6,l),
(106,79,l),
(47,79,l),
(36,0,l),
(63,0,l),
(-5,-134,l)
);
},
{
closed = 1;
nodes = (
(146,421,l),
(157,500,l),
(98,500,l),
(87,421,l)
);
}
);
width = 215;
}
);
unicode = 59;
},
{
glyphname = less;
layers = (
{
layerId = "735450B9-CA28-42C1-9B3C-08680A8E3308";
shapes = (
{
closed = 1;
nodes = (
(246,348,l),
(544,460,l),
(544,625,l),
(35,429,l),
(35,270,l),
(544,74,l),
(544,240,l)
);
}
);
width = 610;
},
{
layerId = "AC69D05A-01B2-435C-837D-E8B538C011DB";
shapes = (
{
closed = 1;
nodes = (
(164,355,l),
(485,481,l),
(485,567,l),
(56,397,l),
(56,313,l),
(484,146,l),
(484,230,l)
);
}
);
width = 539;
},
{
layerId = "479E441D-7DC1-4B7F-91CA-24AB0BA7ACEE";
shapes = (
{
closed = 1;
nodes = (
(126,358,l),
(458,490,l),
(458,540,l),
(65,382,l),
(65,333,l),
(457,178,l),
(457,225,l)
);
}
);
width = 506;
}
);
unicode = 60;
},
{
glyphname = equal;
layers = (
{
layerId = "735450B9-CA28-42C1-9B3C-08680A8E3308";
shapes = (
{
closed = 1;
nodes = (
(40,540,l),
(40,399,l),
(562,399,l),
(562,540,l)
);
},
{
closed = 1;
nodes = (
(40,299,l),
(40,158,l),
(562,158,l),
(562,299,l)
);
}
);
width = 611;
},
{
layerId = "AC69D05A-01B2-435C-837D-E8B538C011DB";
shapes = (
{
closed = 1;
nodes = (
(61,506,l),
(61,436,l),
(499,437,l),
(499,507,l)
);
},
{
closed = 1;
nodes = (
(61,280,l),
(61,210,l),
(499,210,l),
(499,280,l)
);
}
);
width = 544;
},
{
layerId = "479E441D-7DC1-4B7F-91CA-24AB0BA7ACEE";
shapes = (
{
closed = 1;
nodes = (
(70,491,l),
(70,453,l),
(471,454,l),
(471,492,l)
);
},
{
closed = 1;
nodes = (
(70,271,l),
(70,233,l),
(471,234,l),
(471,272,l)
);
}
);
width = 514;
}
);
unicode = 61;
},
{
glyphname = greater;
layers = (
{
layerId = "735450B9-CA28-42C1-9B3C-08680A8E3308";
shapes = (
{
closed = 1;
nodes = (
(55,74,l),
(564,270,l),
(564,429,l),
(55,625,l),
(55,460,l),
(353,348,l),
(55,240,l)
);
}
);
width = 611;
},
{
layerId = "AC69D05A-01B2-435C-837D-E8B538C011DB";
shapes = (
{
closed = 1;
nodes = (
(69,146,l),
(498,313,l),
(498,397,l),
(69,567,l),
(69,481,l),
(390,355,l),
(69,230,l)
);
}
);
width = 539;
},
{
layerId = "479E441D-7DC1-4B7F-91CA-24AB0BA7ACEE";
shapes = (
{
closed = 1;
nodes = (
(76,178,l),
(468,333,l),
(468,382,l),
(75,540,l),
(75,490,l),
(407,358,l),
(76,225,l)
);
}
);
width = 506;
}
);
unicode = 62;
},
{
glyphname = question;
rightMetricsKey = z;
layers = (
{
layerId = "735450B9-CA28-42C1-9B3C-08680A8E3308";
shapes = (
{
closed = 1;
nodes = (
(150,197,l),
(123,0,l),
(333,0,l),
(361,197,l)
);
},
{
closed = 1;
nodes = (
(339,269,l),
(341,285,ls),
(345,317,o),
(359,342,o),
(379,362,cs),
(445,430,o),
(573,454,o),
(573,569,cs),
(573,701,o),
(408,752,o),
(301,752,cs),
(175,752,o),
(69,685,o),
(24,566,c),
(202,528,l),
(213,574,o),
(273,621,o),
(320,621,cs),
(351,621,o),
(379,611,o),
(379,576,cs),
(379,553,o),
(362,533,o),
(339,512,cs),
(286,464,o),
(198,409,o),
(186,296,cs),
(183,269,l)
);
}
);
width = 545;
},
{
layerId = "AC69D05A-01B2-435C-837D-E8B538C011DB";
shapes = (
{
closed = 1;
nodes = (
(120,113,l),
(102,0,l),
(205,0,l),
(223,113,l)
);
},
{
closed = 1;
nodes = (
(223,240,l),
(232,303,ls),
(236,333,o),
(262,362,o),
(295,388,cs),
(367,446,o),
(476,496,o),
(476,605,cs),
(476,702,o),
(377,753,o),
(291,753,cs),
(204,753,o),
(129,701,o),
(89,627,c),
(163,602,l),
(194,649,o),
(228,689,o),
(292,689,cs),
(342,689,o),
(396,662,o),
(396,605,cs),
(396,557,o),
(348,509,o),
(311,480,cs),
(246,427,o),
(174,397,o),
(161,295,cs),
(153,240,l)
);
}
);
width = 461;
},
{
layerId = "479E441D-7DC1-4B7F-91CA-24AB0BA7ACEE";
shapes = (
{
closed = 1;
nodes = (
(108,79,l),
(94,0,l),
(153,0,l),
(167,79,l)
);
},
{
closed = 1;
nodes = (
(176,228,l),
(188,310,ls),
(192,339,o),
(223,370,o),
(261,398,cs),
(335,453,o),
(437,513,o),
(437,620,cs),
(437,703,o),
(365,754,o),
(287,754,cs),
(216,754,o),
(153,708,o),
(115,651,c),
(147,632,l),
(187,679,o),
(210,716,o),
(280,716,cs),
(339,716,o),
(403,682,o),
(403,616,cs),
(403,559,o),
(342,500,o),
(300,467,cs),
(230,412,o),
(165,392,o),
(151,295,cs),
(141,228,l)
);
}
);
width = 433;
}
);
leftKerningGroup = question;
unicode = 63;
},
{
glyphname = at;
layers = (
{
layerId = "735450B9-CA28-42C1-9B3C-08680A8E3308";
shapes = (
{
closed = 1;
nodes = (
(589,42,l),
(539,7,o),
(494,-21,o),
(398,-21,cs),
(223,-21,o),
(119,68,o),
(145,254,cs),
(169,418,o),
(275,560,o),
(500,560,cs),
(632,560,o),
(744,514,o),
(720,343,cs),
(708,267,o),
(669,185,o),
(613,185,cs),
(595,185,o),
(596,204,o),
(603,225,cs),
(672,449,l),
(563,449,l),
(548,421,l),
(532,446,o),
(505,475,o),
(445,475,cs),
(319,475,o),
(229,369,o),
(213,255,cs),
(196,142,o),
(257,67,o),
(353,67,cs),
(423,67,o),
(482,93,o),
(498,136,c),
(518,99,o),
(551,81,o),
(600,81,cs),
(716,81,o),
(806,181,o),
(827,327,cs),
(859,559,o),
(689,661,o),
(499,661,cs),
(244,661,o),
(65,483,o),
(35,273,cs),
(5,61,o),
(132,-113,o),
(384,-113,cs),
(498,-113,o),
(594,-78,o),
(645,-46,c)
);
},
{
closed = 1;
nodes = (
(353,312,o),
(406,364,o),
(455,364,cs),
(494,364,o),
(507,329,o),
(502,294,cs),
(494,238,o),
(445,178,o),
(389,178,cs),
(349,178,o),
(339,212,o),
(343,247,c)
);
}
);
width = 844;
},
{
layerId = "AC69D05A-01B2-435C-837D-E8B538C011DB";
shapes = (
{
closed = 1;
nodes = (
(575,13,l),
(523,-24,o),
(477,-54,o),
(386,-54,cs),
(180,-54,o),
(88,80,o),
(112,255,cs),
(137,442,o),
(274,600,o),
(484,600,cs),
(615,600,o),
(746,530,o),
(720,338,cs),
(705,227,o),
(643,143,o),
(575,143,cs),
(543,143,o),
(535,164,o),
(551,217,cs),
(620,449,l),
(558,449,l),
(539,404,l),
(520,448,o),
(486,475,o),
(433,475,cs),
(324,475,o),
(235,372,o),
(218,248,cs),
(202,139,o),
(258,67,o),
(334,67,cs),
(398,67,o),
(446,91,o),
(484,144,c),
(493,100,o),
(515,81,o),
(568,81,cs),
(674,81,o),
(766,184,o),
(786,335,cs),
(817,562,o),
(655,661,o),
(485,661,cs),
(254,661,o),
(75,480,o),
(46,266,cs),
(18,58,o),
(136,-113,o),
(373,-113,cs),
(463,-113,o),
(545,-84,o),
(609,-41,c)
);
},
{
closed = 1;
nodes = (
(303,335,o),
(363,410,o),
(436,410,cs),
(484,410,o),
(522,365,o),
(499,276,cs),
(479,199,o),
(415,132,o),
(350,132,cs),
(302,132,o),
(282,176,o),
(291,244,cs)
);
}
);
width = 808;
},
{
layerId = "479E441D-7DC1-4B7F-91CA-24AB0BA7ACEE";
shapes = (
{
closed = 1;
nodes = (
(569,0,l),
(515,-38,o),
(469,-69,o),
(381,-69,cs),
(161,-69,o),
(74,85,o),
(97,256,cs),
(123,453,o),
(274,618,o),
(476,618,cs),
(607,618,o),
(747,537,o),
(720,336,cs),
(703,209,o),
(631,124,o),
(557,124,cs),
(519,124,o),
(507,146,o),
(527,213,cs),
(596,449,l),
(556,449,l),
(535,396,l),
(515,449,o),
(478,475,o),
(428,475,cs),
(326,475,o),
(237,374,o),
(220,245,cs),
(205,137,o),
(258,67,o),
(325,67,cs),
(387,67,o),
(429,90,o),
(478,148,c),
(482,101,o),
(498,81,o),
(554,81,cs),
(655,81,o),
(748,186,o),
(768,338,cs),
(798,563,o),
(639,661,o),
(479,661,cs),
(258,661,o),
(80,478,o),
(51,263,cs),
(24,56,o),
(138,-113,o),
(368,-113,cs),
(447,-113,o),
(523,-87,o),
(592,-38,c)
);
},
{
closed = 1;
nodes = (
(280,346,o),
(344,431,o),
(427,431,cs),
(480,431,o),
(529,381,o),
(497,268,cs),
(472,181,o),
(401,111,o),
(332,111,cs),
(280,111,o),
(256,159,o),
(267,242,cs)
);
}
);
width = 792;
}
);
leftKerningGroup = c;
rightKerningGroup = b;
unicode = 64;
},
{
glyphname = A;
layers = (
{
anchors = (
{
name = ogonek;
position = "{706, 9}";
},
{
name = top;
position = "{458, 742}";
}
);
layerId = "735450B9-CA28-42C1-9B3C-08680A8E3308";
shapes = (
{
closed = 1;
nodes = (
(173,0,l),
(243,144,l),
(477,144,l),
(506,0,l),
(703,0,l),
(545,742,l),
(341,742,l),
(-26,0,l)
);
},
{
closed = 1;
nodes = (
(416,551,l),
(456,314,l),
(309,314,l)
);
}
);
width = 739;
},
{
anchors = (
{
name = ogonek;
position = "{602, 10}";
},
{
name = top;
position = "{403, 742}";
}
);
layerId = "AC69D05A-01B2-435C-837D-E8B538C011DB";
shapes = (
{
closed = 1;
nodes = (
(77,0,l),
(179,206,l),
(474,206,l),
(518,0,l),
(606,0,l),
(448,742,l),
(349,742,l),
(-12,0,l)
);
},
{
closed = 1;
nodes = (
(387,652,l),
(462,289,l),
(212,289,l)
);
}
);
width = 661;
},
{
anchors = (
{
name = ogonek;
position = "{555, 11}";
},
{
name = top;
position = "{378, 742}";
}
);
guides = (
{
angle = 70.442;
position = "{11, 119}";
},
{
angle = 109.151;
position = "{413, 119}";
}
);
layerId = "479E441D-7DC1-4B7F-91CA-24AB0BA7ACEE";
shapes = (
{
closed = 1;
nodes = (
(35,0,l),
(150,234,l),
(472,234,l),
(522,0,l),
(563,0,l),
(406,742,l),
(352,742,l),
(-6,0,l)
);
},
{
closed = 1;
nodes = (
(373,698,l),
(464,278,l),
(169,278,l)
);
}
);
width = 626;
}
);
leftKerningGroup = A2;
rightKerningGroup = A;
unicode = 65;
},
{
glyphname = B;
leftMetricsKey = N;
layers = (
{
layerId = "735450B9-CA28-42C1-9B3C-08680A8E3308";
shapes = (
{
closed = 1;
nodes = (
(336,0,ls),
(552,0,o),
(644,64,o),
(663,202,cs),
(671,257,o),
(676,343,o),
(550,382,c),
(649,427,o),
(684,477,o),
(693,546,cs),
(711,672,o),
(631,742,o),
(424,742,cs),
(128,742,l),
(24,0,l)
);
},
{
closed = 1;
nodes = (
(266,298,l),
(391,298,ls),
(441,298,o),
(469,268,o),
(464,227,c),
(458,188,o),
(423,150,o),
(365,150,cs),
(245,150,l)
);
},
{
closed = 1;
nodes = (
(307,592,l),
(425,592,ls),
(472,592,o),
(505,564,o),
(499,520,cs),
(493,481,o),
(459,452,o),
(412,452,cs),
(287,452,l)
);
}
);
width = 691;
},
{
layerId = "AC69D05A-01B2-435C-837D-E8B538C011DB";
shapes = (
{
closed = 1;
nodes = (
(295,0,ls),
(476,0,o),
(578,65,o),
(596,199,cs),
(608,284,o),
(579,353,o),
(470,378,c),
(573,413,o),
(615,469,o),
(626,549,cs),
(643,673,o),
(561,742,o),
(388,742,cs),
(160,742,l),
(59,0,l)
);
},
{
closed = 1;
nodes = (
(193,337,l),
(350,337,ls),
(447,337,o),
(520,298,o),
(507,203,cs),
(495,116,o),
(426,76,o),
(305,76,cs),
(158,76,l)
);
},
{
closed = 1;
nodes = (
(238,666,l),
(382,666,ls),
(484,666,o),
(550,625,o),
(539,537,cs),
(526,441,o),
(436,414,o),
(360,414,cs),
(203,414,l)
);
}
);
width = 654;
},
{
layerId = "479E441D-7DC1-4B7F-91CA-24AB0BA7ACEE";
shapes = (
{
closed = 1;
nodes = (
(276,0,ls),
(442,0,o),
(548,66,o),
(566,198,cs),
(579,296,o),
(535,358,o),
(433,376,c),
(539,407,o),
(584,466,o),
(596,550,cs),
(612,674,o),
(529,742,o),
(372,742,cs),
(174,742,l),
(75,0,l)
);
},
{
closed = 1;
nodes = (
(160,354,l),
(331,354,ls),
(449,354,o),
(543,312,o),
(527,192,cs),
(512,83,o),
(427,42,o),
(277,42,cs),
(119,42,l)
);
},
{
closed = 1;
nodes = (
(206,700,l),
(362,700,ls),
(490,700,o),
(571,653,o),
(557,545,cs),
(541,423,o),
(425,396,o),
(336,396,cs),
(165,396,l)
);
}
);
width = 636;
}
);
leftKerningGroup = B;
unicode = 66;
},
{
glyphname = C;
layers = (
{
anchors = (
{
name = bottom;
position = "{339, 0}";
},
{
name = top;
position = "{443, 742}";
}
);
guides = (
{
angle = 176.441;
position = "{452, 331}";
}
);
layerId = "735450B9-CA28-42C1-9B3C-08680A8E3308";
shapes = (
{
closed = 1;
nodes = (
(227,752,o),
(69,606,o),
(37,381,cs),
(6,155,o),
(122,-10,o),
(337,-10,cs),
(574,-10,o),
(655,110,o),
(698,264,c),
(502,277,l),
(480,208,o),
(434,150,o),
(366,150,cs),
(291,150,o),
(232,212,o),
(255,377,cs),
(278,540,o),
(353,592,o),
(428,592,cs),
(496,592,o),
(527,544,o),
(529,475,c),
(729,488,l),
(735,648,o),
(620,752,o),
(444,752,cs)
);
}
);
width = 707;
},
{
anchors = (
{
name = bottom;
position = "{316, 0}";
},
{
name = top;
position = "{416, 742}";
}
);
guides = (
{
angle = 176.441;
position = "{452, 331}";
}
);
layerId = "AC69D05A-01B2-435C-837D-E8B538C011DB";
shapes = (
{
closed = 1;
nodes = (
(222,752,o),
(94,609,o),
(61,372,cs),
(30,136,o),
(121,-10,o),
(314,-10,cs),
(466,-10,o),
(577,83,o),
(607,204,c),
(521,217,l),
(489,126,o),
(416,69,o),
(328,69,cs),
(190,69,o),
(130,171,o),
(157,371,cs),
(185,575,o),
(274,673,o),
(405,673,cs),
(510,673,o),
(560,609,o),
(564,522,c),
(654,531,l),
(658,654,o),
(566,752,o),
(411,752,cs)
);
}
);
width = 660;
},
{
anchors = (
{
name = bottom;
position = "{305, 0}";
},
{
name = top;
position = "{404, 742}";
}
);
guides = (
{
angle = 90;
position = "{655, 0}";
}
);
layerId = "479E441D-7DC1-4B7F-91CA-24AB0BA7ACEE";
shapes = (
{
closed = 1;
nodes = (
(219,752,o),
(104,610,o),
(71,368,cs),
(40,127,o),
(120,-10,o),
(303,-10,cs),
(419,-10,o),
(542,71,o),
(567,177,c),
(527,189,l),
(492,89,o),
(408,32,o),
(311,32,cs),
(146,32,o),
(86,153,o),
(114,368,cs),
(144,591,o),
(239,710,o),
(394,710,cs),
(515,710,o),
(573,639,o),
(578,543,c),
(620,550,l),
(623,656,o),
(542,752,o),
(397,752,cs)
);
}
);
width = 638;
}
);
leftKerningGroup = C2;
rightKerningGroup = C;
unicode = 67;
},
{
glyphname = D;
leftMetricsKey = N;
layers = (
{
layerId = "735450B9-CA28-42C1-9B3C-08680A8E3308";
shapes = (
{
closed = 1;
nodes = (
(24,0,l),
(289,0,ls),
(552,0,o),
(696,157,o),
(726,373,cs),
(756,584,o),
(660,731,o),
(394,741,cs),
(330,743,o),
(149,742,o),
(128,742,c)
);
},
{
closed = 1;
nodes = (
(377,585,ls),
(479,585,o),
(538,513,o),
(519,376,cs),
(496,215,o),
(393,157,o),
(317,157,cs),
(246,157,l),
(306,585,l)
);
}
);
width = 730;
},
{
layerId = "AC69D05A-01B2-435C-837D-E8B538C011DB";
shapes = (
{
closed = 1;
nodes = (
(60,0,l),
(212,0,ls),
(472,0,o),
(612,128,o),
(646,375,cs),
(677,612,o),
(585,737,o),
(323,741,cs),
(262,742,o),
(168,742,o),
(160,742,c)
);
},
{
closed = 1;
nodes = (
(306,663,ls),
(487,663,o),
(583,592,o),
(553,373,cs),
(523,157,o),
(405,78,o),
(222,78,cs),
(160,78,l),
(240,663,l)
);
}
);
width = 676;
},
{
layerId = "479E441D-7DC1-4B7F-91CA-24AB0BA7ACEE";
shapes = (
{
closed = 1;
nodes = (
(75,0,l),
(179,0,ls),
(437,0,o),
(575,115,o),
(610,376,cs),
(642,624,o),
(552,739,o),
(291,741,cs),
(232,741,o),
(176,742,o),
(174,742,c)
);
},
{
closed = 1;
nodes = (
(275,699,ls),
(489,699,o),
(601,628,o),
(567,372,cs),
(535,130,o),
(409,42,o),
(181,42,cs),
(123,42,l),
(210,699,l)
);
}
);
width = 651;
}
);
leftKerningGroup = B;
rightKerningGroup = D;
unicode = 68;
},
{
glyphname = E;
leftMetricsKey = N;
layers = (
{
anchors = (
{
name = bottom;
position = "{297, 0}";
},
{
name = ogonek;
position = "{572, 10}";
},
{
name = top;
position = "{401, 742}";
}
);
layerId = "735450B9-CA28-42C1-9B3C-08680A8E3308";
shapes = (
{
closed = 1;
nodes = (
(572,0,l),
(595,166,l),
(247,166,l),
(265,292,l),
(555,292,l),
(577,453,l),
(288,453,l),
(306,576,l),
(651,576,l),
(675,742,l),
(128,742,l),
(24,0,l)
);
}
);
width = 648;
},
{
anchors = (
{
name = bottom;
position = "{305, 0}";
},
{
name = ogonek;
position = "{513, 10}";
},
{
name = top;
position = "{393, 742}";
}
);
layerId = "AC69D05A-01B2-435C-837D-E8B538C011DB";
shapes = (
{
closed = 1;
nodes = (
(518,0,l),
(528,81,l),
(157,81,l),
(192,335,l),
(518,335,l),
(528,414,l),
(203,414,l),
(237,661,l),
(597,661,l),
(607,742,l),
(160,742,l),
(60,0,l)
);
}
);
width = 611;
},
{
anchors = (
{
name = bottom;
position = "{309, 0}";
},
{
name = ogonek;
position = "{486, 10}";
},
{
name = top;
position = "{390, 742}";
}
);
layerId = "479E441D-7DC1-4B7F-91CA-24AB0BA7ACEE";
shapes = (
{
closed = 1;
nodes = (
(493,0,l),
(499,42,l),
(119,43,l),
(160,354,l),
(501,354,l),
(506,396,l),
(165,396,l),
(206,700,l),
(572,700,l),
(578,742,l),
(174,742,l),
(75,0,l)
);
}
);
width = 594;
}
);
leftKerningGroup = B;
rightKerningGroup = E;
unicode = 69;
},
{
glyphname = F;
leftMetricsKey = N;
layers = (
{
layerId = "735450B9-CA28-42C1-9B3C-08680A8E3308";
shapes = (
{
closed = 1;
nodes = (
(24,0,l),
(224,0,l),
(264,286,l),
(550,286,l),
(572,445,l),
(286,445,l),
(305,578,l),
(647,578,l),
(671,742,l),
(128,742,l)
);
}
);
width = 623;
},
{
layerId = "AC69D05A-01B2-435C-837D-E8B538C011DB";
shapes = (
{
closed = 1;
nodes = (
(59,0,l),
(151,0,l),
(196,333,l),
(513,333,l),
(524,412,l),
(207,412,l),
(240,662,l),
(592,662,l),
(603,742,l),
(160,742,l)
);
}
);
width = 577;
},
{
layerId = "479E441D-7DC1-4B7F-91CA-24AB0BA7ACEE";
shapes = (
{
closed = 1;
nodes = (
(75,0,l),
(117,0,l),
(164,355,l),
(496,355,l),
(502,397,l),
(170,397,l),
(210,700,l),
(566,700,l),
(572,742,l),
(174,742,l)
);
}
);
width = 555;
}
);
leftKerningGroup = B;
rightKerningGroup = F;
unicode = 70;
},
{
glyphname = G;
layers = (
{
anchors = (
{
name = bottom;
position = "{336, 0}";
},
{
name = top;
position = "{440, 742}";
}
);
layerId = "735450B9-CA28-42C1-9B3C-08680A8E3308";
shapes = (
{
closed = 1;
nodes = (
(454,-10,o),
(515,44,o),
(557,82,c),
(546,0,l),
(677,0,l),
(732,392,l),
(393,394,l),
(374,259,l),
(503,259,l),
(490,233,ls),
(466,187,o),
(429,163,o),
(373,163,cs),
(309,163,o),
(228,193,o),
(253,374,cs),
(276,534,o),
(350,587,o),
(424,587,cs),
(493,587,o),
(519,541,o),
(529,470,c),
(741,501,l),
(734,624,o),
(651,752,o),
(452,752,cs),
(238,752,o),
(68,599,o),
(35,368,cs),
(4,145,o),
(121,-10,o),
(332,-10,cs)
);
}
);
width = 753;
},
{
anchors = (
{
name = bottom;
position = "{317, 0}";
},
{
name = top;
position = "{415, 742}";
}
);
layerId = "AC69D05A-01B2-435C-837D-E8B538C011DB";
shapes = (
{
closed = 1;
nodes = (
(424,-10,o),
(499,49,o),
(546,114,c),
(530,0,l),
(597,0,l),
(648,382,l),
(381,382,l),
(373,316,l),
(549,316,l),
(537,248,l),
(521,169,o),
(450,72,o),
(328,72,cs),
(201,72,o),
(127,166,o),
(155,374,cs),
(182,568,o),
(278,672,o),
(408,672,cs),
(499,672,o),
(556,607,o),
(561,521,c),
(657,536,l),
(657,649,o),
(561,752,o),
(419,752,cs),
(234,752,o),
(94,609,o),
(61,368,cs),
(29,134,o),
(125,-10,o),
(311,-10,cs)
);
}
);
width = 697;
},
{
anchors = (
{
name = bottom;
position = "{309, 0}";
},
{
name = top;
position = "{403, 742}";
}
);
layerId = "479E441D-7DC1-4B7F-91CA-24AB0BA7ACEE";
shapes = (
{
closed = 1;
nodes = (
(410,-10,o),
(491,51,o),
(540,129,c),
(523,0,l),
(561,0,l),
(611,377,l),
(376,377,l),
(371,342,l),
(568,342,l),
(557,255,ls),
(543,161,o),
(458,30,o),
(308,30,cs),
(153,30,o),
(83,153,o),
(112,374,cs),
(141,584,o),
(246,710,o),
(399,710,cs),
(501,710,o),
(571,637,o),
(574,544,c),
(619,552,l),
(622,660,o),
(521,752,o),
(404,752,cs),
(232,752,o),
(105,614,o),
(71,368,cs),
(40,129,o),
(125,-10,o),
(301,-10,cs)
);
}
);
width = 671;
}
);
leftKerningGroup = C2;
rightKerningGroup = G;
unicode = 71;
},
{
glyphname = H;
leftMetricsKey = N;
rightMetricsKey = N;
layers = (
{
anchors = (
{
name = bottom;
position = "{331, 0}";
},
{
name = top;
position = "{437, 742}";
}
);
layerId = "735450B9-CA28-42C1-9B3C-08680A8E3308";
shapes = (
{
closed = 1;
nodes = (
(448,0,l),
(648,0,l),
(752,742,l),
(552,742,l),
(513,461,l),
(289,461,l),
(328,742,l),
(128,742,l),
(24,0,l),
(224,0,l),
(265,297,l),
(489,297,l)
);
}
);
width = 744;
},
{
anchors = (
{
name = bottom;
position = "{315, 0}";
},
{
name = top;
position = "{416, 742}";
}
);
layerId = "AC69D05A-01B2-435C-837D-E8B538C011DB";
shapes = (
{
closed = 1;
nodes = (
(486,0,l),
(573,0,l),
(673,742,l),
(586,742,l),
(544,424,l),
(205,424,l),
(247,742,l),
(160,742,l),
(60,0,l),
(147,0,l),
(193,344,l),
(532,344,l)
);
}
);
width = 703;
},
{
anchors = (
{
name = bottom;
position = "{308, 0}";
},
{
name = top;
position = "{407, 742}";
}
);
layerId = "479E441D-7DC1-4B7F-91CA-24AB0BA7ACEE";
shapes = (
{
closed = 1;
nodes = (
(502,0,l),
(540,0,l),
(638,742,l),
(600,742,l),
(556,407,l),
(167,407,l),
(212,742,l),
(174,742,l),
(75,0,l),
(113,0,l),
(162,365,l),
(550,365,l)
);
}
);
width = 684;
}
);
leftKerningGroup = B;
rightKerningGroup = H;
unicode = 72;
},
{
glyphname = I;
layers = (
{
anchors = (
{
name = bottom;
position = "{125, 0}";
},
{
name = ogonek;
position = "{199, 3}";
},
{
name = top;
position = "{228, 742}";
}
);
layerId = "735450B9-CA28-42C1-9B3C-08680A8E3308";
shapes = (
{
closed = 1;
nodes = (
(24,0,l),
(224,0,l),
(328,742,l),
(128,742,l)
);
}
);
width = 320;
},
{
anchors = (
{
name = bottom;
position = "{104, 0}";
},
{
name = ogonek;
position = "{136, 8}";
},
{
name = top;
position = "{207, 742}";
}
);
layerId = "AC69D05A-01B2-435C-837D-E8B538C011DB";
shapes = (
{
closed = 1;
nodes = (
(60,0,l),
(147,0,l),
(247,742,l),
(160,742,l)
);
}
);
width = 277;
},
{
anchors = (
{
name = bottom;
position = "{95, 0}";
},
{
name = ogonek;
position = "{107, 10}";
},
{
name = top;
position = "{197, 742}";
}
);
layerId = "479E441D-7DC1-4B7F-91CA-24AB0BA7ACEE";
shapes = (
{
closed = 1;
nodes = (
(75,0,l),
(113,0,l),
(212,742,l),
(174,742,l)
);
}
);
width = 257;
}
);
leftKerningGroup = B;
rightKerningGroup = H;
unicode = 73;
},
{
glyphname = J;
layers = (
{
layerId = "735450B9-CA28-42C1-9B3C-08680A8E3308";
shapes = (
{
closed = 1;
nodes = (
(436,742,l),
(236,742,l),
(172,286,ls),
(161,209,o),
(139,174,o),
(68,174,cs),
(47,174,o),
(22,177,o),
(4,179,c),
(-21,0,l),
(8,-6,o),
(69,-10,o),
(111,-10,cs),
(290,-10,o),
(342,71,o),
(365,235,cs)
);
}
);
width = 418;
},
{
layerId = "AC69D05A-01B2-435C-837D-E8B538C011DB";
shapes = (
{
closed = 1;
nodes = (
(349,742,l),
(262,742,l),
(187,198,ls),
(176,110,o),
(151,76,o),
(86,76,cs),
(45,76,o),
(22,92,o),
(4,100,c),
(-15,13,l),
(-2,7,o),
(45,-10,o),
(97,-10,cs),
(214,-10,o),
(256,56,o),
(271,172,cs)
);
}
);
width = 364;
},
{
layerId = "479E441D-7DC1-4B7F-91CA-24AB0BA7ACEE";
shapes = (
{
closed = 1;
nodes = (
(310,742,l),
(272,742,l),
(194,158,ls),
(181,65,o),
(155,32,o),
(93,32,cs),
(44,32,o),
(22,53,o),
(3,64,c),
(-13,19,l),
(-7,13,o),
(34,-10,o),
(89,-10,cs),
(181,-10,o),
(218,49,o),
(230,144,cs)
);
}
);
width = 340;
}
);
leftKerningGroup = J2;
rightKerningGroup = J;
unicode = 74;
},
{
glyphname = K;
leftMetricsKey = N;
layers = (
{
anchors = (
{
name = bottom;
position = "{323, 0}";
},
{
name = top;
position = "{427, 742}";
}
);
guides = (
{
angle = 54.499;
position = "{774, 742}";
},
{
angle = 297.12;
position = "{306, 313}";
}
);
hints = (
{
horizontal = 1;
place = (0,21);
target = up;
type = BottomGhost;
},
{
horizontal = 1;
place = (742,-20);
target = down;
type = TopGhost;
},
{
place = (-156,1);
type = Stem;
}
);
layerId = "735450B9-CA28-42C1-9B3C-08680A8E3308";
shapes = (
{
closed = 1;
nodes = (
(530,458,l),
(774,742,l),
(549,742,l),
(293,442,l),
(335,742,l),
(128,742,l),
(24,0,l),
(231,0,l),
(258,194,l),
(367,313,l),
(488,0,l),
(703,0,l)
);
}
);
width = 749;
},
{
anchors = (
{
name = bottom;
position = "{301, 0}";
},
{
name = top;
position = "{421, 742}";
}
);
guides = (
{
angle = 54.499;
position = "{774, 742}";
},
{
angle = 297.12;
position = "{306, 313}";
}
);
hints = (
{
horizontal = 1;
place = (0,21);
target = up;
type = BottomGhost;
},
{
horizontal = 1;
place = (742,-20);
target = down;
type = TopGhost;
}
);
layerId = "AC69D05A-01B2-435C-837D-E8B538C011DB";
shapes = (
{
closed = 1;
nodes = (
(403,450,l),
(684,742,l),
(577,742,l),
(198,354,l),
(251,742,l),
(160,742,l),
(60,0,l),
(151,0,l),
(182,233,l),
(330,383,l),
(503,0,l),
(603,0,l)
);
}
);
width = 668;
},
{
anchors = (
{
name = bottom;
position = "{291, 0}";
},
{
name = top;
position = "{418, 742}";
}
);
guides = (
{
angle = 115.259;
position = "{509, 0}";
},
{
angle = 224.78;
position = "{687, 785}";
}
);
layerId = "479E441D-7DC1-4B7F-91CA-24AB0BA7ACEE";
shapes = (
{
closed = 1;
nodes = (
(347,447,l),
(643,742,l),
(588,742,l),
(157,314,l),
(214,742,l),
(174,742,l),
(75,0,l),
(115,0,l),
(148,250,l),
(314,415,l),
(509,0,l),
(559,0,l)
);
}
);
width = 631;
}
);
leftKerningGroup = B;
rightKerningGroup = K;
unicode = 75;
},
{
glyphname = L;
leftMetricsKey = N;
layers = (
{
anchors = (
{
name = bottom;
position = "{269, 0}";
},
{
name = top;
position = "{217, 742}";
},
{
name = topright;
position = "{559, 742}";
}
);
layerId = "735450B9-CA28-42C1-9B3C-08680A8E3308";
shapes = (
{
closed = 1;
nodes = (
(24,0,l),
(520,0,l),
(543,164,l),
(247,164,l),
(328,742,l),
(128,742,l)
);
}
);
width = 571;
},
{
anchors = (
{
name = bottom;
position = "{270, 0}";
},
{
name = top;
position = "{204, 742}";
},
{
name = topright;
position = "{495, 742}";
}
);
layerId = "AC69D05A-01B2-435C-837D-E8B538C011DB";
shapes = (
{
closed = 1;
nodes = (
(60,0,l),
(490,0,l),
(501,82,l),
(160,82,l),
(250,742,l),
(160,742,l)
);
}
);
width = 549;
},
{
anchors = (
{
name = bottom;
position = "{270, 0}";
},
{
name = top;
position = "{198, 742}";
},
{
name = topright;
position = "{466, 742}";
}
);
layerId = "479E441D-7DC1-4B7F-91CA-24AB0BA7ACEE";
shapes = (
{
closed = 1;
nodes = (
(75,0,l),
(476,0,l),
(482,44,l),
(123,44,l),
(216,742,l),
(174,742,l)
);
}
);
width = 539;
}
);
leftKerningGroup = B;
rightKerningGroup = L;
unicode = 76;
},
{
glyphname = M;
leftMetricsKey = N;
rightMetricsKey = N;
layers = (
{
layerId = "735450B9-CA28-42C1-9B3C-08680A8E3308";
shapes = (
{
closed = 1;
nodes = (
(224,0,l),
(299,537,l),
(368,0,l),
(512,0,l),
(731,537,l),
(656,0,l),
(856,0,l),
(960,742,l),
(665,742,l),
(480,289,l),
(424,742,l),
(128,742,l),
(24,0,l)
);
}
);
width = 952;
},
{
layerId = "AC69D05A-01B2-435C-837D-E8B538C011DB";
shapes = (
{
closed = 1;
nodes = (
(150,0,l),
(230,597,l),
(358,0,l),
(441,0,l),
(734,602,l),
(653,0,l),
(742,0,l),
(842,742,l),
(724,742,l),
(416,121,l),
(280,742,l),
(160,742,l),
(60,0,l)
);
}
);
width = 872;
},
{
layerId = "479E441D-7DC1-4B7F-91CA-24AB0BA7ACEE";
shapes = (
{
closed = 1;
nodes = (
(117,0,l),
(200,624,l),
(353,0,l),
(410,0,l),
(734,632,l),
(650,0,l),
(692,0,l),
(790,742,l),
(749,742,l),
(388,45,l),
(217,742,l),
(174,742,l),
(75,0,l)
);
}
);
width = 836;
}
);
leftKerningGroup = B;
rightKerningGroup = H;
unicode = 77;
},
{
glyphname = N;
layers = (
{
layerId = "735450B9-CA28-42C1-9B3C-08680A8E3308";
shapes = (
{
closed = 1;
nodes = (
(560,328,l),
(329,742,l),
(128,742,l),
(24,0,l),
(224,0,l),
(286,442,l),
(533,0,l),
(714,0,l),
(818,742,l),
(618,742,l)
);
}
);
width = 810;
},
{
layerId = "AC69D05A-01B2-435C-837D-E8B538C011DB";
shapes = (
{
closed = 1;
nodes = (
(548,158,l),
(243,742,l),
(160,742,l),
(60,0,l),
(147,0,l),
(227,591,l),
(535,0,l),
(613,0,l),
(714,742,l),
(627,742,l)
);
}
);
width = 743;
},
{
layerId = "479E441D-7DC1-4B7F-91CA-24AB0BA7ACEE";
shapes = (
{
closed = 1;
nodes = (
(541,80,l),
(205,742,l),
(174,742,l),
(75,0,l),
(113,0,l),
(200,659,l),
(535,0,l),
(568,0,l),
(667,742,l),
(629,742,l)
);
}
);
width = 712;
}
);
leftKerningGroup = B;
rightKerningGroup = H;
unicode = 78;
},
{
glyphname = O;
layers = (
{
anchors = (
{
name = bottom;
position = "{345, 0}";
},
{
name = ogonek;
position = "{437, 10}";
},
{
name = top;
position = "{447, 742}";
}
);
guides = (
{
angle = 90;
position = "{-636, 0}";
}
);
layerId = "735450B9-CA28-42C1-9B3C-08680A8E3308";
shapes = (
{
closed = 1;
nodes = (
(560,-10,o),
(721,139,o),
(754,369,cs),
(786,601,o),
(664,752,o),
(449,752,cs),
(232,752,o),
(68,601,o),
(36,369,cs),
(3,138,o),
(121,-10,o),
(342,-10,cs)
);
},
{
closed = 1;
nodes = (
(283,150,o),
(230,206,o),
(252,366,cs),
(275,531,o),
(345,592,o),
(427,592,cs),
(509,592,o),
(559,531,o),
(536,366,cs),
(514,206,o),
(447,150,o),
(365,150,cs)
);
}
);
width = 758;
},
{
anchors = (
{
name = bottom;
position = "{322, 0}";
},
{
name = ogonek;
position = "{396, 9}";
},
{
name = top;
position = "{422, 742}";
}
);
guides = (
{
angle = 90;
position = "{-636, 0}";
}
);
layerId = "AC69D05A-01B2-435C-837D-E8B538C011DB";
shapes = (
{
closed = 1;
nodes = (
(509,-10,o),
(645,127,o),
(678,369,cs),
(711,613,o),
(611,752,o),
(422,752,cs),
(232,752,o),
(94,612,o),
(61,368,cs),
(28,126,o),
(126,-10,o),
(318,-10,cs)
);
},
{
closed = 1;
nodes = (
(195,69,o),
(128,163,o),
(156,368,cs),
(184,576,o),
(278,673,o),
(412,673,cs),
(546,673,o),
(610,577,o),
(582,368,cs),
(554,162,o),
(464,69,o),
(330,69,cs)
);
}
);
width = 709;
},
{
anchors = (
{
name = bottom;
position = "{311, 0}";
},
{
name = ogonek;
position = "{378, 9}";
},
{
name = top;
position = "{410, 742}";
}
);
guides = (
{
angle = 90;
position = "{-480, 0}";
},
{
angle = 90;
position = "{485, 0}";
}
);
layerId = "479E441D-7DC1-4B7F-91CA-24AB0BA7ACEE";
shapes = (
{
closed = 1;
nodes = (
(485,-10,o),
(611,122,o),
(644,369,cs),
(677,618,o),
(587,752,o),
(409,752,cs),
(231,752,o),
(105,617,o),
(71,367,cs),
(39,121,o),
(127,-10,o),
(307,-10,cs)
);
},
{
closed = 1;
nodes = (
(157,32,o),
(85,143,o),
(115,369,cs),
(145,597,o),
(248,710,o),
(405,710,cs),
(561,710,o),
(632,598,o),
(601,369,cs),
(571,142,o),
(471,32,o),
(314,32,cs)
);
}
);
width = 686;
}
);
leftKerningGroup = C2;
rightKerningGroup = O;
unicode = 79;
},
{
glyphname = P;
layers = (
{
layerId = "735450B9-CA28-42C1-9B3C-08680A8E3308";
shapes = (
{
closed = 1;
nodes = (
(224,0,l),
(260,255,l),
(379,255,ls),
(542,255,o),
(656,344,o),
(677,490,cs),
(699,651,o),
(585,742,o),
(421,742,cs),
(128,742,l),
(24,0,l)
);
},
{
closed = 1;
nodes = (
(305,594,l),
(419,594,ls),
(464,594,o),
(502,552,o),
(495,500,cs),
(488,452,o),
(443,404,o),
(392,404,cs),
(278,404,l)
);
}
);
width = 654;
},
{
layerId = "AC69D05A-01B2-435C-837D-E8B538C011DB";
shapes = (
{
closed = 1;
nodes = (
(150,0,l),
(191,303,l),
(353,303,ls),
(503,303,o),
(615,374,o),
(636,522,cs),
(656,674,o),
(553,742,o),
(400,742,cs),
(160,742,l),
(59,0,l)
);
},
{
closed = 1;
nodes = (
(240,666,l),
(396,666,ls),
(498,666,o),
(563,628,o),
(549,527,cs),
(536,427,o),
(461,380,o),
(362,380,cs),
(201,380,l)
);
}
);
width = 622;
},
{
layerId = "479E441D-7DC1-4B7F-91CA-24AB0BA7ACEE";
shapes = (
{
closed = 1;
nodes = (
(117,0,l),
(160,325,l),
(341,325,ls),
(485,325,o),
(597,388,o),
(617,536,cs),
(637,685,o),
(539,742,o),
(391,742,cs),
(174,742,l),
(75,0,l)
);
},
{
closed = 1;
nodes = (
(210,698,l),
(385,698,ls),
(513,698,o),
(591,663,o),
(574,539,cs),
(558,416,o),
(469,369,o),
(348,369,cs),
(166,369,l)
);
}
);
width = 608;
}
);
leftKerningGroup = B;
rightKerningGroup = P;
unicode = 80;
},
{
glyphname = Q;
layers = (
{
layerId = "735450B9-CA28-42C1-9B3C-08680A8E3308";
shapes = (
{
closed = 1;
nodes = (
(3,138,o),
(121,-10,o),
(342,-10,cs),
(367,-10,o),
(388,-9,o),
(425,-5,c),
(497,-116,o),
(566,-128,o),
(685,-128,c),
(707,28,l),
(656,28,o),
(613,53,o),
(609,82,c),
(686,154,o),
(738,249,o),
(755,369,cs),
(787,601,o),
(665,752,o),
(449,752,cs),
(232,752,o),
(68,601,o),
(36,369,cs)
);
},
{
closed = 1;
nodes = (
(276,532,o),
(340,592,o),
(427,592,cs),
(513,592,o),
(559,532,o),
(536,367,cs),
(514,206,o),
(453,150,o),
(365,150,cs),
(276,150,o),
(231,206,o),
(253,367,cs)
);
}
);
width = 759;
},
{
layerId = "AC69D05A-01B2-435C-837D-E8B538C011DB";
shapes = (
{
closed = 1;
nodes = (
(27,123,o),
(129,-10,o),
(318,-10,cs),
(344,-10,o),
(371,-7,o),
(404,-1,c),
(452,-106,o),
(536,-124,o),
(605,-124,c),
(616,-47,l),
(558,-45,o),
(509,-19,o),
(491,38,c),
(600,104,o),
(658,215,o),
(679,369,cs),
(711,614,o),
(611,752,o),
(422,752,cs),
(231,752,o),
(94,614,o),
(61,369,cs)
);
},
{
closed = 1;
nodes = (
(185,573,o),
(275,673,o),
(411,673,cs),
(547,673,o),
(609,573,o),
(581,368,cs),
(553,161,o),
(463,69,o),
(329,69,cs),
(194,69,o),
(131,161,o),
(157,367,cs)
);
}
);
width = 709;
},
{
layerId = "479E441D-7DC1-4B7F-91CA-24AB0BA7ACEE";
shapes = (
{
closed = 1;
nodes = (
(38,116,o),
(132,-10,o),
(307,-10,cs),
(334,-10,o),
(363,-6,o),
(394,1,c),
(431,-101,o),
(523,-122,o),
(569,-122,c),
(574,-81,l),
(513,-78,o),
(462,-51,o),
(438,18,c),
(561,81,o),
(621,199,o),
(644,369,cs),
(677,620,o),
(587,752,o),
(409,752,cs),
(230,752,o),
(106,620,o),
(72,369,cs)
);
},
{
closed = 1;
nodes = (
(144,592,o),
(245,710,o),
(404,710,cs),
(562,710,o),
(631,592,o),
(601,369,cs),
(571,141,o),
(468,32,o),
(313,32,cs),
(157,32,o),
(85,141,o),
(114,367,cs)
);
}
);
width = 686;
}
);
leftKerningGroup = C2;
rightKerningGroup = O;
unicode = 81;
},
{
glyphname = R;
leftMetricsKey = N;
layers = (
{
layerId = "735450B9-CA28-42C1-9B3C-08680A8E3308";
shapes = (
{
closed = 1;
nodes = (
(550,287,l),
(625,329,o),
(682,389,o),
(698,503,cs),
(717,637,o),
(657,742,o),
(464,742,cs),
(128,742,l),
(24,0,l),
(224,0,l),
(260,255,l),
(364,255,l),
(436,0,l),
(640,0,l)
);
},
{
closed = 1;
nodes = (
(280,404,l),
(307,594,l),
(421,594,ls),
(466,594,o),
(504,552,o),
(497,500,cs),
(490,452,o),
(445,404,o),
(394,404,cs)
);
}
);
width = 696;
},
{
layerId = "AC69D05A-01B2-435C-837D-E8B538C011DB";
shapes = (
{
closed = 1;
nodes = (
(472,339,l),
(544,365,o),
(624,420,o),
(640,541,cs),
(657,667,o),
(589,742,o),
(436,742,cs),
(160,742,l),
(60,0,l),
(147,0,l),
(190,322,l),
(387,322,l),
(476,0,l),
(568,0,l)
);
},
{
closed = 1;
nodes = (
(200,398,l),
(237,667,l),
(417,667,ls),
(512,667,o),
(562,624,o),
(550,535,cs),
(537,443,o),
(468,398,o),
(358,398,cs)
);
}
);
width = 655;
},
{
layerId = "479E441D-7DC1-4B7F-91CA-24AB0BA7ACEE";
shapes = (
{
closed = 1;
nodes = (
(438,362,l),
(508,381,o),
(598,434,o),
(614,558,cs),
(630,680,o),
(559,742,o),
(422,742,cs),
(174,742,l),
(75,0,l),
(113,0,l),
(160,353,l),
(396,353,l),
(492,0,l),
(536,0,l)
);
},
{
closed = 1;
nodes = (
(165,395,l),
(206,700,l),
(415,700,ls),
(530,700,o),
(586,656,o),
(572,551,cs),
(557,439,o),
(478,395,o),
(342,395,cs)
);
}
);
width = 636;
}
);
leftKerningGroup = B;
rightKerningGroup = R;
unicode = 82;
},
{
glyphname = S;
layers = (
{
anchors = (
{
name = bottom;
position = "{311, 0}";
},
{
name = top;
position = "{417, 742}";
}
);
guides = (
{
angle = 214.592;
position = "{624.69, 426}";
}
);
layerId = "735450B9-CA28-42C1-9B3C-08680A8E3308";
shapes = (
{
closed = 1;
nodes = (
(491,-11,o),
(633,54,o),
(655,213,cs),
(683,407,o),
(487,437,o),
(351,486,cs),
(337,491,o),
(292,511,o),
(295,533,cs),
(302,583,o),
(340,596,o),
(384,596,cs),
(445,596,o),
(508,578,o),
(533,524,c),
(672,622,l),
(621,713,o),
(495,751,o),
(387,751,cs),
(257,751,o),
(108,684,o),
(87,536,cs),
(59,344,o),
(266,304,o),
(401,257,cs),
(424,249,o),
(448,235,o),
(443,206,cs),
(437,159,o),
(379,154,o),
(344,154,cs),
(266,154,o),
(191,172,o),
(155,238,c),
(13,142,l),
(71,37,o),
(228,-11,o),
(349,-11,cs)
);
}
);
width = 683;
},
{
guides = (
{
angle = 214.491;
position = "{625, 426}";
}
);
layerId = "AC69D05A-01B2-435C-837D-E8B538C011DB";
shapes = (
{
closed = 1;
nodes = (
(448,-12,o),
(560,63,o),
(566,207,cs),
(574,377,o),
(398,394,o),
(288,441,cs),
(237,463,o),
(199,491,o),
(201,544,cs),
(205,628,o),
(277,675,o),
(356,675,cs),
(450,675,o),
(508,634,o),
(524,545,c),
(595,584,l),
(567,696,o),
(469,750,o),
(355,750,cs),
(232,750,o),
(112,677,o),
(106,544,cs),
(99,370,o),
(284,357,o),
(394,305,cs),
(441,283,o),
(473,253,o),
(471,201,cs),
(467,110,o),
(384,65,o),
(301,65,cs),
(203,65,o),
(126,115,o),
(103,209,c),
(32,171,l),
(65,50,o),
(191,-12,o),
(312,-12,cs)
);
}
);
width = 626;
},
{
layerId = "479E441D-7DC1-4B7F-91CA-24AB0BA7ACEE";
shapes = (
{
closed = 1;
nodes = (
(424,-12,o),
(526,68,o),
(526,205,cs),
(526,364,o),
(360,376,o),
(251,426,cs),
(197,451,o),
(157,485,o),
(157,550,cs),
(157,649,o),
(240,713,o),
(334,713,cs),
(445,713,o),
(500,660,o),
(518,554,c),
(559,573,l),
(537,686,o),
(458,750,o),
(341,750,cs),
(224,750,o),
(114,674,o),
(114,548,cs),
(114,402,o),
(261,383,o),
(369,337,cs),
(432,310,o),
(482,275,o),
(482,200,cs),
(482,94,o),
(393,26,o),
(292,26,cs),
(182,26,o),
(104,91,o),
(81,196,c),
(40,182,l),
(66,62,o),
(172,-12,o),
(293,-12,cs)
);
}
);
width = 600;
}
);
leftKerningGroup = S2;
rightKerningGroup = S;
unicode = 83;
},
{
glyphname = T;
layers = (
{
layerId = "735450B9-CA28-42C1-9B3C-08680A8E3308";
shapes = (
{
closed = 1;
nodes = (
(259,566,l),
(180,0,l),
(380,0,l),
(459,566,l),
(671,566,l),
(696,742,l),
(73,742,l),
(48,566,l)
);
}
);
width = 633;
},
{
layerId = "AC69D05A-01B2-435C-837D-E8B538C011DB";
shapes = (
{
closed = 1;
nodes = (
(299,658,l),
(210,0,l),
(296,0,l),
(386,658,l),
(605,658,l),
(617,742,l),
(77,742,l),
(66,658,l)
);
}
);
width = 563;
},
{
layerId = "479E441D-7DC1-4B7F-91CA-24AB0BA7ACEE";
shapes = (
{
closed = 1;
nodes = (
(315,700,l),
(222,0,l),
(260,0,l),
(353,700,l),
(576,700,l),
(581,742,l),
(79,742,l),
(73,700,l)
);
}
);
width = 531;
}
);
leftKerningGroup = T2;
rightKerningGroup = T;
unicode = 84;
},
{
glyphname = U;
layers = (
{
anchors = (
{
name = ogonek;
position = "{426, 12}";
},
{
name = top;
position = "{430, 742}";
}
);
layerId = "735450B9-CA28-42C1-9B3C-08680A8E3308";
shapes = (
{
closed = 1;
nodes = (
(768,742,l),
(566,742,l),
(504,298,ls),
(489,196,o),
(428,157,o),
(366,157,cs),
(304,157,o),
(253,196,o),
(268,298,cs),
(330,742,l),
(128,742,l),
(67,307,ls),
(40,118,o),
(103,-10,o),
(342,-10,cs),
(581,-10,o),
(680,118,o),
(707,307,cs)
);
}
);
width = 750;
},
{
anchors = (
{
name = ogonek;
position = "{383, 10}";
},
{
name = top;
position = "{407, 742}";
}
);
layerId = "AC69D05A-01B2-435C-837D-E8B538C011DB";
shapes = (
{
closed = 1;
nodes = (
(670,742,l),
(582,742,l),
(517,250,ls),
(499,127,o),
(429,69,o),
(319,69,cs),
(210,69,o),
(157,129,o),
(174,250,c),
(240,742,l),
(151,742,l),
(86,264,ls),
(62,86,o),
(124,-10,o),
(307,-10,cs),
(490,-10,o),
(580,84,o),
(605,254,cs)
);
}
);
width = 686;
},
{
anchors = (
{
name = ogonek;
position = "{363, 9}";
},
{
name = top;
position = "{396, 742}";
}
);
layerId = "479E441D-7DC1-4B7F-91CA-24AB0BA7ACEE";
shapes = (
{
closed = 1;
nodes = (
(627,742,l),
(589,742,l),
(521,228,ls),
(503,96,o),
(428,29,o),
(297,29,cs),
(168,29,o),
(115,98,o),
(133,228,cs),
(201,742,l),
(160,742,l),
(93,245,ls),
(70,71,o),
(132,-10,o),
(292,-10,cs),
(449,-10,o),
(537,69,o),
(559,230,cs)
);
}
);
width = 657;
}
);
leftKerningGroup = U;
rightKerningGroup = J;
unicode = 85;
},
{
glyphname = V;
layers = (
{
guides = (
{
angle = 251.38;
position = "{285, 234}";
}
);
layerId = "735450B9-CA28-42C1-9B3C-08680A8E3308";
shapes = (
{
closed = 1;
nodes = (
(599,742,l),
(357,234,l),
(256,742,l),
(68,742,l),
(214,0,l),
(434,0,l),
(788,742,l)
);
}
);
width = 720;
},
{
guides = (
{
angle = 251.38;
position = "{285, 234}";
}
);
layerId = "AC69D05A-01B2-435C-837D-E8B538C011DB";
shapes = (
{
closed = 1;
nodes = (
(596,742,l),
(290,102,l),
(160,742,l),
(72,742,l),
(222,0,l),
(329,0,l),
(684,742,l)
);
}
);
width = 624;
},
{
layerId = "479E441D-7DC1-4B7F-91CA-24AB0BA7ACEE";
shapes = (
{
closed = 1;
nodes = (
(595,742,l),
(259,42,l),
(117,742,l),
(74,742,l),
(225,0,l),
(281,0,l),
(636,742,l)
);
}
);
width = 580;
}
);
leftKerningGroup = V2;
rightKerningGroup = V;
unicode = 86;
},
{
glyphname = W;
layers = (
{
layerId = "735450B9-CA28-42C1-9B3C-08680A8E3308";
shapes = (
{
closed = 1;
nodes = (
(867,742,l),
(700,344,l),
(641,742,l),
(502,742,l),
(335,344,l),
(276,742,l),
(83,742,l),
(203,0,l),
(350,0,l),
(524,403,l),
(585,0,l),
(734,0,l),
(1060,742,l)
);
}
);
width = 1007;
},
{
layerId = "AC69D05A-01B2-435C-837D-E8B538C011DB";
shapes = (
{
closed = 1;
nodes = (
(899,742,l),
(654,142,l),
(573,742,l),
(504,742,l),
(258,142,l),
(179,742,l),
(91,742,l),
(196,0,l),
(275,0,l),
(516,583,l),
(596,0,l),
(678,0,l),
(987,742,l)
);
}
);
width = 946;
},
{
layerId = "479E441D-7DC1-4B7F-91CA-24AB0BA7ACEE";
shapes = (
{
closed = 1;
nodes = (
(912,742,l),
(633,50,l),
(542,742,l),
(504,742,l),
(224,50,l),
(136,742,l),
(93,742,l),
(192,0,l),
(242,0,l),
(511,665,l),
(599,0,l),
(653,0,l),
(954,742,l)
);
}
);
width = 918;
}
);
leftKerningGroup = V2;
rightKerningGroup = V;
unicode = 87;
},
{
glyphname = X;
layers = (
{
layerId = "735450B9-CA28-42C1-9B3C-08680A8E3308";
shapes = (
{
closed = 1;
nodes = (
(495,403,l),
(765,742,l),
(555,742,l),
(413,541,l),
(327,742,l),
(79,742,l),
(263,374,l),
(-31,0,l),
(182,0,l),
(347,233,l),
(451,0,l),
(701,0,l)
);
}
);
width = 742;
},
{
layerId = "AC69D05A-01B2-435C-837D-E8B538C011DB";
shapes = (
{
closed = 1;
nodes = (
(381,388,l),
(658,742,l),
(558,742,l),
(341,456,l),
(201,742,l),
(89,742,l),
(273,378,l),
(-20,0,l),
(80,0,l),
(314,307,l),
(467,0,l),
(579,0,l)
);
}
);
width = 628;
},
{
layerId = "479E441D-7DC1-4B7F-91CA-24AB0BA7ACEE";
shapes = (
{
closed = 1;
nodes = (
(329,381,l),
(609,742,l),
(560,742,l),
(308,418,l),
(144,742,l),
(94,742,l),
(278,380,l),
(-15,0,l),
(33,0,l),
(299,341,l),
(474,0,l),
(523,0,l)
);
}
);
width = 576;
}
);
unicode = 88;
},
{
glyphname = Y;
layers = (
{
layerId = "735450B9-CA28-42C1-9B3C-08680A8E3308";
shapes = (
{
closed = 1;
nodes = (
(570,742,l),
(387,478,l),
(277,742,l),
(62,742,l),
(263,309,l),
(220,0,l),
(420,0,l),
(463,309,l),
(787,742,l)
);
}
);
width = 714;
},
{
layerId = "AC69D05A-01B2-435C-837D-E8B538C011DB";
shapes = (
{
closed = 1;
nodes = (
(549,742,l),
(310,396,l),
(163,742,l),
(71,742,l),
(257,317,l),
(214,0,l),
(301,0,l),
(344,316,l),
(643,742,l)
);
}
);
width = 584;
},
{
layerId = "479E441D-7DC1-4B7F-91CA-24AB0BA7ACEE";
shapes = (
{
closed = 1;
nodes = (
(539,742,l),
(276,358,l),
(113,742,l),
(74,742,l),
(254,320,l),
(211,0,l),
(249,0,l),
(292,319,l),
(580,742,l)
);
}
);
width = 525;
}
);
leftKerningGroup = Y2;
rightKerningGroup = Y;
unicode = 89;
},
{
glyphname = Z;
layers = (
{
layerId = "735450B9-CA28-42C1-9B3C-08680A8E3308";
shapes = (
{
closed = 1;
nodes = (
(630,0,l),
(653,166,l),
(302,166,l),
(728,654,l),
(740,742,l),
(136,742,l),
(113,577,l),
(430,577,l),
(12,91,l),
(-1,0,l)
);
}
);
width = 697;
},
{
layerId = "AC69D05A-01B2-435C-837D-E8B538C011DB";
shapes = (
{
closed = 1;
nodes = (
(518,0,l),
(528,79,l),
(131,79,l),
(614,693,l),
(620,742,l),
(120,742,l),
(109,663,l),
(488,663,l),
(10,50,l),
(3,0,l)
);
}
);
width = 583;
},
{
layerId = "479E441D-7DC1-4B7F-91CA-24AB0BA7ACEE";
shapes = (
{
closed = 1;
nodes = (
(468,0,l),
(473,40,l),
(57,40,l),
(563,711,l),
(567,742,l),
(112,742,l),
(106,702,l),
(511,702,l),
(8,32,l),
(4,0,l)
);
}
);
width = 531;
}
);
leftKerningGroup = Z2;
rightKerningGroup = Z;
unicode = 90;
},
{
glyphname = bracketleft;
layers = (
{
layerId = "735450B9-CA28-42C1-9B3C-08680A8E3308";
shapes = (
{
closed = 1;
nodes = (
(261,-165,l),
(277,-58,l),
(161,-58,l),
(258,635,l),
(374,635,l),
(389,742,l),
(114,742,l),
(-13,-165,l)
);
}
);
width = 346;
},
{
layerId = "AC69D05A-01B2-435C-837D-E8B538C011DB";
shapes = (
{
closed = 1;
nodes = (
(210,-165,l),
(219,-106,l),
(114,-106,l),
(222,683,l),
(326,683,l),
(334,742,l),
(152,742,l),
(30,-165,l)
);
}
);
width = 289;
},
{
layerId = "479E441D-7DC1-4B7F-91CA-24AB0BA7ACEE";
shapes = (
{
closed = 1;
nodes = (
(187,-165,l),
(192,-128,l),
(93,-128,l),
(206,705,l),
(304,705,l),
(309,742,l),
(169,742,l),
(49,-165,l)
);
}
);
width = 263;
}
);
unicode = 91;
},
{
glyphname = backslash;
layers = (
{
layerId = "735450B9-CA28-42C1-9B3C-08680A8E3308";
shapes = (
{
closed = 1;
nodes = (
(343,0,l),
(184,742,l),
(59,742,l),
(218,0,l)
);
}
);
width = 384;
},
{
layerId = "AC69D05A-01B2-435C-837D-E8B538C011DB";
shapes = (
{
closed = 1;
nodes = (
(282,-41,l),
(139,742,l),
(72,742,l),
(215,-41,l)
);
}
);
width = 335;
},
{
layerId = "479E441D-7DC1-4B7F-91CA-24AB0BA7ACEE";
shapes = (
{
closed = 1;
nodes = (
(254,-60,l),
(118,742,l),
(78,742,l),
(214,-60,l)
);
}
);
width = 312;
}
);
unicode = 92;
},
{
glyphname = bracketright;
layers = (
{
layerId = "735450B9-CA28-42C1-9B3C-08680A8E3308";
shapes = (
{
closed = 1;
nodes = (
(231,-165,l),
(358,742,l),
(84,742,l),
(68,635,l),
(184,635,l),
(87,-58,l),
(-29,-58,l),
(-44,-165,l)
);
}
);
width = 346;
},
{
layerId = "AC69D05A-01B2-435C-837D-E8B538C011DB";
shapes = (
{
closed = 1;
nodes = (
(143,-165,l),
(265,742,l),
(85,742,l),
(76,683,l),
(181,683,l),
(73,-106,l),
(-31,-106,l),
(-39,-165,l)
);
}
);
width = 302;
},
{
layerId = "479E441D-7DC1-4B7F-91CA-24AB0BA7ACEE";
shapes = (
{
closed = 1;
nodes = (
(103,-165,l),
(222,742,l),
(85,742,l),
(80,705,l),
(179,705,l),
(66,-128,l),
(-32,-128,l),
(-37,-165,l)
);
}
);
width = 282;
}
);
leftKerningGroup = question;
unicode = 93;
},
{
glyphname = asciicircum;
layers = (
{
layerId = "735450B9-CA28-42C1-9B3C-08680A8E3308";
shapes = (
{
closed = 1;
nodes = (
(446,120,l),
(281,505,ls),
(260,553,o),
(192,550,o),
(172,504,cs),
(6,120,l),
(132,120,l),
(226,348,l),
(320,120,l)
);
}
);
width = 488;
},
{
layerId = "AC69D05A-01B2-435C-837D-E8B538C011DB";
shapes = (
{
closed = 1;
nodes = (
(408,132,l),
(255,504,ls),
(235,554,o),
(193,550,o),
(174,504,cs),
(22,133,l),
(94,133,l),
(214,435,l),
(334,132,l)
);
}
);
width = 463;
},
{
layerId = "479E441D-7DC1-4B7F-91CA-24AB0BA7ACEE";
shapes = (
{
closed = 1;
nodes = (
(391,137,l),
(243,504,ls),
(223,554,o),
(193,550,o),
(175,504,cs),
(29,139,l),
(76,139,l),
(209,475,l),
(341,137,l)
);
}
);
width = 452;
}
);
unicode = 94;
},
{
glyphname = underscore;
layers = (
{
layerId = "735450B9-CA28-42C1-9B3C-08680A8E3308";
shapes = (
{
closed = 1;
nodes = (
(1,-20,l),
(-18,-160,l),
(463,-160,l),
(483,-20,l)
);
}
);
width = 572;
},
{
layerId = "AC69D05A-01B2-435C-837D-E8B538C011DB";
shapes = (
{
closed = 1;
nodes = (
(17,-49,l),
(7,-120,l),
(394,-119,l),
(403,-48,l)
);
}
);
width = 506;
},
{
layerId = "479E441D-7DC1-4B7F-91CA-24AB0BA7ACEE";
shapes = (
{
closed = 1;
nodes = (
(24,-62,l),
(19,-102,l),
(362,-101,l),
(367,-61,l)
);
}
);
width = 476;
}
);
leftKerningGroup = comma2;
rightKerningGroup = comma;
unicode = 95;
},
{
glyphname = a;
layers = (
{
anchors = (
{
name = ogonek;
position = "{470, 10}";
},
{
name = top;
position = "{331, 530}";
}
);
guides = (
{
angle = 90;
position = "{136, 0}";
}
);
layerId = "735450B9-CA28-42C1-9B3C-08680A8E3308";
shapes = (
{
closed = 1;
nodes = (
(237,-10,o),
(298,21,o),
(328,82,c),
(332,0,l),
(497,0,l),
(549,375,ls),
(563,473,o),
(518,540,o),
(333,540,cs),
(197,540,o),
(95,476,o),
(56,371,c),
(213,359,l),
(239,408,o),
(277,421,o),
(307,421,cs),
(347,421,o),
(363,400,o),
(358,363,cs),
(355,341,l),
(314,341,ls),
(121,341,o),
(22,274,o),
(6,159,cs),
(-9,49,o),
(65,-10,o),
(165,-10,cs)
);
},
{
closed = 1;
nodes = (
(219,116,o),
(190,139,o),
(196,179,cs),
(204,236,o),
(277,247,o),
(309,247,cs),
(341,247,l),
(332,179,l),
(326,146,o),
(292,116,o),
(253,116,cs)
);
}
);
width = 573;
},
{
anchors = (
{
name = ogonek;
position = "{427, 13}";
},
{
name = top;
position = "{310, 530}";
}
);
guides = (
{
angle = 90;
position = "{136, 0}";
}
);
layerId = "AC69D05A-01B2-435C-837D-E8B538C011DB";
shapes = (
{
closed = 1;
nodes = (
(251,-10,o),
(316,20,o),
(368,82,c),
(363,0,l),
(437,0,l),
(488,370,ls),
(501,474,o),
(445,540,o),
(315,540,cs),
(210,540,o),
(127,486,o),
(81,407,c),
(149,389,l),
(193,449,o),
(245,477,o),
(301,477,cs),
(374,477,o),
(412,433,o),
(403,363,cs),
(398,325,l),
(303,318,l),
(127,308,o),
(46,260,o),
(31,143,cs),
(17,46,o),
(77,-10,o),
(178,-10,cs)
);
},
{
closed = 1;
nodes = (
(148,56,o),
(107,91,o),
(116,151,cs),
(127,233,o),
(188,256,o),
(311,265,cs),
(390,270,l),
(378,174,ls),
(369,114,o),
(282,56,o),
(212,56,cs)
);
}
);
width = 541;
},
{
anchors = (
{
name = ogonek;
position = "{408, 14}";
},
{
name = top;
position = "{300, 530}";
}
);
hints = (
{
horizontal = 1;
place = (3937,0);
type = Stem;
}
);
layerId = "479E441D-7DC1-4B7F-91CA-24AB0BA7ACEE";
shapes = (
{
closed = 1;
nodes = (
(257,-10,o),
(322,20,o),
(385,82,c),
(376,0,l),
(411,0,l),
(460,367,ls),
(474,475,o),
(413,540,o),
(306,540,cs),
(214,540,o),
(142,490,o),
(91,424,c),
(121,403,l),
(173,468,o),
(231,502,o),
(298,502,cs),
(384,502,o),
(433,448,o),
(422,363,cs),
(415,318,l),
(298,308,ls),
(128,293,o),
(56,254,o),
(41,135,cs),
(29,45,o),
(83,-10,o),
(182,-10,cs)
);
},
{
closed = 1;
nodes = (
(117,28,o),
(71,69,o),
(81,138,cs),
(93,231,o),
(149,260,o),
(312,273,cs),
(410,281,l),
(396,171,ls),
(387,99,o),
(277,28,o),
(194,28,cs)
);
}
);
width = 526;
}
);
leftKerningGroup = a2;
rightKerningGroup = a;
unicode = 97;
},
{
glyphname = b;
leftMetricsKey = h;
layers = (
{
layerId = "735450B9-CA28-42C1-9B3C-08680A8E3308";
shapes = (
{
closed = 1;
nodes = (
(493,-10,o),
(590,99,o),
(614,269,cs),
(637,436,o),
(576,540,o),
(446,540,cs),
(394,540,o),
(332,515,o),
(287,450,c),
(331,762,l),
(131,762,l),
(24,0,l),
(165,0,l),
(208,94,l),
(229,36,o),
(281,-10,o),
(347,-10,cs)
);
},
{
closed = 1;
nodes = (
(267,119,o),
(246,156,o),
(258,245,cs),
(265,291,ls),
(278,383,o),
(310,410,o),
(355,410,cs),
(396,410,o),
(428,387,o),
(412,271,cs),
(395,154,o),
(358,119,o),
(311,119,cs)
);
}
);
width = 632;
},
{
layerId = "AC69D05A-01B2-435C-837D-E8B538C011DB";
shapes = (
{
closed = 1;
nodes = (
(432,-10,o),
(527,97,o),
(550,268,cs),
(571,422,o),
(522,540,o),
(381,540,cs),
(290,540,o),
(225,485,o),
(203,458,c),
(244,762,l),
(156,762,l),
(53,0,l),
(120,0,l),
(143,84,l),
(156,53,o),
(200,-10,o),
(292,-10,cs)
);
},
{
closed = 1;
nodes = (
(213,56,o),
(157,115,o),
(168,198,cs),
(192,376,l),
(226,438,o),
(282,473,o),
(344,473,cs),
(434,473,o),
(477,402,o),
(459,268,cs),
(438,119,o),
(365,56,o),
(282,56,cs)
);
}
);
width = 584;
},
{
layerId = "479E441D-7DC1-4B7F-91CA-24AB0BA7ACEE";
shapes = (
{
closed = 1;
nodes = (
(404,-10,o),
(498,96,o),
(521,267,cs),
(541,416,o),
(497,540,o),
(352,540,cs),
(243,540,o),
(177,472,o),
(165,461,c),
(205,762,l),
(167,762,l),
(66,0,l),
(100,0,l),
(114,80,l),
(123,60,o),
(163,-10,o),
(267,-10,cs)
);
},
{
closed = 1;
nodes = (
(189,28,o),
(116,96,o),
(127,177,cs),
(159,415,l),
(203,463,o),
(269,502,o),
(339,502,cs),
(451,502,o),
(499,409,o),
(480,267,cs),
(458,103,o),
(368,28,o),
(269,28,cs)
);
}
);
width = 562;
}
);
leftKerningGroup = b2;
rightKerningGroup = b;
unicode = 98;
},
{
glyphname = c;
leftMetricsKey = e;
layers = (
{
anchors = (
{
name = bottom;
position = "{255, 0}";
},
{
name = top;
position = "{330, 530}";
}
);
guides = (
{
angle = 359.442;
position = "{-765, 185}";
},
{
position = "{0, 136}";
},
{
angle = 3.769;
position = "{348, 340}";
}
);
layerId = "735450B9-CA28-42C1-9B3C-08680A8E3308";
shapes = (
{
closed = 1;
nodes = (
(178,540,o),
(39,427,o),
(16,263,cs),
(-7,100,o),
(102,-10,o),
(254,-10,cs),
(399,-10,o),
(504,91,o),
(522,184,c),
(358,205,l),
(348,174,o),
(328,117,o),
(277,117,cs),
(226,117,o),
(197,177,o),
(209,265,cs),
(221,350,o),
(264,413,o),
(315,413,cs),
(367,413,o),
(370,352,o),
(371,314,c),
(546,335,l),
(557,434,o),
(482,540,o),
(332,540,cs)
);
}
);
width = 550;
},
{
anchors = (
{
name = bottom;
position = "{241, 0}";
},
{
name = top;
position = "{311, 530}";
}
);
guides = (
{
angle = 359.442;
position = "{-767, 185}";
},
{
position = "{0, 136}";
},
{
angle = 3.769;
position = "{346, 340}";
}
);
layerId = "AC69D05A-01B2-435C-837D-E8B538C011DB";
shapes = (
{
closed = 1;
nodes = (
(172,540,o),
(62,426,o),
(40,263,cs),
(17,101,o),
(96,-10,o),
(237,-10,cs),
(339,-10,o),
(417,50,o),
(462,135,c),
(393,157,l),
(352,97,o),
(315,56,o),
(251,56,cs),
(156,56,o),
(108,139,o),
(125,265,cs),
(142,389,o),
(212,474,o),
(307,474,cs),
(364,474,o),
(385,437,o),
(416,376,c),
(493,398,l),
(472,477,o),
(417,540,o),
(313,540,cs)
);
}
);
width = 521;
},
{
anchors = (
{
name = bottom;
position = "{237, 0}";
},
{
name = top;
position = "{305, 530}";
}
);
layerId = "479E441D-7DC1-4B7F-91CA-24AB0BA7ACEE";
shapes = (
{
closed = 1;
nodes = (
(172,540,o),
(74,426,o),
(52,263,cs),
(30,101,o),
(98,-10,o),
(234,-10,cs),
(316,-10,o),
(382,31,o),
(440,113,c),
(410,135,l),
(357,62,o),
(312,28,o),
(243,28,cs),
(129,28,o),
(73,122,o),
(92,265,cs),
(111,406,o),
(194,502,o),
(307,502,cs),
(366,502,o),
(394,476,o),
(438,404,c),
(474,426,l),
(438,496,o),
(392,540,o),
(308,540,cs)
);
}
);
width = 511;
}
);
leftKerningGroup = c;
rightKerningGroup = b;
unicode = 99;
},
{
glyphname = d;
layers = (
{
anchors = (
{
name = bottom;
position = "{264, 0}";
},
{
name = center;
position = "{301, 265}";
},
{
name = topright;
position = "{624, 530}";
}
);
layerId = "735450B9-CA28-42C1-9B3C-08680A8E3308";
shapes = (
{
closed = 1;
nodes = (
(295,-10,o),
(351,41,o),
(382,90,c),
(395,0,l),
(536,0,l),
(643,762,l),
(443,762,l),
(399,450,l),
(377,524,o),
(318,540,o),
(266,540,cs),
(136,540,o),
(45,436,o),
(22,269,cs),
(-2,99,o),
(63,-10,o),
(209,-10,cs)
);
},
{
closed = 1;
nodes = (
(234,119,o),
(207,154,o),
(224,271,cs),
(240,387,o),
(278,410,o),
(319,410,cs),
(364,410,o),
(390,383,o),
(377,291,cs),
(370,245,ls),
(358,156,o),
(325,119,o),
(281,119,cs)
);
}
);
width = 632;
},
{
anchors = (
{
name = bottom;
position = "{245, 0}";
},
{
name = center;
position = "{289, 265}";
},
{
name = topright;
position = "{638, 676}";
}
);
layerId = "AC69D05A-01B2-435C-837D-E8B538C011DB";
shapes = (
{
closed = 1;
nodes = (
(313,-10,o),
(373,53,o),
(395,82,c),
(392,0,l),
(460,0,l),
(563,762,l),
(476,762,l),
(436,467,l),
(398,519,o),
(353,540,o),
(296,540,cs),
(158,540,o),
(66,428,o),
(43,259,cs),
(19,85,o),
(89,-10,o),
(218,-10,cs)
);
},
{
closed = 1;
nodes = (
(165,56,o),
(113,117,o),
(132,263,cs),
(151,404,o),
(217,473,o),
(308,473,cs),
(362,473,o),
(400,446,o),
(425,384,c),
(399,193,ls),
(389,124,o),
(324,56,o),
(247,56,cs)
);
}
);
width = 583;
},
{
anchors = (
{
name = bottom;
position = "{237, 0}";
},
{
name = center;
position = "{283, 265}";
},
{
name = topright;
position = "{644, 742}";
}
);
layerId = "479E441D-7DC1-4B7F-91CA-24AB0BA7ACEE";
shapes = (
{
closed = 1;
nodes = (
(319,-10,o),
(381,59,o),
(400,79,c),
(390,0,l),
(426,0,l),
(527,762,l),
(489,762,l),
(450,475,l),
(407,517,o),
(368,540,o),
(307,540,cs),
(167,540,o),
(74,425,o),
(52,255,cs),
(29,78,o),
(100,-10,o),
(221,-10,cs)
);
},
{
closed = 1;
nodes = (
(135,28,o),
(71,100,o),
(92,259,cs),
(112,411,o),
(191,502,o),
(302,502,cs),
(360,502,o),
(404,474,o),
(445,426,c),
(410,170,ls),
(402,110,o),
(323,28,o),
(232,28,cs)
);
}
);
width = 560;
}
);
leftKerningGroup = c;
rightKerningGroup = d;
unicode = 100;
},
{
glyphname = e;
layers = (
{
anchors = (
{
name = bottom;
position = "{262, 0}";
},
{
name = ogonek;
position = "{394, 26}";
},
{
name = top;
position = "{333, 530}";
}
);
layerId = "735450B9-CA28-42C1-9B3C-08680A8E3308";
shapes = (
{
closed = 1;
nodes = (
(558,208,l),
(565,255,ls),
(587,412,o),
(508,540,o),
(334,540,cs),
(164,540,o),
(36,410,o),
(15,258,cs),
(-8,97,o),
(99,-10,o),
(265,-10,cs),
(382,-10,o),
(481,42,o),
(536,138,c),
(388,173,l),
(366,138,o),
(322,114,o),
(280,114,cs),
(232,114,o),
(196,145,o),
(206,208,c)
);
},
{
closed = 1;
nodes = (
(224,335,l),
(231,387,o),
(262,425,o),
(318,425,cs),
(374,425,o),
(395,387,o),
(388,335,c)
);
}
);
width = 585;
},
{
anchors = (
{
name = bottom;
position = "{237, 0}";
},
{
name = ogonek;
position = "{348, 21}";
},
{
name = top;
position = "{313, 530}";
}
);
layerId = "AC69D05A-01B2-435C-837D-E8B538C011DB";
shapes = (
{
closed = 1;
nodes = (
(499,240,l),
(505,275,l),
(527,436,o),
(458,540,o),
(315,540,cs),
(167,540,o),
(64,428,o),
(40,260,cs),
(17,90,o),
(107,-10,o),
(249,-10,cs),
(341,-10,o),
(423,32,o),
(471,118,c),
(401,139,l),
(369,88,o),
(325,56,o),
(258,56,cs),
(156,56,o),
(114,137,o),
(128,240,c)
);
},
{
closed = 1;
nodes = (
(138,307,l),
(149,392,o),
(204,477,o),
(305,477,cs),
(400,477,o),
(436,404,o),
(422,307,c)
);
}
);
width = 547;
},
{
anchors = (
{
name = bottom;
position = "{225, 0}";
},
{
name = ogonek;
position = "{327, 18}";
},
{
name = top;
position = "{304, 530}";
}
);
guides = (
{
angle = 88.568;
position = "{276, 521}";
}
);
layerId = "479E441D-7DC1-4B7F-91CA-24AB0BA7ACEE";
shapes = (
{
closed = 1;
nodes = (
(472,254,l),
(477,284,l),
(499,447,o),
(435,540,o),
(306,540,cs),
(169,540,o),
(76,436,o),
(52,261,cs),
(29,87,o),
(110,-10,o),
(242,-10,cs),
(323,-10,o),
(396,28,o),
(442,109,c),
(407,123,l),
(370,65,o),
(326,30,o),
(248,30,cs),
(121,30,o),
(77,134,o),
(92,254,c)
);
},
{
closed = 1;
nodes = (
(99,294,l),
(111,394,o),
(177,500,o),
(299,500,cs),
(412,500,o),
(454,412,o),
(438,294,c)
);
}
);
width = 530;
}
);
leftKerningGroup = c;
rightKerningGroup = b;
unicode = 101;
},
{
glyphname = f;
layers = (
{
layerId = "735450B9-CA28-42C1-9B3C-08680A8E3308";
shapes = (
{
closed = 1;
nodes = (
(334,530,l),
(342,581,ls),
(348,620,o),
(361,632,o),
(394,632,cs),
(455,632,l),
(472,762,l),
(330,762,ls),
(233,762,o),
(164,708,o),
(152,621,cs),
(139,530,l),
(53,530,l),
(34,395,l),
(120,395,l),
(65,0,l),
(265,0,l),
(320,395,l),
(416,395,l),
(435,530,l)
);
}
);
width = 417;
},
{
layerId = "AC69D05A-01B2-435C-837D-E8B538C011DB";
shapes = (
{
closed = 1;
nodes = (
(260,530,l),
(273,626,ls),
(280,674,o),
(296,697,o),
(338,697,cs),
(415,697,l),
(424,762,l),
(329,762,ls),
(246,762,o),
(201,716,o),
(189,633,cs),
(175,530,l),
(65,530,l),
(56,464,l),
(165,464,l),
(103,0,l),
(190,0,l),
(252,464,l),
(379,464,l),
(387,530,l)
);
}
);
width = 383;
},
{
layerId = "479E441D-7DC1-4B7F-91CA-24AB0BA7ACEE";
shapes = (
{
closed = 1;
nodes = (
(227,530,l),
(243,647,ls),
(250,698,o),
(266,727,o),
(314,727,cs),
(397,727,l),
(402,762,l),
(328,762,ls),
(252,762,o),
(216,720,o),
(204,638,cs),
(189,530,l),
(69,530,l),
(65,495,l),
(184,495,l),
(119,0,l),
(157,0,l),
(222,495,l),
(361,495,l),
(366,530,l)
);
}
);
width = 368;
}
);
unicode = 102;
},
{
glyphname = g;
layers = (
{
anchors = (
{
name = top;
position = "{353, 530}";
}
);
layerId = "735450B9-CA28-42C1-9B3C-08680A8E3308";
shapes = (
{
closed = 1;
nodes = (
(456,-175,o),
(569,-99,o),
(583,3,cs),
(595,85,o),
(539,152,o),
(393,162,cs),
(349,165,o),
(307,167,o),
(289,168,cs),
(238,171,o),
(205,171,o),
(207,186,cs),
(208,191,o),
(212,193,o),
(222,195,c),
(240,193,o),
(276,192,o),
(293,192,cs),
(461,192,o),
(563,284,o),
(575,374,cs),
(578,393,o),
(576,398,o),
(573,419,c),
(667,428,l),
(688,569,l),
(506,500,l),
(470,520,o),
(429,538,o),
(353,538,cs),
(209,538,o),
(75,480,o),
(60,373,cs),
(52,317,o),
(80,249,o),
(152,215,c),
(67,204,o),
(23,164,o),
(17,122,cs),
(11,77,o),
(48,51,o),
(83,33,c),
(39,22,o),
(-30,5,o),
(-39,-53,cs),
(-48,-121,o),
(46,-175,o),
(255,-175,cs)
);
},
{
closed = 1;
nodes = (
(199,-71,o),
(154,-64,o),
(159,-30,cs),
(161,-12,o),
(178,11,o),
(233,8,cs),
(328,2,ls),
(369,-1,o),
(392,-15,o),
(388,-38,c),
(386,-57,o),
(371,-71,o),
(301,-71,cs)
);
},
{
closed = 1;
nodes = (
(275,296,o),
(254,326,o),
(259,366,cs),
(265,406,o),
(296,441,o),
(334,441,cs),
(372,441,o),
(393,406,o),
(387,366,cs),
(382,326,o),
(351,296,o),
(313,296,cs)
);
}
);
width = 652;
},
{
anchors = (
{
name = top;
position = "{320, 530}";
}
);
layerId = "AC69D05A-01B2-435C-837D-E8B538C011DB";
shapes = (
{
closed = 1;
nodes = (
(380,-175,o),
(478,-113,o),
(492,-12,cs),
(502,68,o),
(459,123,o),
(345,130,cs),
(298,133,o),
(261,135,o),
(235,137,cs),
(163,142,o),
(138,148,o),
(140,168,c),
(143,186,o),
(167,203,o),
(240,205,c),
(249,204,o),
(262,204,o),
(269,204,cs),
(413,204,o),
(492,281,o),
(504,371,c),
(507,401,o),
(503,420,o),
(493,447,c),
(589,462,l),
(601,547,l),
(464,491,l),
(427,529,o),
(372,538,o),
(323,538,cs),
(191,538,o),
(94,477,o),
(79,370,c),
(71,307,o),
(92,259,o),
(155,224,c),
(94,210,o),
(60,181,o),
(55,147,c),
(51,112,o),
(75,95,o),
(102,82,c),
(53,57,o),
(-6,29,o),
(-14,-35,cs),
(-26,-120,o),
(54,-175,o),
(219,-175,cs)
);
},
{
closed = 1;
nodes = (
(125,-116,o),
(65,-86,o),
(72,-25,cs),
(80,26,o),
(138,64,o),
(176,62,cs),
(321,52,ls),
(388,48,o),
(411,20,o),
(405,-25,cs),
(397,-87,o),
(345,-116,o),
(242,-116,cs)
);
},
{
closed = 1;
nodes = (
(198,262,o),
(156,301,o),
(166,369,cs),
(175,438,o),
(229,482,o),
(310,482,cs),
(391,482,o),
(431,439,o),
(420,369,cs),
(411,301,o),
(362,262,o),
(279,262,cs)
);
}
);
width = 587;
},
{
anchors = (
{
name = top;
position = "{305, 530}";
}
);
guides = (
{
angle = 90;
position = "{334, 0}";
showMeasurement = 1;
}
);
layerId = "479E441D-7DC1-4B7F-91CA-24AB0BA7ACEE";
shapes = (
{
closed = 1;
nodes = (
(347,-175,o),
(438,-119,o),
(451,-19,cs),
(462,60,o),
(424,110,o),
(323,116,cs),
(276,119,o),
(239,121,o),
(210,123,cs),
(130,129,o),
(108,137,o),
(111,160,cs),
(114,183,o),
(147,207,o),
(248,209,cs),
(252,209,o),
(255,209,o),
(258,209,cs),
(392,209,o),
(460,280,o),
(472,369,cs),
(477,406,o),
(470,426,o),
(460,460,c),
(554,478,l),
(561,537,l),
(445,487,l),
(406,528,o),
(363,538,o),
(309,538,cs),
(183,538,o),
(101,475,o),
(87,369,cs),
(78,303,o),
(97,264,o),
(155,228,c),
(105,212,o),
(75,188,o),
(71,159,cs),
(67,127,o),
(86,116,o),
(110,104,c),
(59,77,o),
(4,38,o),
(-5,-27,cs),
(-17,-120,o),
(57,-175,o),
(203,-175,cs)
);
},
{
closed = 1;
nodes = (
(92,-137,o),
(26,-96,o),
(35,-23,cs),
(45,43,o),
(121,88,o),
(151,86,cs),
(316,75,ls),
(396,70,o),
(419,36,o),
(411,-19,cs),
(401,-101,o),
(333,-137,o),
(217,-137,cs)
);
},
{
closed = 1;
nodes = (
(164,247,o),
(114,290,o),
(125,371,cs),
(136,453,o),
(200,500,o),
(298,500,cs),
(399,500,o),
(446,454,o),
(434,371,cs),
(423,289,o),
(367,247,o),
(264,247,cs)
);
}
);
width = 558;
}
);
leftKerningGroup = g2;
rightKerningGroup = g;
unicode = 103;
},
{
glyphname = h;
layers = (
{
layerId = "735450B9-CA28-42C1-9B3C-08680A8E3308";
shapes = (
{
closed = 1;
nodes = (
(224,0,l),
(273,349,l),
(297,383,o),
(323,399,o),
(354,399,cs),
(386,399,o),
(403,381,o),
(399,351,cs),
(350,0,l),
(550,0,l),
(602,375,ls),
(617,481,o),
(569,540,o),
(470,540,cs),
(413,540,o),
(336,511,o),
(280,425,c),
(328,762,l),
(131,762,l),
(24,0,l)
);
}
);
width = 636;
},
{
layerId = "AC69D05A-01B2-435C-837D-E8B538C011DB";
shapes = (
{
closed = 1;
nodes = (
(140,0,l),
(193,391,l),
(259,444,o),
(301,470,o),
(357,470,cs),
(425,470,o),
(450,432,o),
(441,369,cs),
(391,0,l),
(478,0,l),
(530,387,ls),
(543,480,o),
(498,540,o),
(397,540,cs),
(329,540,o),
(271,510,o),
(197,443,c),
(240,762,l),
(156,762,l),
(53,0,l)
);
}
);
width = 588;
},
{
layerId = "479E441D-7DC1-4B7F-91CA-24AB0BA7ACEE";
shapes = (
{
closed = 1;
nodes = (
(104,0,l),
(158,410,l),
(242,471,o),
(291,502,o),
(358,502,cs),
(441,502,o),
(469,455,o),
(459,377,cs),
(409,0,l),
(447,0,l),
(499,393,ls),
(510,480,o),
(466,540,o),
(365,540,cs),
(293,540,o),
(243,509,o),
(161,451,c),
(202,762,l),
(167,762,l),
(66,0,l)
);
}
);
width = 566;
}
);
leftKerningGroup = b2;
rightKerningGroup = a;
unicode = 104;
},
{
glyphname = i;
layers = (
{
layerId = "735450B9-CA28-42C1-9B3C-08680A8E3308";
shapes = (
{
closed = 1;
nodes = (
(91,530,l),
(17,0,l),
(217,0,l),
(291,530,l)
);
},
{
closed = 1;
nodes = (
(124,762,l),
(100,594,l),
(300,594,l),
(324,762,l)
);
}
);
width = 308;
},
{
layerId = "AC69D05A-01B2-435C-837D-E8B538C011DB";
shapes = (
{
closed = 1;
nodes = (
(127,530,l),
(55,0,l),
(142,0,l),
(213,530,l)
);
},
{
closed = 1;
nodes = (
(155,762,l),
(138,642,l),
(232,642,l),
(248,762,l)
);
}
);
width = 266;
},
{
layerId = "479E441D-7DC1-4B7F-91CA-24AB0BA7ACEE";
shapes = (
{
closed = 1;
nodes = (
(141,530,l),
(70,0,l),
(108,0,l),
(179,530,l)
);
},
{
closed = 1;
nodes = (
(167,762,l),
(154,664,l),
(201,664,l),
(215,762,l)
);
}
);
width = 247;
}
);
leftKerningGroup = b2;
rightKerningGroup = d;
unicode = 105;
},
{
glyphname = j;
layers = (
{
layerId = "735450B9-CA28-42C1-9B3C-08680A8E3308";
shapes = (
{
closed = 1;
nodes = (
(272,530,l),
(72,530,l),
(2,29,ls),
(-1,7,o),
(-14,-6,o),
(-53,-14,c),
(-84,-19,l),
(-102,-153,l),
(-102,-153,o),
(-89,-170,o),
(-36,-170,cs),
(106,-170,o),
(183,-103,o),
(202,29,cs)
);
},
{
closed = 1;
nodes = (
(105,762,l),
(81,594,l),
(281,594,l),
(305,762,l)
);
}
);
width = 287;
},
{
layerId = "AC69D05A-01B2-435C-837D-E8B538C011DB";
shapes = (
{
closed = 1;
nodes = (
(210,530,l),
(122,530,l),
(47,-23,ls),
(40,-73,o),
(20,-93,o),
(-27,-96,c),
(-79,-98,l),
(-87,-159,l),
(-87,-159,o),
(-79,-170,o),
(-24,-170,cs),
(80,-170,o),
(121,-124,o),
(135,-26,c)
);
},
{
closed = 1;
nodes = (
(150,762,l),
(133,642,l),
(228,642,l),
(245,762,l)
);
}
);
width = 262;
},
{
layerId = "479E441D-7DC1-4B7F-91CA-24AB0BA7ACEE";
shapes = (
{
closed = 1;
nodes = (
(182,530,l),
(144,530,l),
(67,-46,ls),
(58,-110,o),
(35,-132,o),
(-15,-133,cs),
(-76,-134,l),
(-80,-161,l),
(-80,-161,o),
(-75,-170,o),
(-19,-170,cs),
(68,-170,o),
(93,-133,o),
(105,-51,cs)
);
},
{
closed = 1;
nodes = (
(170,762,l),
(157,664,l),
(204,664,l),
(218,762,l)
);
}
);
width = 250;
}
);
leftKerningGroup = j;
rightKerningGroup = d;
unicode = 106;
},
{
glyphname = k;
leftMetricsKey = h;
layers = (
{
anchors = (
{
name = bottom;
position = "{284, 0}";
}
);
guides = (
{
angle = 296.047;
position = "{503, 156}";
},
{
angle = 44.226;
position = "{449, 530}";
}
);
layerId = "735450B9-CA28-42C1-9B3C-08680A8E3308";
shapes = (
{
closed = 1;
nodes = (
(427,311,l),
(652,530,l),
(449,530,l),
(277,368,l),
(331,762,l),
(131,762,l),
(24,0,l),
(224,0,l),
(245,150,l),
(290,195,l),
(385,0,l),
(579,0,l)
);
}
);
width = 620;
},
{
anchors = (
{
name = bottom;
position = "{253, 0}";
}
);
guides = (
{
angle = 296.047;
position = "{503, 156}";
},
{
angle = 44.226;
position = "{449, 530}";
}
);
layerId = "AC69D05A-01B2-435C-837D-E8B538C011DB";
shapes = (
{
closed = 1;
nodes = (
(347,329,l),
(557,530,l),
(456,530,l),
(176,268,l),
(243,762,l),
(156,762,l),
(53,0,l),
(140,0,l),
(161,158,l),
(282,272,l),
(408,0,l),
(499,0,l)
);
}
);
width = 562;
},
{
anchors = (
{
name = bottom;
position = "{239, 0}";
}
);
guides = (
{
angle = 120.567;
position = "{268, 152}";
},
{
angle = 223.052;
position = "{516, 530}";
},
{
angle = 294.545;
position = "{418, 0}";
}
);
layerId = "479E441D-7DC1-4B7F-91CA-24AB0BA7ACEE";
shapes = (
{
closed = 1;
nodes = (
(311,337,l),
(516,530,l),
(458,530,l),
(132,223,l),
(205,762,l),
(167,762,l),
(66,0,l),
(104,0,l),
(124,162,l),
(277,307,l),
(418,0,l),
(465,0,l)
);
}
);
width = 536;
}
);
leftKerningGroup = b2;
rightKerningGroup = k;
unicode = 107;
},
{
glyphname = l;
layers = (
{
anchors = (
{
name = bottom;
position = "{116, 0}";
},
{
name = top;
position = "{232, 765}";
},
{
name = topright;
position = "{482, 785}";
}
);
layerId = "735450B9-CA28-42C1-9B3C-08680A8E3308";
shapes = (
{
closed = 1;
nodes = (
(219,0,l),
(326,762,l),
(126,762,l),
(19,0,l)
);
}
);
width = 310;
},
{
anchors = (
{
name = bottom;
position = "{96, 0}";
},
{
name = top;
position = "{204, 763}";
},
{
name = topright;
position = "{367, 771}";
}
);
layerId = "AC69D05A-01B2-435C-837D-E8B538C011DB";
shapes = (
{
closed = 1;
nodes = (
(143,0,l),
(246,762,l),
(158,762,l),
(54,0,l)
);
}
);
width = 267;
},
{
anchors = (
{
name = bottom;
position = "{87, 0}";
},
{
name = top;
position = "{191, 762}";
},
{
name = topright;
position = "{314, 765}";
}
);
layerId = "479E441D-7DC1-4B7F-91CA-24AB0BA7ACEE";
shapes = (
{
closed = 1;
nodes = (
(108,0,l),
(210,762,l),
(172,762,l),
(70,0,l)
);
}
);
width = 247;
}
);
leftKerningGroup = b2;
unicode = 108;
},
{
glyphname = m;
leftMetricsKey = n;
rightMetricsKey = n;
layers = (
{
layerId = "735450B9-CA28-42C1-9B3C-08680A8E3308";
shapes = (
{
closed = 1;
nodes = (
(219,0,l),
(268,350,ls),
(272,380,o),
(308,399,o),
(338,399,cs),
(368,399,o),
(398,380,o),
(394,350,cs),
(345,0,l),
(544,0,l),
(588,318,l),
(590,327,o),
(591,336,o),
(593,350,cs),
(597,380,o),
(634,399,o),
(664,399,cs),
(694,399,o),
(723,380,o),
(719,350,cs),
(670,0,l),
(870,0,l),
(922,373,ls),
(937,480,o),
(880,540,o),
(792,540,cs),
(738,540,o),
(660,521,o),
(593,418,c),
(586,487,o),
(551,541,o),
(464,541,cs),
(411,541,o),
(329,521,o),
(276,427,c),
(290,530,l),
(93,530,l),
(19,0,l)
);
}
);
width = 956;
},
{
layerId = "AC69D05A-01B2-435C-837D-E8B538C011DB";
shapes = (
{
closed = 1;
nodes = (
(141,0,l),
(193,391,l),
(250,443,o),
(293,470,o),
(347,470,cs),
(408,470,o),
(435,432,o),
(427,369,cs),
(377,0,l),
(465,0,l),
(515,370,ls),
(517,382,o),
(521,389,o),
(530,400,c),
(560,432,o),
(614,470,o),
(671,470,cs),
(733,470,o),
(759,432,o),
(751,369,cs),
(701,0,l),
(790,0,l),
(842,387,ls),
(854,480,o),
(808,540,o),
(715,540,cs),
(658,540,o),
(609,522,o),
(516,439,c),
(507,499,o),
(467,540,o),
(390,540,cs),
(327,540,o),
(268,513,o),
(198,444,c),
(209,530,l),
(124,530,l),
(52,0,l)
);
}
);
width = 900;
},
{
layerId = "479E441D-7DC1-4B7F-91CA-24AB0BA7ACEE";
shapes = (
{
closed = 1;
nodes = (
(104,0,l),
(158,410,l),
(239,471,o),
(285,502,o),
(349,502,cs),
(425,502,o),
(450,455,o),
(440,377,cs),
(390,0,l),
(428,0,l),
(480,393,ls),
(482,407,o),
(487,413,o),
(500,423,cs),
(542,455,o),
(603,502,o),
(673,502,cs),
(749,502,o),
(774,455,o),
(764,377,cs),
(714,0,l),
(752,0,l),
(804,393,ls),
(815,480,o),
(774,540,o),
(679,540,cs),
(620,540,o),
(584,522,o),
(480,448,c),
(470,504,o),
(427,540,o),
(355,540,cs),
(287,540,o),
(239,509,o),
(161,451,c),
(171,530,l),
(136,530,l),
(66,0,l)
);
}
);
width = 871;
}
);
leftKerningGroup = b2;
rightKerningGroup = a;
unicode = 109;
},
{
glyphname = n;
layers = (
{
anchors = (
{
name = bottom;
position = "{282, 0}";
},
{
name = top;
position = "{356, 530}";
}
);
layerId = "735450B9-CA28-42C1-9B3C-08680A8E3308";
shapes = (
{
closed = 1;
nodes = (
(219,0,l),
(268,351,ls),
(272,381,o),
(310,399,o),
(340,399,cs),
(370,399,o),
(399,381,o),
(395,351,cs),
(346,0,l),
(546,0,l),
(599,378,ls),
(613,477,o),
(558,540,o),
(465,540,cs),
(392,540,o),
(326,501,o),
(277,427,c),
(291,530,l),
(93,530,l),
(19,0,l)
);
}
);
width = 632;
},
{
anchors = (
{
name = bottom;
position = "{266, 0}";
},
{
name = top;
position = "{343, 530}";
}
);
layerId = "AC69D05A-01B2-435C-837D-E8B538C011DB";
shapes = (
{
closed = 1;
nodes = (
(139,0,l),
(191,392,l),
(252,443,o),
(297,470,o),
(353,470,cs),
(420,470,o),
(449,432,o),
(440,369,cs),
(390,0,l),
(477,0,l),
(529,388,ls),
(542,479,o),
(494,540,o),
(396,540,cs),
(324,540,o),
(268,507,o),
(196,444,c),
(208,530,l),
(124,530,l),
(52,0,l)
);
}
);
width = 587;
},
{
anchors = (
{
name = bottom;
position = "{258, 0}";
},
{
name = top;
position = "{337, 530}";
}
);
layerId = "479E441D-7DC1-4B7F-91CA-24AB0BA7ACEE";
shapes = (
{
closed = 1;
nodes = (
(104,0,l),
(158,410,l),
(242,471,o),
(291,502,o),
(358,502,cs),
(441,502,o),
(469,455,o),
(459,377,cs),
(409,0,l),
(447,0,l),
(499,393,ls),
(510,480,o),
(466,540,o),
(365,540,cs),
(293,540,o),
(243,509,o),
(161,451,c),
(171,530,l),
(136,530,l),
(66,0,l)
);
}
);
width = 566;
}
);
leftKerningGroup = b2;
rightKerningGroup = a;
unicode = 110;
},
{
glyphname = o;
layers = (
{
anchors = (
{
name = bottom;
position = "{255, 0}";
},
{
name = ogonek;
position = "{337, 10}";
},
{
name = top;
position = "{332, 530}";
}
);
layerId = "735450B9-CA28-42C1-9B3C-08680A8E3308";
shapes = (
{
closed = 1;
nodes = (
(420,-10,o),
(551,104,o),
(574,262,cs),
(596,423,o),
(501,540,o),
(334,540,cs),
(176,540,o),
(39,429,o),
(16,262,cs),
(-7,103,o),
(91,-10,o),
(255,-10,cs)
);
},
{
closed = 1;
nodes = (
(210,114,o),
(208,212,o),
(216,269,cs),
(224,326,o),
(252,418,o),
(316,418,cs),
(380,418,o),
(384,326,o),
(376,269,cs),
(368,212,o),
(338,114,o),
(274,114,cs)
);
}
);
width = 593;
},
{
anchors = (
{
name = bottom;
position = "{237, 0}";
},
{
name = ogonek;
position = "{306, 10}";
},
{
name = top;
position = "{311, 530}";
}
);
layerId = "AC69D05A-01B2-435C-837D-E8B538C011DB";
shapes = (
{
closed = 1;
nodes = (
(383,-10,o),
(488,103,o),
(510,263,cs),
(532,425,o),
(460,540,o),
(313,540,cs),
(168,540,o),
(61,426,o),
(39,262,c),
(16,102,o),
(90,-10,o),
(237,-10,cs)
);
},
{
closed = 1;
nodes = (
(146,55,o),
(112,151,o),
(127,266,cs),
(143,380,o),
(203,476,o),
(303,476,cs),
(404,476,o),
(438,381,o),
(423,266,cs),
(407,150,o),
(349,55,o),
(247,55,cs)
);
}
);
width = 548;
},
{
anchors = (
{
name = bottom;
position = "{229, 0}";
},
{
name = ogonek;
position = "{292, 10}";
},
{
name = top;
position = "{302, 530}";
}
);
layerId = "479E441D-7DC1-4B7F-91CA-24AB0BA7ACEE";
shapes = (
{
closed = 1;
nodes = (
(367,-10,o),
(460,102,o),
(482,264,cs),
(504,426,o),
(441,540,o),
(303,540,cs),
(164,540,o),
(69,425,o),
(48,262,cs),
(27,101,o),
(88,-10,o),
(228,-10,cs)
);
},
{
closed = 1;
nodes = (
(118,28,o),
(69,123,o),
(88,264,cs),
(107,405,o),
(181,502,o),
(297,502,cs),
(413,502,o),
(461,406,o),
(442,264,cs),
(423,122,o),
(352,28,o),
(236,28,cs)
);
}
);
width = 528;
}
);
leftKerningGroup = c;
rightKerningGroup = b;
unicode = 111;
},
{
glyphname = p;
layers = (
{
layerId = "735450B9-CA28-42C1-9B3C-08680A8E3308";
shapes = (
{
closed = 1;
nodes = (
(196,-165,l),
(230,79,l),
(249,0,o),
(321,-10,o),
(366,-10,cs),
(478,-10,o),
(580,65,o),
(608,267,cs),
(635,454,o),
(562,540,o),
(451,540,cs),
(382,540,o),
(320,504,o),
(284,459,c),
(294,530,l),
(93,530,l),
(-4,-165,l)
);
},
{
closed = 1;
nodes = (
(262,119,o),
(241,156,o),
(253,245,cs),
(260,291,ls),
(273,383,o),
(305,410,o),
(350,410,cs),
(391,410,o),
(423,387,o),
(407,271,cs),
(390,154,o),
(353,119,o),
(306,119,cs)
);
}
);
width = 627;
},
{
layerId = "AC69D05A-01B2-435C-837D-E8B538C011DB";
shapes = (
{
closed = 1;
nodes = (
(118,-165,l),
(148,60,l),
(184,6,o),
(236,-10,o),
(290,-10,cs),
(420,-10,o),
(524,93,o),
(548,273,cs),
(572,453,o),
(493,540,o),
(375,540,cs),
(280,540,o),
(224,481,o),
(200,454,c),
(210,530,l),
(123,530,l),
(29,-165,l)
);
},
{
closed = 1;
nodes = (
(220,56,o),
(184,88,o),
(160,148,c),
(186,341,ls),
(195,411,o),
(257,473,o),
(336,473,cs),
(414,473,o),
(477,417,o),
(458,271,cs),
(438,130,o),
(364,56,o),
(274,56,cs)
);
}
);
width = 585;
},
{
layerId = "479E441D-7DC1-4B7F-91CA-24AB0BA7ACEE";
shapes = (
{
closed = 1;
nodes = (
(82,-165,l),
(110,51,l),
(155,8,o),
(197,-10,o),
(255,-10,cs),
(394,-10,o),
(498,105,o),
(521,275,cs),
(544,452,o),
(462,540,o),
(340,540,cs),
(234,540,o),
(181,471,o),
(162,451,c),
(172,530,l),
(136,530,l),
(44,-165,l)
);
},
{
closed = 1;
nodes = (
(201,28,o),
(158,57,o),
(117,104,c),
(152,364,ls),
(160,424,o),
(235,502,o),
(330,502,cs),
(425,502,o),
(502,430,o),
(481,271,cs),
(460,119,o),
(369,28,o),
(259,28,cs)
);
}
);
width = 566;
}
);
leftKerningGroup = b2;
rightKerningGroup = b;
unicode = 112;
},
{
glyphname = q;
leftMetricsKey = e;
layers = (
{
layerId = "735450B9-CA28-42C1-9B3C-08680A8E3308";
shapes = (
{
closed = 1;
nodes = (
(606,530,l),
(405,530,l),
(397,469,l),
(360,514,o),
(321,540,o),
(252,540,cs),
(141,540,o),
(44,454,o),
(17,267,cs),
(-11,65,o),
(69,-10,o),
(181,-10,cs),
(226,-10,o),
(272,0,o),
(340,59,c),
(309,-165,l),
(509,-165,l)
);
},
{
closed = 1;
nodes = (
(230,119,o),
(203,154,o),
(220,271,cs),
(236,387,o),
(274,410,o),
(315,410,cs),
(360,410,o),
(386,383,o),
(373,291,cs),
(366,245,ls),
(354,156,o),
(321,119,o),
(277,119,cs)
);
}
);
width = 618;
},
{
layerId = "AC69D05A-01B2-435C-837D-E8B538C011DB";
shapes = (
{
closed = 1;
nodes = (
(538,530,l),
(450,530,l),
(441,457,l),
(421,484,o),
(384,540,o),
(290,540,cs),
(171,540,o),
(67,453,o),
(42,273,cs),
(18,93,o),
(94,-10,o),
(224,-10,cs),
(278,-10,o),
(326,6,o),
(385,54,c),
(356,-165,l),
(444,-165,l)
);
},
{
closed = 1;
nodes = (
(170,56,o),
(114,130,o),
(133,271,cs),
(153,417,o),
(231,473,o),
(309,473,cs),
(388,473,o),
(433,411,o),
(425,341,c),
(398,148,l),
(358,88,o),
(313,56,o),
(259,56,cs)
);
}
);
width = 582;
},
{
layerId = "479E441D-7DC1-4B7F-91CA-24AB0BA7ACEE";
shapes = (
{
closed = 1;
nodes = (
(507,530,l),
(471,530,l),
(461,451,l),
(448,471,o),
(413,540,o),
(307,540,cs),
(185,540,o),
(78,452,o),
(54,275,cs),
(31,105,o),
(105,-10,o),
(244,-10,cs),
(302,-10,o),
(350,8,o),
(406,51,c),
(377,-165,l),
(415,-165,l)
);
},
{
closed = 1;
nodes = (
(142,28,o),
(73,119,o),
(94,271,cs),
(115,430,o),
(211,502,o),
(306,502,cs),
(401,502,o),
(455,424,o),
(448,364,cs),
(412,104,l),
(360,57,o),
(309,28,o),
(251,28,cs)
);
}
);
width = 566;
}
);
leftKerningGroup = c;
rightKerningGroup = d;
unicode = 113;
},
{
glyphname = r;
layers = (
{
anchors = (
{
name = bottom;
position = "{131, 0}";
},
{
name = top;
position = "{284, 530}";
}
);
layerId = "735450B9-CA28-42C1-9B3C-08680A8E3308";
shapes = (
{
closed = 1;
nodes = (
(219,0,l),
(254,254,ls),
(262,310,o),
(294,368,o),
(441,353,c),
(467,540,l),
(368,540,o),
(303,469,o),
(266,384,c),
(286,530,l),
(93,530,l),
(19,0,l)
);
}
);
width = 443;
},
{
anchors = (
{
name = bottom;
position = "{99, 0}";
},
{
name = top;
position = "{255, 530}";
}
);
layerId = "AC69D05A-01B2-435C-837D-E8B538C011DB";
shapes = (
{
closed = 1;
nodes = (
(139,0,l),
(182,321,ls),
(191,387,o),
(280,459,o),
(384,453,c),
(396,540,l),
(321,540,o),
(236,488,o),
(191,419,c),
(206,530,l),
(124,530,l),
(52,0,l)
);
}
);
width = 383;
},
{
anchors = (
{
name = bottom;
position = "{85, 0}";
},
{
name = top;
position = "{242, 530}";
}
);
layerId = "479E441D-7DC1-4B7F-91CA-24AB0BA7ACEE";
shapes = (
{
closed = 1;
nodes = (
(104,0,l),
(150,351,ls),
(160,422,o),
(274,501,o),
(359,499,c),
(365,540,l),
(299,540,o),
(205,496,o),
(159,435,c),
(171,530,l),
(136,530,l),
(66,0,l)
);
}
);
width = 355;
}
);
leftKerningGroup = b2;
rightKerningGroup = r;
unicode = 114;
},
{
glyphname = s;
layers = (
{
layerId = "735450B9-CA28-42C1-9B3C-08680A8E3308";
shapes = (
{
closed = 1;
nodes = (
(356,-10,o),
(472,43,o),
(488,155,cs),
(509,299,o),
(332,326,o),
(254,356,cs),
(231,365,o),
(217,374,o),
(219,386,cs),
(222,409,o),
(266,410,o),
(281,410,cs),
(316,410,o),
(363,395,o),
(382,365,c),
(501,425,l),
(464,512,o),
(391,540,o),
(288,540,cs),
(180,540,o),
(70,493,o),
(53,372,cs),
(34,241,o),
(170,213,o),
(254,188,cs),
(291,177,o),
(319,166,o),
(316,146,cs),
(313,125,o),
(282,123,o),
(267,123,cs),
(224,123,o),
(161,144,o),
(133,178,c),
(7,123,l),
(52,37,o),
(155,-10,o),
(257,-10,cs)
);
}
);
width = 508;
},
{
layerId = "AC69D05A-01B2-435C-837D-E8B538C011DB";
shapes = (
{
closed = 1;
nodes = (
(313,-12,o),
(408,47,o),
(413,149,cs),
(418,267,o),
(289,287,o),
(210,324,cs),
(175,341,o),
(150,361,o),
(152,395,cs),
(154,451,o),
(213,472,o),
(260,472,cs),
(309,472,o),
(355,449,o),
(371,403,c),
(432,436,l),
(403,509,o),
(338,538,o),
(258,538,cs),
(167,538,o),
(79,487,o),
(74,389,cs),
(69,276,o),
(183,256,o),
(260,222,cs),
(300,204,o),
(330,182,o),
(328,142,cs),
(326,85,o),
(277,55,o),
(224,55,cs),
(162,55,o),
(104,87,o),
(85,147,c),
(16,116,l),
(36,37,o),
(145,-12,o),
(219,-12,cs)
);
}
);
width = 462;
},
{
layerId = "479E441D-7DC1-4B7F-91CA-24AB0BA7ACEE";
shapes = (
{
closed = 1;
nodes = (
(293,-12,o),
(379,49,o),
(379,145,cs),
(379,259,o),
(258,276,o),
(182,316,cs),
(147,335,o),
(121,358,o),
(121,399,cs),
(121,469,o),
(182,502,o),
(245,502,cs),
(302,502,o),
(347,474,o),
(363,419,c),
(401,442,l),
(372,509,o),
(315,538,o),
(242,538,cs),
(159,538,o),
(83,485,o),
(83,397,cs),
(83,294,o),
(205,263,o),
(281,227,cs),
(316,210,o),
(335,181,o),
(335,141,cs),
(335,72,o),
(278,24,o),
(210,24,cs),
(143,24,o),
(86,63,o),
(67,127,c),
(29,105,l),
(60,34,o),
(120,-12,o),
(202,-12,cs)
);
}
);
width = 441;
}
);
leftKerningGroup = s2;
rightKerningGroup = s;
unicode = 115;
},
{
glyphname = t;
layers = (
{
anchors = (
{
name = bottom;
position = "{217, 0}";
},
{
name = center;
position = "{209, 265}";
},
{
name = topright;
position = "{501, 815}";
}
);
layerId = "735450B9-CA28-42C1-9B3C-08680A8E3308";
shapes = (
{
closed = 1;
nodes = (
(440,531,l),
(324,531,l),
(347,695,l),
(185,695,l),
(132,530,l),
(38,530,l),
(19,395,l),
(106,395,l),
(71,146,ls),
(59,60,o),
(92,-8,o),
(259,-8,cs),
(322,-8,o),
(351,1,o),
(367,8,c),
(383,126,l),
(299,126,ls),
(282,126,o),
(269,131,o),
(273,155,c),
(305,395,l),
(421,395,l)
);
}
);
width = 422;
},
{
anchors = (
{
name = bottom;
position = "{198, 0}";
},
{
name = center;
position = "{178, 301}";
},
{
name = topright;
position = "{425, 774}";
}
);
layerId = "AC69D05A-01B2-435C-837D-E8B538C011DB";
shapes = (
{
closed = 1;
nodes = (
(363,530,l),
(240,530,l),
(265,705,l),
(189,705,l),
(155,530,l),
(57,530,l),
(48,464,l),
(145,464,l),
(99,127,ls),
(87,42,o),
(111,-3,o),
(214,-3,cs),
(243,-3,o),
(282,1,o),
(296,6,c),
(304,63,l),
(228,63,ls),
(196,63,o),
(179,75,o),
(187,134,cs),
(231,464,l),
(353,464,l)
);
}
);
width = 366;
},
{
anchors = (
{
name = bottom;
position = "{189, 0}";
},
{
name = center;
position = "{164, 318}";
},
{
name = topright;
position = "{390, 755}";
}
);
layerId = "479E441D-7DC1-4B7F-91CA-24AB0BA7ACEE";
shapes = (
{
closed = 1;
nodes = (
(329,530,l),
(203,530,l),
(228,710,l),
(190,710,l),
(165,530,l),
(65,530,l),
(60,495,l),
(161,495,l),
(110,119,ls),
(99,34,o),
(119,0,o),
(195,0,cs),
(209,0,o),
(251,1,o),
(264,5,c),
(269,35,l),
(197,35,ls),
(159,35,o),
(140,50,o),
(149,124,cs),
(199,495,l),
(324,495,l)
);
}
);
width = 341;
}
);
leftKerningGroup = t2;
rightKerningGroup = t;
unicode = 116;
},
{
glyphname = u;
layers = (
{
anchors = (
{
name = bottom;
position = "{283, 0}";
},
{
name = ogonek;
position = "{515, 10}";
},
{
name = top;
position = "{356, 530}";
}
);
layerId = "735450B9-CA28-42C1-9B3C-08680A8E3308";
shapes = (
{
closed = 1;
nodes = (
(247,-10,o),
(332,19,o),
(381,90,c),
(394,0,l),
(541,0,l),
(619,530,l),
(417,530,l),
(367,175,ls),
(363,144,o),
(338,120,o),
(298,120,cs),
(258,120,o),
(239,144,o),
(243,175,cs),
(293,530,l),
(93,530,l),
(41,157,ls),
(26,50,o),
(110,-10,o),
(196,-10,cs)
);
}
);
width = 631;
},
{
anchors = (
{
name = bottom;
position = "{254, 0}";
},
{
name = ogonek;
position = "{454, 11}";
},
{
name = top;
position = "{318, 530}";
}
);
layerId = "AC69D05A-01B2-435C-837D-E8B538C011DB";
shapes = (
{
closed = 1;
nodes = (
(268,-10,o),
(328,22,o),
(401,84,c),
(398,1,l),
(466,1,l),
(539,531,l),
(452,531,l),
(399,139,l),
(338,87,o),
(296,58,o),
(238,58,cs),
(168,58,o),
(142,98,o),
(152,162,cs),
(201,531,l),
(114,531,l),
(62,145,ls),
(49,51,o),
(106,-8,o),
(202,-9,cs)
);
}
);
width = 587;
},
{
anchors = (
{
name = bottom;
position = "{241, 0}";
},
{
name = ogonek;
position = "{426, 11}";
},
{
name = top;
position = "{301, 530}";
}
);
layerId = "479E441D-7DC1-4B7F-91CA-24AB0BA7ACEE";
shapes = (
{
closed = 1;
nodes = (
(276,-10,o),
(326,23,o),
(409,81,c),
(398,1,l),
(433,1,l),
(504,532,l),
(466,532,l),
(411,122,l),
(327,61,o),
(278,30,o),
(211,30,cs),
(128,30,o),
(100,77,o),
(111,156,cs),
(161,532,l),
(123,532,l),
(70,139,ls),
(59,52,o),
(104,-7,o),
(204,-9,cs)
);
}
);
width = 567;
}
);
leftKerningGroup = u;
rightKerningGroup = d;
unicode = 117;
},
{
glyphname = v;
layers = (
{
layerId = "735450B9-CA28-42C1-9B3C-08680A8E3308";
shapes = (
{
closed = 1;
nodes = (
(439,530,l),
(301,259,l),
(236,530,l),
(38,530,l),
(180,0,l),
(318,0,l),
(609,530,l)
);
}
);
width = 571;
},
{
layerId = "AC69D05A-01B2-435C-837D-E8B538C011DB";
shapes = (
{
closed = 1;
nodes = (
(457,530,l),
(243,115,l),
(140,530,l),
(50,530,l),
(186,0,l),
(258,0,l),
(537,530,l)
);
}
);
width = 513;
},
{
layerId = "479E441D-7DC1-4B7F-91CA-24AB0BA7ACEE";
shapes = (
{
closed = 1;
nodes = (
(465,530,l),
(217,49,l),
(96,530,l),
(55,530,l),
(188,0,l),
(230,0,l),
(504,530,l)
);
}
);
width = 486;
}
);
leftKerningGroup = v2;
rightKerningGroup = v;
unicode = 118;
},
{
glyphname = w;
layers = (
{
anchors = (
{
name = top;
position = "{446, 530}";
}
);
layerId = "735450B9-CA28-42C1-9B3C-08680A8E3308";
shapes = (
{
closed = 1;
nodes = (
(679,530,l),
(561,272,l),
(521,530,l),
(383,530,l),
(269,273,l),
(222,530,l),
(38,530,l),
(144,0,l),
(290,0,l),
(410,257,l),
(453,0,l),
(596,0,l),
(856,530,l)
);
}
);
width = 818;
},
{
anchors = (
{
name = top;
position = "{423, 530}";
}
);
layerId = "AC69D05A-01B2-435C-837D-E8B538C011DB";
shapes = (
{
closed = 1;
nodes = (
(702,530,l),
(528,117,l),
(458,530,l),
(389,530,l),
(212,116,l),
(145,530,l),
(60,530,l),
(151,0,l),
(234,0,l),
(405,398,l),
(472,0,l),
(552,0,l),
(782,530,l)
);
}
);
width = 769;
},
{
anchors = (
{
name = top;
position = "{413, 530}";
}
);
layerId = "479E441D-7DC1-4B7F-91CA-24AB0BA7ACEE";
shapes = (
{
closed = 1;
nodes = (
(712,530,l),
(513,46,l),
(429,530,l),
(391,530,l),
(187,44,l),
(111,530,l),
(69,530,l),
(153,0,l),
(208,0,l),
(401,462,l),
(480,0,l),
(533,0,l),
(749,530,l)
);
}
);
width = 746;
}
);
leftKerningGroup = v2;
rightKerningGroup = v;
unicode = 119;
},
{
glyphname = x;
layers = (
{
guides = (
{
angle = 306.207;
position = "{203, 530}";
},
{
angle = 53.793;
position = "{-240, 0}";
}
);
layerId = "735450B9-CA28-42C1-9B3C-08680A8E3308";
shapes = (
{
closed = 1;
nodes = (
(420,277,l),
(641,530,l),
(436,530,l),
(336,415,l),
(267,530,l),
(62,530,l),
(211,277,l),
(-31,0,l),
(174,0,l),
(297,141,l),
(379,0,l),
(584,0,l)
);
}
);
width = 625;
},
{
guides = (
{
angle = 306.207;
position = "{203, 530}";
},
{
angle = 53.793;
position = "{-240, 0}";
}
);
layerId = "AC69D05A-01B2-435C-837D-E8B538C011DB";
shapes = (
{
closed = 1;
nodes = (
(320,276,l),
(537,530,l),
(440,530,l),
(280,341,l),
(170,530,l),
(74,530,l),
(221,276,l),
(-14,0,l),
(83,0,l),
(262,211,l),
(384,0,l),
(480,0,l)
);
}
);
width = 536;
},
{
guides = (
{
angle = 234.734;
position = "{-58, 0}";
},
{
angle = 125.266;
position = "{286, 0}";
}
);
layerId = "479E441D-7DC1-4B7F-91CA-24AB0BA7ACEE";
shapes = (
{
closed = 1;
nodes = (
(275,275,l),
(489,530,l),
(442,530,l),
(255,307,l),
(126,530,l),
(79,530,l),
(225,275,l),
(-6,0,l),
(42,0,l),
(246,243,l),
(386,0,l),
(433,0,l)
);
}
);
width = 496;
}
);
unicode = 120;
},
{
glyphname = y;
layers = (
{
anchors = (
{
name = top;
position = "{360, 530}";
}
);
guides = (
{
angle = 70.244;
position = "{403, 494}";
},
{
angle = 109.398;
position = "{83, 472}";
}
);
layerId = "735450B9-CA28-42C1-9B3C-08680A8E3308";
shapes = (
{
closed = 1;
nodes = (
(190,-169,o),
(265,-136,o),
(357,31,cs),
(634,530,l),
(439,530,l),
(295,242,l),
(234,530,l),
(38,530,l),
(174,31,l),
(171,21,l),
(168,14,o),
(156,-32,o),
(54,-24,cs),
(3,-20,l),
(-15,-147,l),
(-15,-147,o),
(16,-169,o),
(98,-169,cs)
);
}
);
width = 576;
},
{
anchors = (
{
name = top;
position = "{299, 530}";
}
);
guides = (
{
angle = 70.244;
position = "{403, 494}";
},
{
angle = 109.398;
position = "{83, 472}";
}
);
layerId = "AC69D05A-01B2-435C-837D-E8B538C011DB";
shapes = (
{
closed = 1;
nodes = (
(127,-169,o),
(184,-142,o),
(235,-43,c),
(529,530,l),
(444,530,l),
(236,115,l),
(138,530,l),
(50,530,l),
(180,12,l),
(155,-40,l),
(140,-68,o),
(116,-101,o),
(42,-99,cs),
(-12,-98,l),
(-19,-157,l),
(-19,-157,o),
(-3,-169,o),
(56,-169,cs)
);
}
);
width = 500;
},
{
anchors = (
{
name = top;
position = "{271, 530}";
}
);
guides = (
{
angle = 69.819;
position = "{268, 294}";
}
);
layerId = "479E441D-7DC1-4B7F-91CA-24AB0BA7ACEE";
shapes = (
{
closed = 1;
nodes = (
(98,-169,o),
(147,-144,o),
(181,-77,cs),
(483,530,l),
(446,530,l),
(209,57,l),
(96,530,l),
(55,530,l),
(181,3,l),
(146,-68,ls),
(127,-105,o),
(98,-133,o),
(36,-133,cs),
(-18,-133,l),
(-22,-161,l),
(-22,-161,o),
(-11,-169,o),
(38,-169,cs)
);
}
);
width = 466;
}
);
leftKerningGroup = v2;
rightKerningGroup = v;
unicode = 121;
},
{
glyphname = z;
layers = (
{
anchors = (
{
name = top;
position = "{312, 530}";
}
);
layerId = "735450B9-CA28-42C1-9B3C-08680A8E3308";
shapes = (
{
closed = 1;
nodes = (
(480,0,l),
(497,124,l),
(246,124,l),
(540,439,l),
(553,530,l),
(75,530,l),
(58,408,l),
(283,408,l),
(-8,94,l),
(-21,0,l)
);
}
);
width = 531;
},
{
anchors = (
{
name = top;
position = "{291, 530}";
}
);
layerId = "AC69D05A-01B2-435C-837D-E8B538C011DB";
shapes = (
{
closed = 1;
nodes = (
(409,0,l),
(418,63,l),
(117,63,l),
(468,473,l),
(476,530,l),
(96,530,l),
(88,468,l),
(363,468,l),
(11,56,l),
(3,0,l)
);
}
);
width = 479;
},
{
anchors = (
{
name = top;
position = "{281, 530}";
}
);
layerId = "479E441D-7DC1-4B7F-91CA-24AB0BA7ACEE";
shapes = (
{
closed = 1;
nodes = (
(378,0,l),
(383,35,l),
(60,35,l),
(436,488,l),
(442,530,l),
(105,530,l),
(100,495,l),
(397,495,l),
(18,39,l),
(13,0,l)
);
}
);
width = 455;
}
);
leftKerningGroup = z2;
rightKerningGroup = z;
unicode = 122;
},
{
glyphname = braceleft;
layers = (
{
layerId = "735450B9-CA28-42C1-9B3C-08680A8E3308";
shapes = (
{
closed = 1;
nodes = (
(332,-165,l),
(348,-58,l),
(315,-58,ls),
(250,-58,o),
(233,-48,o),
(238,-12,cs),
(265,181,l),
(274,265,o),
(208,287,o),
(158,289,c),
(154,291,o),
(163,295,o),
(175,295,c),
(219,302,o),
(281,318,o),
(294,386,c),
(321,576,l),
(324,602,o),
(333,635,o),
(397,635,cs),
(445,635,l),
(460,742,l),
(361,742,ls),
(282,742,o),
(180,705,o),
(167,612,cs),
(141,431,ls),
(133,371,o),
(95,341,o),
(13,341,c),
(-1,248,l),
(86,248,o),
(114,222,o),
(105,174,c),
(78,-23,ls),
(64,-118,o),
(163,-165,o),
(245,-165,cs)
);
}
);
width = 417;
},
{
layerId = "AC69D05A-01B2-435C-837D-E8B538C011DB";
shapes = (
{
closed = 1;
nodes = (
(233,-165,l),
(241,-106,l),
(214,-106,ls),
(172,-106,o),
(148,-84,o),
(152,-53,cs),
(182,167,l),
(192,251,o),
(146,283,o),
(97,286,c),
(91,288,o),
(96,292,o),
(106,293,cs),
(153,299,o),
(203,331,o),
(215,408,c),
(244,628,ls),
(248,661,o),
(266,683,o),
(315,683,cs),
(348,683,l),
(356,742,l),
(306,742,ls),
(233,742,o),
(177,705,o),
(168,640,cs),
(138,423,ls),
(130,363,o),
(88,319,o),
(12,318,c),
(5,262,l),
(83,262,o),
(110,214,o),
(104,166,cs),
(73,-57,ls),
(64,-121,o),
(111,-165,o),
(189,-165,cs)
);
}
);
width = 311;
},
{
layerId = "479E441D-7DC1-4B7F-91CA-24AB0BA7ACEE";
shapes = (
{
closed = 1;
nodes = (
(188,-165,l),
(193,-128,l),
(168,-128,ls),
(137,-128,o),
(109,-100,o),
(113,-72,cs),
(144,161,l),
(155,244,o),
(118,281,o),
(69,285,cs),
(62,286,o),
(66,291,o),
(74,292,cs),
(123,297,o),
(167,337,o),
(179,418,cs),
(209,651,ls),
(214,688,o),
(235,705,o),
(278,705,cs),
(304,705,l),
(309,742,l),
(281,742,ls),
(211,742,o),
(175,705,o),
(168,653,cs),
(137,420,ls),
(128,360,o),
(85,309,o),
(11,308,c),
(7,269,l),
(81,269,o),
(108,211,o),
(103,163,c),
(71,-72,ls),
(64,-123,o),
(88,-165,o),
(163,-165,cs)
);
}
);
width = 263;
}
);
unicode = 123;
},
{
glyphname = bar;
leftMetricsKey = I;
rightMetricsKey = I;
layers = (
{
layerId = "735450B9-CA28-42C1-9B3C-08680A8E3308";
shapes = (
{
closed = 1;
nodes = (
(284,847,l),
(143,847,l),
(143,-165,l),
(284,-165,l)
);
}
);
width = 404;
},
{
layerId = "AC69D05A-01B2-435C-837D-E8B538C011DB";
shapes = (
{
closed = 1;
nodes = (
(246,847,l),
(175,847,l),
(176,-165,l),
(246,-165,l)
);
}
);
width = 400;
},
{
layerId = "479E441D-7DC1-4B7F-91CA-24AB0BA7ACEE";
shapes = (
{
closed = 1;
nodes = (
(228,847,l),
(189,847,l),
(190,-165,l),
(228,-165,l)
);
}
);
width = 396;
}
);
leftKerningGroup = bar;
unicode = 124;
},
{
glyphname = braceright;
layers = (
{
layerId = "735450B9-CA28-42C1-9B3C-08680A8E3308";
shapes = (
{
closed = 1;
nodes = (
(85,742,l),
(69,635,l),
(102,635,ls),
(167,635,o),
(184,625,o),
(179,589,cs),
(152,396,l),
(143,312,o),
(209,290,o),
(259,288,c),
(263,286,o),
(254,282,o),
(242,282,c),
(198,275,o),
(136,259,o),
(123,191,c),
(96,1,l),
(93,-25,o),
(84,-58,o),
(20,-58,cs),
(-28,-58,l),
(-43,-165,l),
(56,-165,ls),
(135,-165,o),
(237,-128,o),
(250,-35,cs),
(276,146,ls),
(284,206,o),
(322,236,o),
(404,236,c),
(418,329,l),
(331,329,o),
(303,355,o),
(312,403,c),
(339,600,ls),
(353,695,o),
(254,742,o),
(172,742,cs)
);
}
);
width = 417;
},
{
layerId = "AC69D05A-01B2-435C-837D-E8B538C011DB";
shapes = (
{
closed = 1;
nodes = (
(78,742,l),
(70,683,l),
(97,683,ls),
(139,683,o),
(163,661,o),
(159,630,cs),
(129,410,l),
(119,326,o),
(165,294,o),
(214,291,c),
(220,289,o),
(215,285,o),
(206,284,cs),
(158,278,o),
(109,246,o),
(96,169,c),
(67,-51,ls),
(63,-84,o),
(46,-106,o),
(-4,-106,cs),
(-37,-106,l),
(-45,-165,l),
(5,-165,ls),
(78,-165,o),
(135,-128,o),
(143,-63,cs),
(173,154,ls),
(182,214,o),
(223,258,o),
(300,259,c),
(307,315,l),
(229,315,o),
(201,363,o),
(208,411,cs),
(238,634,ls),
(247,698,o),
(200,742,o),
(123,742,cs)
);
}
);
width = 311;
},
{
layerId = "479E441D-7DC1-4B7F-91CA-24AB0BA7ACEE";
shapes = (
{
closed = 1;
nodes = (
(75,742,l),
(70,705,l),
(95,705,ls),
(126,705,o),
(154,677,o),
(150,649,cs),
(119,416,l),
(108,333,o),
(145,296,o),
(194,292,cs),
(201,291,o),
(197,286,o),
(189,285,cs),
(140,280,o),
(96,240,o),
(84,159,cs),
(54,-74,ls),
(49,-111,o),
(28,-128,o),
(-15,-128,cs),
(-41,-128,l),
(-46,-165,l),
(-18,-165,ls),
(52,-165,o),
(88,-128,o),
(95,-76,cs),
(126,157,ls),
(135,217,o),
(178,268,o),
(252,269,c),
(256,308,l),
(182,308,o),
(155,366,o),
(160,414,c),
(192,649,ls),
(199,700,o),
(175,742,o),
(100,742,cs)
);
}
);
width = 263;
}
);
leftKerningGroup = question;
unicode = 125;
},
{
glyphname = asciitilde;
layers = (
{
layerId = "735450B9-CA28-42C1-9B3C-08680A8E3308";
shapes = (
{
closed = 1;
nodes = (
(534,483,l),
(507,435,o),
(466,397,o),
(419,397,cs),
(356,397,o),
(317,468,o),
(229,468,cs),
(157,468,o),
(106,421,o),
(45,356,c),
(102,262,l),
(139,305,o),
(174,348,o),
(226,348,cs),
(293,348,o),
(339,276,o),
(423,276,cs),
(481,276,o),
(548,312,o),
(591,391,c)
);
}
);
width = 652;
},
{
layerId = "AC69D05A-01B2-435C-837D-E8B538C011DB";
shapes = (
{
closed = 1;
nodes = (
(487,435,l),
(465,407,o),
(436,379,o),
(384,379,cs),
(315,379,o),
(271,432,o),
(194,432,cs),
(133,432,o),
(95,401,o),
(58,364,c),
(84,312,l),
(110,341,o),
(143,369,o),
(196,369,cs),
(265,369,o),
(303,317,o),
(385,317,cs),
(445,317,o),
(490,345,o),
(513,382,c)
);
}
);
width = 559;
},
{
layerId = "479E441D-7DC1-4B7F-91CA-24AB0BA7ACEE";
shapes = (
{
closed = 1;
nodes = (
(465,413,l),
(446,394,o),
(422,371,o),
(368,371,cs),
(297,371,o),
(250,416,o),
(178,416,cs),
(122,416,o),
(90,392,o),
(64,368,c),
(76,335,l),
(97,357,o),
(129,379,o),
(182,379,cs),
(252,379,o),
(287,335,o),
(367,335,cs),
(429,335,o),
(464,360,o),
(478,378,c)
);
}
);
width = 517;
}
);
unicode = 126;
},
{
glyphname = exclamdown;
leftMetricsKey = "=19";
rightMetricsKey = "=36";
layers = (
{
layerId = "735450B9-CA28-42C1-9B3C-08680A8E3308";
shapes = (
{
closed = 1;
nodes = (
(260,380,l),
(287,577,l),
(77,577,l),
(49,380,l)
);
},
{
closed = 1;
nodes = (
(191,-165,l),
(203,311,l),
(82,311,l),
(-40,-165,l)
);
}
);
width = 287;
},
{
layerId = "AC69D05A-01B2-435C-837D-E8B538C011DB";
leftMetricsKey = "=61";
rightMetricsKey = "=68";
shapes = (
{
closed = 1;
nodes = (
(200,460,l),
(217,577,l),
(108,577,l),
(92,460,l)
);
},
{
closed = 1;
nodes = (
(115,-165,l),
(160,337,l),
(98,337,l),
(6,-165,l)
);
}
);
width = 243;
},
{
layerId = "479E441D-7DC1-4B7F-91CA-24AB0BA7ACEE";
leftMetricsKey = "=81";
rightMetricsKey = "=79";
shapes = (
{
closed = 1;
nodes = (
(176,498,l),
(187,577,l),
(128,577,l),
(117,498,l)
);
},
{
closed = 1;
nodes = (
(83,-165,l),
(143,349,l),
(110,349,l),
(33,-165,l)
);
}
);
width = 222;
}
);
unicode = 161;
},
{
glyphname = cent;
layers = (
{
layerId = "735450B9-CA28-42C1-9B3C-08680A8E3308";
shapes = (
{
closed = 1;
nodes = (
(348,196,l),
(222,196,l),
(195,0,l),
(320,0,l)
);
},
{
closed = 1;
nodes = (
(425,742,l),
(299,742,l),
(272,546,l),
(397,546,l)
);
},
{
closed = 1;
nodes = (
(193,651,o),
(54,538,o),
(31,374,cs),
(8,211,o),
(117,101,o),
(269,101,cs),
(414,101,o),
(519,202,o),
(537,295,c),
(373,316,l),
(363,285,o),
(343,228,o),
(292,228,cs),
(241,228,o),
(212,288,o),
(224,376,cs),
(236,461,o),
(279,524,o),
(330,524,cs),
(382,524,o),
(385,463,o),
(386,425,c),
(561,446,l),
(572,545,o),
(497,651,o),
(347,651,cs)
);
}
);
width = 568;
},
{
layerId = "AC69D05A-01B2-435C-837D-E8B538C011DB";
shapes = (
{
closed = 1;
nodes = (
(295,144,l),
(230,144,l),
(210,0,l),
(275,0,l)
);
},
{
closed = 1;
nodes = (
(376,742,l),
(311,742,l),
(291,598,l),
(356,598,l)
);
},
{
closed = 1;
nodes = (
(189,651,o),
(79,537,o),
(57,374,cs),
(34,212,o),
(113,101,o),
(254,101,cs),
(356,101,o),
(434,161,o),
(479,246,c),
(410,268,l),
(369,208,o),
(332,167,o),
(268,167,cs),
(173,167,o),
(125,250,o),
(142,376,cs),
(159,500,o),
(229,585,o),
(324,585,cs),
(381,585,o),
(402,548,o),
(433,487,c),
(510,509,l),
(489,588,o),
(434,651,o),
(330,651,cs)
);
}
);
width = 545;
},
{
layerId = "479E441D-7DC1-4B7F-91CA-24AB0BA7ACEE";
shapes = (
{
closed = 1;
nodes = (
(271,121,l),
(233,121,l),
(217,0,l),
(255,0,l)
);
},
{
closed = 1;
nodes = (
(354,742,l),
(316,742,l),
(299,621,l),
(338,621,l)
);
},
{
closed = 1;
nodes = (
(188,651,o),
(90,537,o),
(68,374,cs),
(46,212,o),
(114,101,o),
(250,101,cs),
(332,101,o),
(398,142,o),
(456,224,c),
(426,246,l),
(373,173,o),
(328,139,o),
(259,139,cs),
(145,139,o),
(89,233,o),
(108,376,cs),
(127,517,o),
(210,613,o),
(323,613,cs),
(382,613,o),
(410,587,o),
(454,515,c),
(490,537,l),
(454,607,o),
(408,651,o),
(324,651,cs)
);
}
);
width = 535;
}
);
unicode = 162;
},
{
glyphname = sterling;
layers = (
{
layerId = "735450B9-CA28-42C1-9B3C-08680A8E3308";
shapes = (
{
closed = 1;
nodes = (
(-25,-10,l),
(168,-10,o),
(321,121,o),
(347,303,cs),
(351,327,o),
(352,335,o),
(352,343,c),
(474,343,l),
(489,446,l),
(355,446,l),
(353,493,o),
(355,517,o),
(358,536,cs),
(363,575,o),
(384,598,o),
(414,598,cs),
(442,598,o),
(454,581,o),
(466,532,c),
(642,582,l),
(611,694,o),
(526,752,o),
(405,752,cs),
(259,752,o),
(147,675,o),
(132,565,cs),
(126,527,o),
(124,475,o),
(122,446,c),
(40,446,l),
(25,343,l),
(129,343,l),
(127,289,o),
(126,268,o),
(123,248,cs),
(111,163,o),
(57,163,o),
(-1,163,c)
);
},
{
closed = 1;
nodes = (
(473,-10,o),
(568,47,o),
(629,211,c),
(470,244,l),
(435,171,o),
(411,154,o),
(339,154,cs),
(312,154,o),
(254,179,o),
(230,193,c),
(114,102,l),
(166,30,o),
(235,-10,o),
(316,-10,cs)
);
}
);
width = 661;
},
{
layerId = "AC69D05A-01B2-435C-837D-E8B538C011DB";
shapes = (
{
closed = 1;
nodes = (
(-26,-10,l),
(112,-10,o),
(207,87,o),
(230,245,cs),
(235,282,o),
(238,316,o),
(236,354,c),
(387,354,l),
(395,412,l),
(237,412,l),
(231,463,o),
(230,518,o),
(236,557,cs),
(246,631,o),
(303,674,o),
(369,674,cs),
(424,674,o),
(452,650,o),
(466,604,c),
(547,632,l),
(531,700,o),
(460,752,o),
(369,752,cs),
(254,752,o),
(153,675,o),
(136,554,cs),
(130,511,o),
(133,452,o),
(138,412,c),
(49,412,l),
(40,353,l),
(138,353,l),
(139,294,o),
(137,256,o),
(132,225,cs),
(118,125,o),
(81,71,o),
(-15,71,c)
);
},
{
closed = 1;
nodes = (
(395,-10,o),
(471,19,o),
(526,142,c),
(455,162,l),
(413,78,o),
(368,69,o),
(293,69,cs),
(251,69,o),
(199,97,o),
(163,133,c),
(110,80,l),
(157,28,o),
(223,-10,o),
(282,-10,cs)
);
}
);
width = 589;
},
{
layerId = "479E441D-7DC1-4B7F-91CA-24AB0BA7ACEE";
shapes = (
{
closed = 1;
nodes = (
(-26,-10,l),
(86,-10,o),
(156,72,o),
(177,219,cs),
(183,261,o),
(186,307,o),
(183,359,c),
(346,359,l),
(352,397,l),
(184,397,l),
(175,449,o),
(173,519,o),
(180,567,cs),
(193,657,o),
(266,709,o),
(348,709,cs),
(416,709,o),
(451,682,o),
(467,636,c),
(505,655,l),
(494,703,o),
(430,752,o),
(352,752,cs),
(251,752,o),
(156,675,o),
(138,549,cs),
(132,503,o),
(136,441,o),
(145,396,c),
(54,396,l),
(48,358,l),
(143,358,l),
(144,296,o),
(141,251,o),
(136,214,cs),
(120,108,o),
(92,29,o),
(-21,29,c)
);
},
{
closed = 1;
nodes = (
(360,-10,o),
(426,6,o),
(480,110,c),
(449,125,l),
(403,36,o),
(348,30,o),
(272,30,cs),
(222,30,o),
(173,59,o),
(132,105,c),
(109,70,l),
(153,27,o),
(217,-10,o),
(267,-10,cs)
);
}
);
width = 556;
}
);
unicode = 163;
},
{
glyphname = currency;
layers = (
{
layerId = "735450B9-CA28-42C1-9B3C-08680A8E3308";
shapes = (
{
closed = 1;
nodes = (
(339,126,o),
(387,140,o),
(433,159,c),
(483,102,l),
(564,172,l),
(509,236,l),
(509,237,o),
(511,240,o),
(514,237,c),
(543,278,o),
(558,323,o),
(564,362,cs),
(572,416,o),
(563,459,o),
(541,494,c),
(618,559,l),
(544,645,l),
(482,592,l),
(481,589,o),
(475,582,o),
(466,580,c),
(435,605,o),
(392,620,o),
(343,620,cs),
(302,620,o),
(251,607,o),
(204,588,c),
(146,655,l),
(63,583,l),
(124,514,l),
(128,508,o),
(123,505,o),
(117,502,c),
(91,460,o),
(78,423,o),
(73,383,c),
(62,326,o),
(74,289,o),
(95,254,c),
(7,178,l),
(82,92,l),
(152,153,l),
(155,157,o),
(163,165,o),
(175,165,c),
(204,140,o),
(246,126,o),
(294,126,cs)
);
},
{
closed = 1;
nodes = (
(227,250,o),
(185,302,o),
(194,362,cs),
(203,432,o),
(269,496,o),
(343,496,cs),
(409,496,o),
(451,444,o),
(443,384,cs),
(433,314,o),
(367,250,o),
(293,250,cs)
);
}
);
width = 613;
},
{
layerId = "AC69D05A-01B2-435C-837D-E8B538C011DB";
shapes = (
{
closed = 1;
nodes = (
(294,180,o),
(334,193,o),
(371,215,c),
(418,158,l),
(464,198,l),
(416,255,ls),
(413,258,o),
(416,262,o),
(420,264,c),
(443,295,o),
(458,332,o),
(463,368,cs),
(470,412,o),
(460,450,o),
(442,480,c),
(510,540,l),
(468,589,l),
(411,537,ls),
(407,533,o),
(404,530,o),
(397,531,c),
(372,553,o),
(338,566,o),
(298,566,cs),
(261,566,o),
(220,553,o),
(184,532,c),
(135,590,l),
(89,549,l),
(137,493,l),
(139,489,o),
(137,486,o),
(133,482,c),
(110,450,o),
(96,415,o),
(90,378,c),
(82,333,o),
(93,296,o),
(111,266,c),
(42,204,l),
(83,155,l),
(141,208,l),
(145,213,o),
(150,216,o),
(156,214,c),
(181,192,o),
(215,180,o),
(255,180,cs)
);
},
{
closed = 1;
nodes = (
(191,249,o),
(149,305,o),
(158,368,c),
(166,436,o),
(228,497,o),
(298,497,cs),
(365,497,o),
(408,441,o),
(398,378,c),
(390,310,o),
(328,249,o),
(257,249,cs)
);
}
);
width = 526;
},
{
layerId = "479E441D-7DC1-4B7F-91CA-24AB0BA7ACEE";
shapes = (
{
closed = 1;
nodes = (
(274,204,o),
(310,217,o),
(343,240,c),
(389,183,l),
(418,210,l),
(374,263,ls),
(370,268,o),
(373,272,o),
(377,276,cs),
(398,303,o),
(412,336,o),
(417,371,cs),
(423,410,o),
(413,446,o),
(397,474,c),
(461,532,l),
(434,564,l),
(379,512,ls),
(374,508,o),
(371,506,o),
(365,509,c),
(343,529,o),
(313,541,o),
(278,541,cs),
(242,541,o),
(206,529,o),
(175,507,c),
(130,561,l),
(101,534,l),
(143,484,l),
(144,481,o),
(144,477,o),
(140,473,cs),
(118,445,o),
(104,411,o),
(98,375,cs),
(91,336,o),
(101,299,o),
(118,271,c),
(58,216,l),
(83,183,l),
(136,233,l),
(140,238,o),
(144,239,o),
(148,236,cs),
(171,216,o),
(201,204,o),
(237,204,cs)
);
},
{
closed = 1;
nodes = (
(175,248,o),
(132,306,o),
(141,371,cs),
(149,438,o),
(210,498,o),
(278,498,cs),
(345,498,o),
(388,440,o),
(378,375,c),
(370,308,o),
(310,248,o),
(241,248,cs)
);
}
);
width = 487;
}
);
unicode = 164;
},
{
glyphname = yen;
layers = (
{
layerId = "735450B9-CA28-42C1-9B3C-08680A8E3308";
shapes = (
{
closed = 1;
nodes = (
(100,366,l),
(84,265,l),
(612,265,l),
(627,366,l)
);
},
{
closed = 1;
nodes = (
(76,196,l),
(60,95,l),
(588,95,l),
(603,196,l)
);
},
{
closed = 1;
nodes = (
(565,742,l),
(382,478,l),
(272,742,l),
(57,742,l),
(258,309,l),
(215,0,l),
(415,0,l),
(458,309,l),
(782,742,l)
);
}
);
width = 701;
},
{
layerId = "AC69D05A-01B2-435C-837D-E8B538C011DB";
shapes = (
{
closed = 1;
nodes = (
(109,345,l),
(101,288,l),
(505,288,l),
(513,346,l)
);
},
{
closed = 1;
nodes = (
(88,196,l),
(80,138,l),
(484,139,l),
(492,197,l)
);
},
{
closed = 1;
nodes = (
(558,742,l),
(319,396,l),
(171,742,l),
(80,742,l),
(266,317,l),
(222,0,l),
(309,0,l),
(353,316,l),
(652,742,l)
);
}
);
width = 597;
},
{
layerId = "479E441D-7DC1-4B7F-91CA-24AB0BA7ACEE";
shapes = (
{
closed = 1;
nodes = (
(113,336,l),
(108,298,l),
(456,299,l),
(461,337,l)
);
},
{
closed = 1;
nodes = (
(94,196,l),
(89,158,l),
(437,159,l),
(442,197,l)
);
},
{
closed = 1;
nodes = (
(554,742,l),
(291,358,l),
(128,742,l),
(89,742,l),
(269,320,l),
(226,0,l),
(264,0,l),
(307,319,l),
(595,742,l)
);
}
);
width = 549;
}
);
leftKerningGroup = B;
rightKerningGroup = H;
unicode = 165;
},
{
glyphname = brokenbar;
leftMetricsKey = I;
rightMetricsKey = I;
layers = (
{
layerId = "735450B9-CA28-42C1-9B3C-08680A8E3308";
shapes = (
{
closed = 1;
nodes = (
(284,847,l),
(143,847,l),
(143,423,l),
(284,423,l)
);
},
{
closed = 1;
nodes = (
(284,259,l),
(143,259,l),
(143,-165,l),
(284,-165,l)
);
}
);
width = 404;
},
{
layerId = "AC69D05A-01B2-435C-837D-E8B538C011DB";
shapes = (
{
closed = 1;
nodes = (
(246,847,l),
(175,847,l),
(176,437,l),
(246,437,l)
);
},
{
closed = 1;
nodes = (
(246,245,l),
(175,245,l),
(176,-165,l),
(246,-165,l)
);
}
);
width = 400;
},
{
layerId = "479E441D-7DC1-4B7F-91CA-24AB0BA7ACEE";
shapes = (
{
closed = 1;
nodes = (
(228,847,l),
(189,847,l),
(190,443,l),
(228,443,l)
);
},
{
closed = 1;
nodes = (
(228,239,l),
(189,239,l),
(190,-165,l),
(228,-165,l)
);
}
);
width = 396;
}
);
leftKerningGroup = bar;
unicode = 166;
},
{
glyphname = section;
layers = (
{
layerId = "735450B9-CA28-42C1-9B3C-08680A8E3308";
shapes = (
{
closed = 1;
nodes = (
(459,254,o),
(489,295,o),
(497,351,cs),
(510,443,o),
(460,491,o),
(345,536,cs),
(274,563,l),
(256,572,o),
(244,578,o),
(244,596,cs),
(244,619,o),
(273,637,o),
(309,637,cs),
(358,637,o),
(388,606,o),
(418,580,c),
(520,625,l),
(500,689,o),
(421,752,o),
(304,752,cs),
(170,752,o),
(83,683,o),
(70,591,cs),
(62,538,o),
(80,497,o),
(123,466,c),
(64,437,o),
(32,394,o),
(24,336,cs),
(11,244,o),
(59,197,o),
(176,151,cs),
(237,127,ls),
(289,107,o),
(294,90,o),
(291,73,cs),
(287,52,o),
(256,30,o),
(208,30,cs),
(137,30,o),
(109,61,o),
(80,87,c),
(-20,43,l),
(-2,-22,o),
(78,-85,o),
(213,-85,cs),
(369,-85,o),
(456,-16,o),
(470,86,cs),
(479,148,o),
(458,189,o),
(404,221,c)
);
},
{
closed = 1;
nodes = (
(219,306,ls),
(177,321,o),
(180,343,o),
(186,360,cs),
(196,387,o),
(221,402,o),
(244,402,c),
(302,379,ls),
(345,362,o),
(340,329,o),
(333,314,cs),
(323,293,o),
(303,283,o),
(282,283,c)
);
}
);
width = 520;
},
{
layerId = "AC69D05A-01B2-435C-837D-E8B538C011DB";
shapes = (
{
closed = 1;
nodes = (
(390,229,o),
(434,265,o),
(443,331,cs),
(453,405,o),
(417,457,o),
(319,500,cs),
(241,533,l),
(185,560,o),
(173,586,o),
(175,615,c),
(181,658,o),
(227,689,o),
(297,689,cs),
(351,689,o),
(390,656,o),
(417,617,c),
(470,644,l),
(445,701,o),
(382,752,o),
(292,752,cs),
(182,752,o),
(104,693,o),
(93,614,cs),
(86,564,o),
(99,520,o),
(169,480,c),
(107,455,o),
(62,410,o),
(54,349,c),
(44,280,o),
(77,232,o),
(164,196,cs),
(243,162,ls),
(317,131,o),
(331,101,o),
(326,68,cs),
(319,20,o),
(268,-10,o),
(203,-10,cs),
(129,-10,o),
(82,27,o),
(57,75,c),
(3,49,l),
(28,-22,o),
(103,-73,o),
(201,-73,cs),
(319,-73,o),
(399,-13,o),
(410,70,cs),
(419,128,o),
(390,168,o),
(337,202,c)
);
},
{
closed = 1;
nodes = (
(198,269,ls),
(135,297,o),
(128,322,o),
(133,356,c),
(141,400,o),
(192,440,o),
(242,444,c),
(300,419,ls),
(364,391,o),
(369,357,o),
(362,318,cs),
(354,274,o),
(306,238,o),
(261,241,c)
);
}
);
width = 473;
},
{
layerId = "479E441D-7DC1-4B7F-91CA-24AB0BA7ACEE";
shapes = (
{
closed = 1;
nodes = (
(358,218,o),
(409,252,o),
(418,322,cs),
(427,387,o),
(397,441,o),
(307,483,cs),
(226,520,ls),
(152,554,o),
(141,589,o),
(144,623,c),
(152,676,o),
(206,712,o),
(291,712,cs),
(348,712,o),
(391,679,o),
(417,634,c),
(447,653,l),
(420,706,o),
(364,752,o),
(287,752,cs),
(187,752,o),
(113,697,o),
(104,625,cs),
(97,576,o),
(108,531,o),
(190,486,c),
(127,463,o),
(75,417,o),
(68,355,c),
(59,297,o),
(85,248,o),
(158,216,cs),
(246,178,ls),
(329,142,o),
(348,106,o),
(342,66,cs),
(334,6,o),
(274,-28,o),
(200,-28,cs),
(126,-28,o),
(70,12,o),
(46,70,c),
(14,51,l),
(41,-22,o),
(115,-68,o),
(195,-68,cs),
(296,-68,o),
(373,-12,o),
(383,62,cs),
(391,119,o),
(359,159,o),
(306,194,c)
);
},
{
closed = 1;
nodes = (
(188,252,ls),
(116,286,o),
(104,312,o),
(109,354,cs),
(116,406,o),
(179,457,o),
(241,463,c),
(299,437,ls),
(372,404,o),
(382,370,o),
(375,320,cs),
(368,265,o),
(307,217,o),
(252,222,c)
);
}
);
width = 452;
}
);
unicode = 167;
},
{
glyphname = copyright;
layers = (
{
layerId = "735450B9-CA28-42C1-9B3C-08680A8E3308";
shapes = (
{
closed = 1;
nodes = (
(647,-10,o),
(818,159,o),
(818,371,cs),
(818,581,o),
(647,752,o),
(437,752,cs),
(226,752,o),
(56,581,o),
(56,371,cs),
(56,159,o),
(226,-10,o),
(437,-10,cs)
);
},
{
closed = 1;
nodes = (
(271,91,o),
(168,200,o),
(168,371,cs),
(168,540,o),
(271,652,o),
(437,652,cs),
(600,652,o),
(706,540,o),
(706,371,cs),
(706,200,o),
(600,91,o),
(437,91,cs)
);
},
{
closed = 1;
nodes = (
(319,584,o),
(228,501,o),
(228,374,cs),
(228,247,o),
(319,161,o),
(440,161,cs),
(552,161,o),
(615,243,o),
(627,311,c),
(493,318,l),
(490,294,o),
(482,258,o),
(444,258,cs),
(407,258,o),
(383,291,o),
(383,373,cs),
(383,455,o),
(407,487,o),
(444,487,cs),
(482,487,o),
(490,451,o),
(493,427,c),
(627,434,l),
(615,502,o),
(552,584,o),
(440,584,cs)
);
}
);
width = 840;
},
{
layerId = "AC69D05A-01B2-435C-837D-E8B538C011DB";
shapes = (
{
closed = 1;
nodes = (
(644,-10,o),
(815,159,o),
(815,371,cs),
(815,581,o),
(644,752,o),
(434,752,cs),
(223,752,o),
(53,581,o),
(53,371,cs),
(53,159,o),
(223,-10,o),
(434,-10,cs)
);
},
{
closed = 1;
nodes = (
(257,52,o),
(119,177,o),
(119,371,cs),
(119,563,o),
(257,691,o),
(434,691,cs),
(606,691,o),
(749,563,o),
(749,371,cs),
(749,177,o),
(606,52,o),
(434,52,cs)
);
},
{
closed = 1;
nodes = (
(322,588,o),
(240,502,o),
(240,375,cs),
(240,248,o),
(322,160,o),
(436,160,cs),
(520,160,o),
(574,213,o),
(604,273,c),
(538,289,l),
(514,246,o),
(483,217,o),
(440,217,cs),
(369,217,o),
(319,277,o),
(319,374,cs),
(319,472,o),
(369,531,o),
(440,531,cs),
(483,531,o),
(514,502,o),
(538,459,c),
(604,475,l),
(574,534,o),
(520,588,o),
(436,588,cs)
);
}
);
width = 833;
},
{
layerId = "479E441D-7DC1-4B7F-91CA-24AB0BA7ACEE";
shapes = (
{
closed = 1;
nodes = (
(642,-10,o),
(813,159,o),
(813,371,cs),
(813,581,o),
(642,752,o),
(432,752,cs),
(221,752,o),
(51,581,o),
(51,371,cs),
(51,159,o),
(221,-10,o),
(432,-10,cs)
);
},
{
closed = 1;
nodes = (
(251,34,o),
(96,166,o),
(96,371,cs),
(96,573,o),
(251,709,o),
(432,709,cs),
(609,709,o),
(768,573,o),
(768,371,cs),
(768,166,o),
(609,34,o),
(432,34,cs)
);
},
{
closed = 1;
nodes = (
(324,590,o),
(246,503,o),
(246,376,cs),
(246,249,o),
(324,159,o),
(434,159,cs),
(506,159,o),
(555,200,o),
(594,255,c),
(558,276,l),
(525,224,o),
(484,198,o),
(438,198,cs),
(351,198,o),
(290,271,o),
(290,375,cs),
(290,479,o),
(351,551,o),
(438,551,cs),
(484,551,o),
(525,525,o),
(558,473,c),
(594,494,l),
(555,549,o),
(506,590,o),
(434,590,cs)
);
}
);
width = 830;
}
);
unicode = 169;
},
{
glyphname = ordfeminine;
leftMetricsKey = a;
rightMetricsKey = a;
layers = (
{
layerId = "735450B9-CA28-42C1-9B3C-08680A8E3308";
shapes = (
{
closed = 1;
nodes = (
(192,408,o),
(215,416,o),
(256,433,c),
(254,414,l),
(369,414,l),
(399,643,ls),
(407,707,o),
(376,751,o),
(254,752,c),
(152,752,o),
(112,723,o),
(79,664,c),
(197,639,l),
(210,658,o),
(233,677,o),
(257,677,cs),
(275,677,o),
(288,668,o),
(282,639,c),
(279,623,l),
(249,621,ls),
(128,614,o),
(66,577,o),
(57,515,cs),
(48,453,o),
(84,408,o),
(158,408,cs)
);
},
{
closed = 1;
nodes = (
(182,482,o),
(176,493,o),
(176,506,cs),
(176,539,o),
(212,555,o),
(260,560,cs),
(270,561,l),
(264,530,ls),
(259,503,o),
(226,482,o),
(203,482,cs)
);
}
);
width = 386;
},
{
layerId = "AC69D05A-01B2-435C-837D-E8B538C011DB";
shapes = (
{
closed = 1;
nodes = (
(220,406,o),
(251,420,o),
(291,452,c),
(286,412,l),
(346,412,l),
(376,636,ls),
(385,705,o),
(349,750,o),
(259,750,c),
(186,750,o),
(140,722,o),
(110,672,c),
(168,653,l),
(194,688,o),
(220,703,o),
(256,703,cs),
(300,703,o),
(322,684,o),
(316,639,cs),
(313,615,l),
(255,610,ls),
(147,601,o),
(91,566,o),
(82,503,cs),
(74,444,o),
(110,406,o),
(179,406,cs)
);
},
{
closed = 1;
nodes = (
(161,451,o),
(141,470,o),
(144,498,cs),
(149,540,o),
(190,564,o),
(265,570,cs),
(306,574,l),
(300,525,ls),
(295,491,o),
(239,451,o),
(199,451,cs)
);
}
);
width = 392;
},
{
layerId = "479E441D-7DC1-4B7F-91CA-24AB0BA7ACEE";
shapes = (
{
closed = 1;
nodes = (
(233,405,o),
(267,422,o),
(307,460,c),
(301,411,l),
(335,411,l),
(365,633,ls),
(375,704,o),
(337,749,o),
(261,749,cs),
(202,749,o),
(152,722,o),
(124,676,c),
(155,660,l),
(186,702,o),
(214,715,o),
(256,715,cs),
(312,715,o),
(338,691,o),
(332,639,c),
(328,612,l),
(258,605,ls),
(156,595,o),
(102,561,o),
(93,498,cs),
(86,440,o),
(122,405,o),
(188,405,cs)
);
},
{
closed = 1;
nodes = (
(151,437,o),
(125,460,o),
(129,495,c),
(136,540,o),
(180,568,o),
(267,575,cs),
(323,580,l),
(316,522,ls),
(312,485,o),
(245,437,o),
(197,437,cs)
);
}
);
width = 392;
}
);
unicode = 170;
},
{
glyphname = guillemotleft;
layers = (
{
layerId = "735450B9-CA28-42C1-9B3C-08680A8E3308";
shapes = (
{
closed = 1;
nodes = (
(448,61,l),
(412,258,l),
(509,463,l),
(406,463,l),
(266,258,l),
(346,61,l)
);
},
{
closed = 1;
nodes = (
(241,61,l),
(206,258,l),
(303,463,l),
(199,463,l),
(61,258,l),
(140,61,l)
);
}
);
width = 553;
},
{
layerId = "AC69D05A-01B2-435C-837D-E8B538C011DB";
shapes = (
{
closed = 1;
nodes = (
(359,73,l),
(289,258,l),
(415,451,l),
(365,451,l),
(210,258,l),
(310,73,l)
);
},
{
closed = 1;
nodes = (
(189,73,l),
(119,258,l),
(245,451,l),
(194,451,l),
(40,258,l),
(140,73,l)
);
}
);
width = 443;
},
{
layerId = "479E441D-7DC1-4B7F-91CA-24AB0BA7ACEE";
shapes = (
{
closed = 1;
nodes = (
(319,78,l),
(233,258,l),
(372,445,l),
(346,445,l),
(184,258,l),
(294,78,l)
);
},
{
closed = 1;
nodes = (
(165,78,l),
(79,258,l),
(218,445,l),
(192,445,l),
(30,258,l),
(140,78,l)
);
}
);
width = 393;
}
);
unicode = 171;
},
{
glyphname = logicalnot;
layers = (
{
layerId = "735450B9-CA28-42C1-9B3C-08680A8E3308";
shapes = (
{
closed = 1;
nodes = (
(4,444,l),
(4,303,l),
(526,303,l),
(526,444,l)
);
},
{
closed = 1;
nodes = (
(366,393,l),
(366,141,l),
(526,141,l),
(526,393,l)
);
}
);
width = 611;
},
{
layerId = "AC69D05A-01B2-435C-837D-E8B538C011DB";
shapes = (
{
closed = 1;
nodes = (
(25,408,l),
(25,337,l),
(463,338,l),
(463,408,l)
);
},
{
closed = 1;
nodes = (
(387,388,l),
(388,191,l),
(463,191,l),
(463,388,l)
);
}
);
width = 544;
},
{
layerId = "479E441D-7DC1-4B7F-91CA-24AB0BA7ACEE";
shapes = (
{
closed = 1;
nodes = (
(34,391,l),
(34,353,l),
(435,354,l),
(435,392,l)
);
},
{
closed = 1;
nodes = (
(397,385,l),
(398,214,l),
(435,214,l),
(435,385,l)
);
}
);
width = 514;
}
);
unicode = 172;
},
{
glyphname = registered;
layers = (
{
layerId = "735450B9-CA28-42C1-9B3C-08680A8E3308";
shapes = (
{
closed = 1;
nodes = (
(447,275,o),
(554,381,o),
(554,513,cs),
(554,645,o),
(447,752,o),
(316,752,cs),
(183,752,o),
(77,645,o),
(77,513,cs),
(77,381,o),
(183,275,o),
(316,275,cs)
);
},
{
closed = 1;
nodes = (
(217,346,o),
(155,411,o),
(155,513,cs),
(155,614,o),
(217,681,o),
(316,681,cs),
(413,681,o),
(476,614,o),
(476,513,cs),
(476,411,o),
(413,346,o),
(316,346,cs)
);
},
{
closed = 1;
nodes = (
(287,394,l),
(287,492,l),
(317,492,l),
(350,394,l),
(429,394,l),
(382,501,l),
(408,512,o),
(428,534,o),
(428,564,cs),
(428,606,o),
(391,630,o),
(330,630,cs),
(215,630,l),
(215,394,l)
);
},
{
closed = 1;
nodes = (
(287,583,l),
(326,583,ls),
(340,583,o),
(353,575,o),
(353,561,cs),
(353,549,o),
(344,539,o),
(329,539,cs),
(287,539,l)
);
}
);
width = 555;
},
{
layerId = "AC69D05A-01B2-435C-837D-E8B538C011DB";
shapes = (
{
closed = 1;
nodes = (
(444,275,o),
(551,381,o),
(551,513,cs),
(551,645,o),
(444,752,o),
(313,752,cs),
(180,752,o),
(74,645,o),
(74,513,cs),
(74,381,o),
(180,275,o),
(313,275,cs)
);
},
{
closed = 1;
nodes = (
(199,321,o),
(123,396,o),
(123,513,cs),
(123,629,o),
(199,706,o),
(313,706,cs),
(424,706,o),
(501,629,o),
(501,513,cs),
(501,396,o),
(424,321,o),
(313,321,cs)
);
},
{
closed = 1;
nodes = (
(264,393,l),
(264,502,l),
(318,502,l),
(358,393,l),
(405,393,l),
(359,507,l),
(383,515,o),
(409,533,o),
(409,570,cs),
(409,609,o),
(379,630,o),
(327,630,cs),
(221,630,l),
(221,393,l)
);
},
{
closed = 1;
nodes = (
(264,596,l),
(319,596,ls),
(354,596,o),
(364,583,o),
(364,566,cs),
(364,544,o),
(345,536,o),
(322,536,cs),
(264,536,l)
);
}
);
width = 548;
},
{
layerId = "479E441D-7DC1-4B7F-91CA-24AB0BA7ACEE";
shapes = (
{
closed = 1;
nodes = (
(442,275,o),
(549,381,o),
(549,513,cs),
(549,645,o),
(442,752,o),
(311,752,cs),
(178,752,o),
(72,645,o),
(72,513,cs),
(72,381,o),
(178,275,o),
(311,275,cs)
);
},
{
closed = 1;
nodes = (
(191,310,o),
(108,389,o),
(108,513,cs),
(108,636,o),
(191,717,o),
(311,717,cs),
(429,717,o),
(513,636,o),
(513,513,cs),
(513,389,o),
(429,310,o),
(311,310,cs)
);
},
{
closed = 1;
nodes = (
(253,393,l),
(253,507,l),
(319,507,l),
(362,393,l),
(394,393,l),
(349,509,l),
(372,517,o),
(400,532,o),
(400,572,cs),
(400,610,o),
(373,630,o),
(326,630,cs),
(224,630,l),
(224,393,l)
);
},
{
closed = 1;
nodes = (
(253,602,l),
(316,602,ls),
(360,602,o),
(369,586,o),
(369,568,cs),
(369,542,o),
(346,535,o),
(319,535,cs),
(253,535,l)
);
}
);
width = 545;
}
);
unicode = 174;
},
{
glyphname = degree;
layers = (
{
layerId = "735450B9-CA28-42C1-9B3C-08680A8E3308";
shapes = (
{
closed = 1;
nodes = (
(487,775,o),
(416,857,o),
(308,857,cs),
(207,857,o),
(124,787,o),
(110,686,cs),
(94,574,o),
(164,493,o),
(273,493,cs),
(373,493,o),
(457,562,o),
(471,664,cs)
);
},
{
closed = 1;
nodes = (
(355,636,o),
(318,599,o),
(271,599,cs),
(231,599,o),
(211,624,o),
(216,663,cs),
(222,711,o),
(260,748,o),
(307,748,cs),
(347,748,o),
(367,723,o),
(362,685,cs)
);
}
);
width = 474;
},
{
layerId = "AC69D05A-01B2-435C-837D-E8B538C011DB";
shapes = (
{
closed = 1;
nodes = (
(451,789,o),
(392,858,o),
(301,858,cs),
(214,858,o),
(142,794,o),
(130,703,c),
(116,606,o),
(174,538,o),
(265,538,cs),
(352,538,o),
(425,601,o),
(438,693,cs)
);
},
{
closed = 1;
nodes = (
(367,639,o),
(324,596,o),
(265,596,cs),
(210,596,o),
(181,634,o),
(189,692,c),
(195,753,o),
(241,797,o),
(299,797,cs),
(355,797,o),
(384,758,o),
(376,702,cs)
);
}
);
width = 451;
},
{
layerId = "479E441D-7DC1-4B7F-91CA-24AB0BA7ACEE";
shapes = (
{
closed = 1;
nodes = (
(434,795,o),
(381,858,o),
(298,858,cs),
(217,858,o),
(150,797,o),
(139,710,cs),
(126,621,o),
(179,558,o),
(262,558,cs),
(343,558,o),
(411,619,o),
(423,706,cs)
);
},
{
closed = 1;
nodes = (
(373,641,o),
(326,594,o),
(262,594,cs),
(200,594,o),
(168,639,o),
(176,705,cs),
(183,772,o),
(232,819,o),
(296,819,cs),
(358,819,o),
(391,774,o),
(382,709,cs)
);
}
);
width = 441;
}
);
unicode = 176;
},
{
glyphname = plusminus;
layers = (
{
layerId = "735450B9-CA28-42C1-9B3C-08680A8E3308";
shapes = (
{
closed = 1;
nodes = (
(40,156,l),
(40,15,l),
(562,15,l),
(562,156,l)
);
},
{
closed = 1;
nodes = (
(40,539,l),
(40,398,l),
(562,398,l),
(562,539,l)
);
},
{
closed = 1;
nodes = (
(372,730,l),
(231,730,l),
(231,208,l),
(372,208,l)
);
}
);
width = 611;
},
{
layerId = "AC69D05A-01B2-435C-837D-E8B538C011DB";
shapes = (
{
closed = 1;
nodes = (
(61,132,l),
(61,62,l),
(499,62,l),
(499,133,l)
);
},
{
closed = 1;
nodes = (
(61,485,l),
(61,415,l),
(499,415,l),
(499,485,l)
);
},
{
closed = 1;
nodes = (
(315,670,l),
(245,670,l),
(245,231,l),
(315,231,l)
);
}
);
width = 544;
},
{
layerId = "479E441D-7DC1-4B7F-91CA-24AB0BA7ACEE";
shapes = (
{
closed = 1;
nodes = (
(70,121,l),
(70,83,l),
(471,84,l),
(471,122,l)
);
},
{
closed = 1;
nodes = (
(70,461,l),
(70,423,l),
(471,423,l),
(471,461,l)
);
},
{
closed = 1;
nodes = (
(289,643,l),
(251,643,l),
(252,242,l),
(289,242,l)
);
}
);
width = 514;
}
);
unicode = 177;
},
{
glyphname = micro;
leftMetricsKey = u;
rightMetricsKey = u;
layers = (
{
layerId = "735450B9-CA28-42C1-9B3C-08680A8E3308";
shapes = (
{
closed = 1;
nodes = (
(196,-165,l),
(215,-28,ls),
(217,-16,o),
(239,-7,o),
(257,-1,cs),
(297,12,o),
(327,41,o),
(359,87,c),
(345,0,l),
(541,0,l),
(620,530,l),
(417,530,l),
(365,175,l),
(348,162,o),
(327,130,o),
(278,130,cs),
(258,130,o),
(239,142,o),
(243,173,cs),
(294,530,l),
(93,530,l),
(-4,-165,l)
);
}
);
width = 632;
},
{
layerId = "AC69D05A-01B2-435C-837D-E8B538C011DB";
shapes = (
{
closed = 1;
nodes = (
(108,-165,l),
(134,17,l),
(154,-3,o),
(186,-9,o),
(225,-7,c),
(277,-3,o),
(320,22,o),
(391,82,c),
(379,0,l),
(464,0,l),
(538,530,l),
(448,530,l),
(396,147,l),
(341,98,o),
(290,60,o),
(232,60,cs),
(181,60,o),
(144,98,o),
(151,148,c),
(203,530,l),
(114,530,l),
(20,-165,l)
);
}
);
width = 585;
},
{
layerId = "479E441D-7DC1-4B7F-91CA-24AB0BA7ACEE";
shapes = (
{
closed = 1;
nodes = (
(68,-165,l),
(96,38,l),
(125,3,o),
(162,-10,o),
(210,-10,cs),
(268,-10,o),
(316,13,o),
(405,79,c),
(394,0,l),
(429,0,l),
(500,530,l),
(462,530,l),
(409,134,l),
(337,69,o),
(273,28,o),
(210,28,cs),
(146,28,o),
(101,78,o),
(108,136,cs),
(161,530,l),
(123,530,l),
(30,-165,l)
);
}
);
width = 563;
}
);
leftKerningGroup = u;
rightKerningGroup = d;
unicode = 181;
},
{
glyphname = paragraph;
leftMetricsKey = o;
rightMetricsKey = n;
layers = (
{
layerId = "735450B9-CA28-42C1-9B3C-08680A8E3308";
shapes = (
{
closed = 1;
nodes = (
(658,742,l),
(322,742,ls),
(167,742,o),
(72,654,o),
(55,536,cs),
(35,390,o),
(127,322,o),
(230,312,c),
(174,-85,l),
(291,-85,l),
(393,633,l),
(459,633,l),
(358,-85,l),
(475,-85,l),
(577,633,l),
(643,633,l)
);
}
);
width = 639;
},
{
layerId = "AC69D05A-01B2-435C-837D-E8B538C011DB";
shapes = (
{
closed = 1;
nodes = (
(542,742,l),
(331,742,ls),
(179,742,o),
(91,635,o),
(76,522,cs),
(59,403,o),
(128,310,o),
(255,307,c),
(202,-85,l),
(261,-85,l),
(367,686,l),
(415,686,l),
(311,-85,l),
(369,-85,l),
(475,686,l),
(535,686,l)
);
}
);
width = 548;
},
{
layerId = "479E441D-7DC1-4B7F-91CA-24AB0BA7ACEE";
shapes = (
{
closed = 1;
nodes = (
(488,742,l),
(334,742,ls),
(184,742,o),
(99,627,o),
(84,516,cs),
(69,409,o),
(127,304,o),
(265,304,c),
(214,-85,l),
(246,-85,l),
(354,710,l),
(394,710,l),
(289,-85,l),
(320,-85,l),
(428,710,l),
(485,710,l)
);
}
);
width = 503;
}
);
unicode = 182;
},
{
glyphname = periodcentered;
layers = (
{
layerId = "735450B9-CA28-42C1-9B3C-08680A8E3308";
shapes = (
{
closed = 1;
nodes = (
(73,463,l),
(48,284,l),
(233,284,l),
(258,463,l)
);
}
);
width = 288;
},
{
layerId = "AC69D05A-01B2-435C-837D-E8B538C011DB";
shapes = (
{
closed = 1;
nodes = (
(68,429,l),
(52,318,l),
(163,318,l),
(178,429,l)
);
}
);
width = 203;
},
{
layerId = "479E441D-7DC1-4B7F-91CA-24AB0BA7ACEE";
shapes = (
{
closed = 1;
nodes = (
(65,413,l),
(53,334,l),
(132,334,l),
(143,413,l)
);
}
);
width = 164;
}
);
leftKerningGroup = comma2;
rightKerningGroup = comma;
unicode = 183;
},
{
glyphname = ordmasculine;
leftMetricsKey = o;
rightMetricsKey = o;
layers = (
{
layerId = "735450B9-CA28-42C1-9B3C-08680A8E3308";
shapes = (
{
closed = 1;
nodes = (
(157,752,o),
(76,688,o),
(63,589,cs),
(48,485,o),
(112,408,o),
(219,408,cs),
(318,408,o),
(395,473,o),
(408,567,cs),
(423,673,o),
(360,752,o),
(251,752,cs)
);
},
{
closed = 1;
nodes = (
(286,674,o),
(294,652,o),
(286,592,cs),
(276,522,o),
(252,488,o),
(214,488,cs),
(185,488,o),
(177,510,o),
(186,570,cs),
(196,640,o),
(219,674,o),
(256,674,cs)
);
}
);
width = 384;
},
{
layerId = "AC69D05A-01B2-435C-837D-E8B538C011DB";
shapes = (
{
closed = 1;
nodes = (
(168,751,o),
(99,684,o),
(85,582,cs),
(71,481,o),
(120,407,o),
(219,407,cs),
(314,407,o),
(380,476,o),
(393,573,cs),
(407,678,o),
(355,751,o),
(257,751,cs)
);
},
{
closed = 1;
nodes = (
(316,703,o),
(340,658,o),
(330,585,cs),
(318,504,o),
(280,455,o),
(218,455,cs),
(161,455,o),
(139,499,o),
(149,576,cs),
(160,653,o),
(198,703,o),
(258,703,cs)
);
}
);
width = 387;
},
{
layerId = "479E441D-7DC1-4B7F-91CA-24AB0BA7ACEE";
shapes = (
{
closed = 1;
nodes = (
(171,751,o),
(108,682,o),
(93,579,cs),
(80,479,o),
(123,407,o),
(218,407,cs),
(312,407,o),
(372,477,o),
(385,575,cs),
(398,680,o),
(352,751,o),
(260,751,cs)
);
},
{
closed = 1;
nodes = (
(328,716,o),
(357,661,o),
(347,582,cs),
(335,496,o),
(290,440,o),
(219,440,cs),
(149,440,o),
(121,494,o),
(132,578,cs),
(143,659,o),
(187,716,o),
(259,716,cs)
);
}
);
width = 386;
}
);
unicode = 186;
},
{
glyphname = guillemotright;
layers = (
{
layerId = "735450B9-CA28-42C1-9B3C-08680A8E3308";
shapes = (
{
closed = 1;
nodes = (
(352,61,l),
(491,258,l),
(413,463,l),
(310,463,l),
(345,258,l),
(249,61,l)
);
},
{
closed = 1;
nodes = (
(145,61,l),
(284,258,l),
(207,463,l),
(104,463,l),
(137,258,l),
(43,61,l)
);
}
);
width = 553;
},
{
layerId = "AC69D05A-01B2-435C-837D-E8B538C011DB";
shapes = (
{
closed = 1;
nodes = (
(247,73,l),
(401,258,l),
(301,451,l),
(251,451,l),
(322,258,l),
(198,73,l)
);
},
{
closed = 1;
nodes = (
(77,73,l),
(230,258,l),
(131,451,l),
(81,451,l),
(151,258,l),
(28,73,l)
);
}
);
width = 442;
},
{
layerId = "479E441D-7DC1-4B7F-91CA-24AB0BA7ACEE";
shapes = (
{
closed = 1;
nodes = (
(199,78,l),
(360,258,l),
(250,445,l),
(224,445,l),
(312,258,l),
(175,78,l)
);
},
{
closed = 1;
nodes = (
(46,78,l),
(206,258,l),
(96,445,l),
(71,445,l),
(157,258,l),
(21,78,l)
);
}
);
width = 391;
}
);
unicode = 187;
},
{
glyphname = questiondown;
leftMetricsKey = "=-21";
rightMetricsKey = z;
layers = (
{
layerId = "735450B9-CA28-42C1-9B3C-08680A8E3308";
shapes = (
{
closed = 1;
nodes = (
(369,380,l),
(396,577,l),
(186,577,l),
(158,380,l)
);
},
{
closed = 1;
nodes = (
(180,308,l),
(178,292,ls),
(174,260,o),
(160,235,o),
(140,215,cs),
(74,147,o),
(-54,123,o),
(-54,8,cs),
(-54,-124,o),
(111,-175,o),
(218,-175,cs),
(344,-175,o),
(450,-108,o),
(495,11,c),
(317,49,l),
(306,3,o),
(246,-44,o),
(199,-44,cs),
(168,-44,o),
(140,-34,o),
(140,1,cs),
(140,24,o),
(157,44,o),
(180,65,cs),
(233,113,o),
(321,168,o),
(333,281,cs),
(336,308,l)
);
}
);
width = 545;
},
{
layerId = "AC69D05A-01B2-435C-837D-E8B538C011DB";
leftMetricsKey = "=35";
shapes = (
{
closed = 1;
nodes = (
(353,464,l),
(371,577,l),
(268,577,l),
(250,464,l)
);
},
{
closed = 1;
nodes = (
(250,337,l),
(241,274,ls),
(237,244,o),
(211,215,o),
(178,189,cs),
(106,131,o),
(-3,81,o),
(-3,-28,cs),
(-3,-125,o),
(96,-176,o),
(182,-176,cs),
(269,-176,o),
(344,-124,o),
(384,-50,c),
(310,-25,l),
(279,-72,o),
(245,-112,o),
(181,-112,cs),
(131,-112,o),
(77,-85,o),
(77,-28,cs),
(77,20,o),
(125,68,o),
(162,97,cs),
(227,150,o),
(299,180,o),
(312,282,cs),
(320,337,l)
);
}
);
width = 461;
},
{
layerId = "479E441D-7DC1-4B7F-91CA-24AB0BA7ACEE";
leftMetricsKey = "=58";
rightMetricsKey = "=46";
shapes = (
{
closed = 1;
nodes = (
(347,498,l),
(361,577,l),
(302,577,l),
(288,498,l)
);
},
{
closed = 1;
nodes = (
(279,349,l),
(267,267,ls),
(263,238,o),
(232,207,o),
(194,179,cs),
(120,124,o),
(18,64,o),
(18,-43,cs),
(18,-126,o),
(90,-177,o),
(168,-177,cs),
(239,-177,o),
(302,-131,o),
(340,-74,c),
(308,-55,l),
(268,-102,o),
(245,-139,o),
(175,-139,cs),
(116,-139,o),
(52,-105,o),
(52,-39,cs),
(52,18,o),
(113,77,o),
(155,110,cs),
(225,165,o),
(290,185,o),
(304,282,cs),
(314,349,l)
);
}
);
width = 433;
}
);
unicode = 191;
},
{
glyphname = AE;
leftMetricsKey = A;
rightMetricsKey = E;
layers = (
{
layerId = "735450B9-CA28-42C1-9B3C-08680A8E3308";
shapes = (
{
closed = 1;
nodes = (
(726,164,l),
(744,292,l),
(1042,292,l),
(1066,453,l),
(767,453,l),
(783,578,l),
(1133,578,l),
(1157,742,l),
(465,742,l),
(-26,0,l),
(183,0,l),
(275,144,l),
(496,144,l),
(476,0,l),
(1062,0,l),
(1084,164,l)
);
},
{
closed = 1;
nodes = (
(372,314,l),
(561,604,l),
(520,314,l)
);
}
);
width = 1138;
},
{
layerId = "AC69D05A-01B2-435C-837D-E8B538C011DB";
shapes = (
{
closed = 1;
nodes = (
(549,79,l),
(582,335,l),
(890,335,l),
(902,413,l),
(593,413,l),
(627,663,l),
(968,663,l),
(979,742,l),
(489,742,l),
(-12,0,l),
(83,0,l),
(223,209,l),
(466,209,l),
(437,0,l),
(891,0,l),
(901,79,l)
);
},
{
closed = 1;
nodes = (
(269,289,l),
(529,669,l),
(477,289,l)
);
}
);
width = 984;
},
{
layerId = "479E441D-7DC1-4B7F-91CA-24AB0BA7ACEE";
shapes = (
{
closed = 1;
nodes = (
(470,40,l),
(511,355,l),
(824,355,l),
(829,395,l),
(517,395,l),
(558,702,l),
(895,702,l),
(901,742,l),
(498,742,l),
(-6,0,l),
(39,0,l),
(200,238,l),
(453,238,l),
(420,0,l),
(816,0,l),
(821,40,l)
);
},
{
closed = 1;
nodes = (
(224,278,l),
(514,699,l),
(458,278,l)
);
}
);
width = 916;
}
);
leftKerningGroup = AE;
rightKerningGroup = E;
unicode = 198;
},
{
glyphname = Eth;
rightMetricsKey = D;
layers = (
{
layerId = "735450B9-CA28-42C1-9B3C-08680A8E3308";
shapes = (
{
closed = 1;
nodes = (
(49,434,l),
(30,293,l),
(438,293,l),
(458,434,l)
);
},
{
closed = 1;
nodes = (
(29,0,l),
(294,0,ls),
(557,0,o),
(701,157,o),
(731,373,cs),
(761,584,o),
(665,731,o),
(399,741,cs),
(335,743,o),
(154,742,o),
(133,742,c)
);
},
{
closed = 1;
nodes = (
(382,585,ls),
(484,585,o),
(543,513,o),
(524,376,cs),
(501,215,o),
(398,157,o),
(322,157,cs),
(251,157,l),
(311,585,l)
);
}
);
width = 735;
},
{
layerId = "AC69D05A-01B2-435C-837D-E8B538C011DB";
shapes = (
{
closed = 1;
nodes = (
(51,407,l),
(42,334,l),
(369,334,l),
(379,407,l)
);
},
{
closed = 1;
nodes = (
(54,0,l),
(206,0,ls),
(466,0,o),
(606,128,o),
(640,375,cs),
(671,612,o),
(579,737,o),
(317,741,cs),
(256,742,o),
(162,742,o),
(154,742,c)
);
},
{
closed = 1;
nodes = (
(300,663,ls),
(481,663,o),
(577,592,o),
(547,373,cs),
(517,157,o),
(399,78,o),
(216,78,cs),
(154,78,l),
(234,663,l)
);
}
);
width = 670;
},
{
layerId = "479E441D-7DC1-4B7F-91CA-24AB0BA7ACEE";
shapes = (
{
closed = 1;
nodes = (
(51,395,l),
(47,353,l),
(338,353,l),
(343,395,l)
);
},
{
closed = 1;
nodes = (
(63,0,l),
(167,0,ls),
(425,0,o),
(563,115,o),
(598,376,cs),
(630,624,o),
(540,739,o),
(279,741,cs),
(220,741,o),
(164,742,o),
(162,742,c)
);
},
{
closed = 1;
nodes = (
(263,699,ls),
(477,699,o),
(589,628,o),
(555,372,cs),
(523,130,o),
(397,42,o),
(169,42,cs),
(111,42,l),
(198,699,l)
);
}
);
width = 639;
}
);
leftKerningGroup = B;
rightKerningGroup = D;
unicode = 208;
},
{
glyphname = multiply;
layers = (
{
layerId = "735450B9-CA28-42C1-9B3C-08680A8E3308";
shapes = (
{
closed = 1;
nodes = (
(108,630,l),
(9,529,l),
(420,118,l),
(520,218,l)
);
},
{
closed = 1;
nodes = (
(522,529,l),
(422,630,l),
(10,218,l),
(109,118,l)
);
}
);
width = 612;
},
{
layerId = "AC69D05A-01B2-435C-837D-E8B538C011DB";
shapes = (
{
closed = 1;
nodes = (
(74,583,l),
(24,533,l),
(397,162,l),
(446,212,l)
);
},
{
closed = 1;
nodes = (
(446,535,l),
(397,585,l),
(25,212,l),
(75,162,l)
);
}
);
width = 528;
},
{
layerId = "479E441D-7DC1-4B7F-91CA-24AB0BA7ACEE";
shapes = (
{
closed = 1;
nodes = (
(58,562,l),
(31,535,l),
(386,182,l),
(413,209,l)
);
},
{
closed = 1;
nodes = (
(412,537,l),
(385,564,l),
(32,209,l),
(59,182,l)
);
}
);
width = 490;
}
);
unicode = 215;
},
{
glyphname = Oslash;
layers = (
{
layerId = "735450B9-CA28-42C1-9B3C-08680A8E3308";
shapes = (
{
closed = 1;
nodes = (
(856,665,l),
(780,755,l),
(-13,76,l),
(64,-15,l)
);
},
{
closed = 1;
nodes = (
(585,-10,o),
(746,139,o),
(779,369,cs),
(811,601,o),
(689,752,o),
(474,752,cs),
(257,752,o),
(93,601,o),
(61,369,cs),
(28,138,o),
(146,-10,o),
(367,-10,cs)
);
},
{
closed = 1;
nodes = (
(308,150,o),
(255,206,o),
(277,366,cs),
(300,531,o),
(370,592,o),
(452,592,cs),
(534,592,o),
(584,531,o),
(561,366,cs),
(539,206,o),
(472,150,o),
(390,150,cs)
);
}
);
width = 813;
},
{
layerId = "AC69D05A-01B2-435C-837D-E8B538C011DB";
shapes = (
{
closed = 1;
nodes = (
(759,703,l),
(717,751,l),
(-8,38,l),
(34,-11,l)
);
},
{
closed = 1;
nodes = (
(517,-10,o),
(653,127,o),
(686,369,cs),
(719,613,o),
(619,752,o),
(430,752,cs),
(240,752,o),
(102,612,o),
(69,368,cs),
(36,126,o),
(134,-10,o),
(326,-10,cs)
);
},
{
closed = 1;
nodes = (
(203,69,o),
(136,163,o),
(164,368,cs),
(192,576,o),
(286,673,o),
(420,673,cs),
(554,673,o),
(618,577,o),
(590,368,cs),
(562,162,o),
(472,69,o),
(338,69,cs)
);
}
);
width = 721;
},
{
layerId = "479E441D-7DC1-4B7F-91CA-24AB0BA7ACEE";
shapes = (
{
closed = 1;
nodes = (
(716,720,l),
(689,749,l),
(-6,21,l),
(21,-9,l)
);
},
{
closed = 1;
nodes = (
(485,-10,o),
(611,122,o),
(644,369,cs),
(677,618,o),
(587,752,o),
(409,752,cs),
(231,752,o),
(105,617,o),
(71,367,cs),
(39,121,o),
(127,-10,o),
(307,-10,cs)
);
},
{
closed = 1;
nodes = (
(157,32,o),
(85,143,o),
(115,369,cs),
(145,597,o),
(248,710,o),
(405,710,cs),
(561,710,o),
(632,598,o),
(601,369,cs),
(571,142,o),
(471,32,o),
(314,32,cs)
);
}
);
width = 679;
}
);
leftKerningGroup = Oslash2;
rightKerningGroup = Oslash;
unicode = 216;
},
{
glyphname = Thorn;
leftMetricsKey = P;
rightMetricsKey = P;
layers = (
{
layerId = "735450B9-CA28-42C1-9B3C-08680A8E3308";
shapes = (
{
closed = 1;
nodes = (
(761,524,o),
(632,608,o),
(468,608,cs),
(336,608,l),
(355,742,l),
(128,742,l),
(24,0,l),
(251,0,l),
(270,142,l),
(437,142,ls),
(600,142,o),
(719,223,o),
(738,361,cs)
);
},
{
closed = 1;
nodes = (
(504,341,o),
(465,302,o),
(417,302,cs),
(293,302,l),
(314,448,l),
(440,448,ls),
(486,448,o),
(516,426,o),
(510,386,cs)
);
}
);
width = 733;
},
{
layerId = "AC69D05A-01B2-435C-837D-E8B538C011DB";
shapes = (
{
closed = 1;
nodes = (
(662,522,o),
(554,588,o),
(401,588,cs),
(240,588,l),
(261,742,l),
(160,742,l),
(59,0,l),
(160,0,l),
(183,170,l),
(360,170,ls),
(509,170,o),
(623,233,o),
(642,380,cs)
);
},
{
closed = 1;
nodes = (
(527,292,o),
(455,247,o),
(357,247,cs),
(193,247,l),
(229,511,l),
(390,511,ls),
(492,511,o),
(552,478,o),
(540,390,cs)
);
}
);
width = 648;
},
{
layerId = "479E441D-7DC1-4B7F-91CA-24AB0BA7ACEE";
shapes = (
{
closed = 1;
nodes = (
(617,521,o),
(519,579,o),
(371,579,cs),
(196,579,l),
(218,742,l),
(174,742,l),
(75,0,l),
(119,0,l),
(143,182,l),
(325,182,ls),
(467,182,o),
(579,238,o),
(599,388,cs)
);
},
{
closed = 1;
nodes = (
(538,269,o),
(450,222,o),
(329,222,cs),
(148,222,l),
(190,539,l),
(367,539,ls),
(495,539,o),
(568,502,o),
(554,392,cs)
);
}
);
width = 611;
}
);
leftKerningGroup = B;
rightKerningGroup = P;
unicode = 222;
},
{
glyphname = germandbls;
rightMetricsKey = s;
layers = (
{
layerId = "735450B9-CA28-42C1-9B3C-08680A8E3308";
shapes = (
{
closed = 1;
nodes = (
(193,742,o),
(117,616,o),
(98,496,c),
(42,496,l),
(24,361,l),
(80,361,l),
(28,0,l),
(224,0,l),
(299,529,ls),
(306,575,o),
(341,617,o),
(398,617,cs),
(436,617,o),
(451,601,o),
(448,579,cs),
(443,541,o),
(407,516,o),
(373,491,c),
(345,459,o),
(317,427,o),
(310,379,cs),
(299,301,o),
(344,251,o),
(407,226,c),
(452,201,o),
(472,193,o),
(469,169,c),
(463,132,o),
(429,113,o),
(395,113,cs),
(362,113,o),
(338,125,o),
(318,129,c),
(262,37,l),
(287,11,o),
(328,-10,o),
(397,-10,cs),
(534,-10,o),
(629,49,o),
(645,168,cs),
(665,307,o),
(563,358,o),
(456,402,c),
(456,407,o),
(455,409,o),
(455,407,c),
(456,415,o),
(463,422,o),
(469,421,c),
(576,465,o),
(617,505,o),
(626,570,cs),
(641,681,o),
(557,742,o),
(407,742,cs)
);
}
);
width = 664;
},
{
layerId = "AC69D05A-01B2-435C-837D-E8B538C011DB";
shapes = (
{
closed = 1;
nodes = (
(227,742,o),
(142,648,o),
(125,519,c),
(59,519,l),
(49,453,l),
(116,453,l),
(55,0,l),
(142,0,l),
(214,532,ls),
(227,626,o),
(286,677,o),
(364,677,cs),
(424,677,o),
(453,648,o),
(447,603,cs),
(440,549,o),
(394,528,o),
(352,505,c),
(294,470,o),
(263,441,o),
(257,393,cs),
(247,319,o),
(299,293,o),
(350,276,c),
(410,251,o),
(463,231,o),
(454,161,c),
(444,94,o),
(391,55,o),
(317,55,cs),
(276,55,o),
(249,66,o),
(222,81,c),
(189,32,l),
(218,6,o),
(269,-10,o),
(322,-10,cs),
(430,-10,o),
(520,48,o),
(536,160,cs),
(554,292,o),
(448,330,o),
(374,357,c),
(338,372,o),
(326,377,o),
(329,399,cs),
(333,427,o),
(350,436,o),
(396,459,cs),
(467,493,o),
(519,520,o),
(530,595,cs),
(540,673,o),
(497,742,o),
(373,742,cs)
);
}
);
width = 583;
},
{
layerId = "479E441D-7DC1-4B7F-91CA-24AB0BA7ACEE";
shapes = (
{
closed = 1;
nodes = (
(242,742,o),
(153,663,o),
(137,530,c),
(66,530,l),
(60,495,l),
(132,495,l),
(67,0,l),
(105,0,l),
(176,534,ls),
(191,649,o),
(261,704,o),
(349,704,cs),
(418,704,o),
(454,670,o),
(447,614,cs),
(438,552,o),
(388,533,o),
(343,511,cs),
(271,475,o),
(239,448,o),
(233,399,cs),
(223,327,o),
(279,312,o),
(324,298,c),
(391,274,o),
(459,248,o),
(447,157,cs),
(435,76,o),
(373,28,o),
(282,28,cs),
(237,28,o),
(209,39,o),
(179,59,c),
(156,29,l),
(186,4,o),
(242,-10,o),
(288,-10,cs),
(382,-10,o),
(471,47,o),
(486,156,cs),
(504,285,o),
(395,317,o),
(337,336,c),
(284,356,o),
(268,363,o),
(272,396,cs),
(277,432,o),
(299,443,o),
(363,476,cs),
(417,505,o),
(475,527,o),
(486,607,cs),
(494,669,o),
(470,742,o),
(357,742,cs)
);
}
);
width = 545;
}
);
leftKerningGroup = b2;
rightKerningGroup = s;
unicode = 223;
},
{
glyphname = ae;
leftMetricsKey = a;
rightMetricsKey = e;
layers = (
{
layerId = "735450B9-CA28-42C1-9B3C-08680A8E3308";
shapes = (
{
closed = 1;
nodes = (
(204,236,o),
(277,247,o),
(309,247,cs),
(328,247,l),
(324,213,o),
(327,181,o),
(334,153,c),
(321,127,o),
(283,108,o),
(247,108,cs),
(213,108,o),
(190,139,o),
(196,179,cs)
);
},
{
closed = 1;
nodes = (
(538,335,l),
(545,387,o),
(576,425,o),
(632,425,cs),
(688,425,o),
(709,387,o),
(702,335,c)
);
},
{
closed = 1;
nodes = (
(872,208,l),
(879,255,ls),
(901,412,o),
(822,540,o),
(648,540,cs),
(595,540,o),
(545,527,o),
(502,505,c),
(470,525,o),
(419,539,o),
(333,540,cs),
(197,540,o),
(95,476,o),
(56,371,c),
(213,359,l),
(239,408,o),
(280,421,o),
(310,421,cs),
(331,421,o),
(369,415,o),
(369,376,c),
(363,365,o),
(357,353,o),
(352,341,c),
(314,341,ls),
(121,341,o),
(22,274,o),
(6,159,cs),
(-9,49,o),
(65,-10,o),
(165,-10,cs),
(270,-10,o),
(329,8,o),
(386,61,c),
(431,16,o),
(498,-10,o),
(579,-10,cs),
(696,-10,o),
(795,42,o),
(850,138,c),
(702,173,l),
(680,138,o),
(636,114,o),
(594,114,cs),
(546,114,o),
(510,145,o),
(520,208,c)
);
}
);
width = 899;
},
{
layerId = "AC69D05A-01B2-435C-837D-E8B538C011DB";
shapes = (
{
closed = 1;
nodes = (
(128,221,o),
(199,256,o),
(308,264,cs),
(376,269,l),
(370,231,o),
(369,193,o),
(375,156,c),
(356,100,o),
(286,54,o),
(210,54,cs),
(145,54,o),
(111,92,o),
(119,149,cs)
);
},
{
closed = 1;
nodes = (
(472,307,l),
(482,392,o),
(537,477,o),
(639,477,cs),
(734,477,o),
(769,404,o),
(756,307,c)
);
},
{
closed = 1;
nodes = (
(832,240,l),
(838,275,l),
(860,436,o),
(791,540,o),
(648,540,cs),
(575,540,o),
(514,511,o),
(470,458,c),
(452,511,o),
(403,540,o),
(315,540,c),
(216,540,o),
(129,491,o),
(82,409,c),
(151,389,l),
(197,449,o),
(248,477,o),
(301,477,cs),
(369,477,o),
(411,443,o),
(407,377,c),
(400,361,o),
(394,343,o),
(389,325,c),
(299,318,l),
(130,309,o),
(45,247,o),
(31,145,cs),
(18,47,o),
(77,-10,o),
(177,-10,cs),
(279,-10,o),
(351,25,o),
(398,97,c),
(431,28,o),
(497,-10,o),
(583,-10,cs),
(675,-10,o),
(756,32,o),
(805,118,c),
(735,139,l),
(702,88,o),
(658,56,o),
(592,56,cs),
(489,56,o),
(448,137,o),
(461,240,c)
);
}
);
width = 880;
},
{
layerId = "479E441D-7DC1-4B7F-91CA-24AB0BA7ACEE";
shapes = (
{
closed = 1;
nodes = (
(92,214,o),
(162,260,o),
(306,272,cs),
(396,279,l),
(389,239,o),
(387,198,o),
(392,157,c),
(370,88,o),
(286,29,o),
(192,29,cs),
(112,29,o),
(73,70,o),
(82,136,cs)
);
},
{
closed = 1;
nodes = (
(440,294,l),
(452,394,o),
(518,500,o),
(640,500,cs),
(753,500,o),
(795,412,o),
(779,294,c)
);
},
{
closed = 1;
nodes = (
(813,254,l),
(818,284,l),
(840,447,o),
(776,540,o),
(647,540,cs),
(565,540,o),
(499,503,o),
(454,436,c),
(442,505,o),
(394,540,o),
(305,540,cs),
(223,540,o),
(143,498,o),
(92,426,c),
(122,402,l),
(176,467,o),
(232,502,o),
(295,502,cs),
(385,502,o),
(428,455,o),
(423,378,c),
(415,359,o),
(409,339,o),
(404,318,c),
(290,308,ls),
(133,294,o),
(54,235,o),
(41,138,cs),
(29,46,o),
(81,-10,o),
(181,-10,cs),
(282,-10,o),
(359,33,o),
(402,114,c),
(429,33,o),
(495,-10,o),
(583,-10,cs),
(664,-10,o),
(737,28,o),
(783,109,c),
(748,123,l),
(711,65,o),
(667,30,o),
(589,30,cs),
(462,30,o),
(418,134,o),
(433,254,c)
);
}
);
width = 871;
}
);
leftKerningGroup = a2;
rightKerningGroup = b;
unicode = 230;
},
{
glyphname = eth;
leftMetricsKey = o;
rightMetricsKey = o;
layers = (
{
layerId = "735450B9-CA28-42C1-9B3C-08680A8E3308";
shapes = (
{
closed = 1;
nodes = (
(598,434,o),
(540,579,o),
(428,666,c),
(489,694,l),
(461,758,l),
(369,704,l),
(330,724,o),
(285,741,o),
(232,749,c),
(132,676,l),
(164,661,o),
(194,647,o),
(223,631,c),
(133,587,l),
(165,527,l),
(281,593,l),
(305,572,o),
(321,556,o),
(337,535,c),
(336,528,o),
(331,520,o),
(323,520,cs),
(169,520,o),
(37,415,o),
(16,263,cs),
(-6,109,o),
(95,-10,o),
(263,-10,cs),
(426,-10,o),
(550,96,o),
(575,271,cs)
);
},
{
closed = 1;
nodes = (
(217,118,o),
(203,156,o),
(215,245,cs),
(229,345,o),
(264,396,o),
(321,396,cs),
(371,396,o),
(385,357,o),
(372,267,cs),
(359,169,o),
(324,118,o),
(266,118,cs)
);
}
);
width = 593;
},
{
layerId = "AC69D05A-01B2-435C-837D-E8B538C011DB";
shapes = (
{
closed = 1;
nodes = (
(553,425,o),
(511,567,o),
(384,667,c),
(470,711,l),
(451,755,l),
(345,695,l),
(310,717,o),
(271,736,o),
(224,751,c),
(170,714,l),
(207,695,o),
(242,678,o),
(274,659,c),
(132,583,l),
(153,542,l),
(313,632,l),
(371,585,o),
(404,534,o),
(422,477,c),
(397,504,o),
(359,520,o),
(310,520,cs),
(174,520,o),
(58,411,o),
(38,257,cs),
(17,102,o),
(103,-10,o),
(249,-10,cs),
(401,-10,o),
(508,99,o),
(530,259,cs)
);
},
{
closed = 1;
nodes = (
(164,56,o),
(112,136,o),
(127,250,c),
(144,368,o),
(221,455,o),
(315,455,cs),
(404,455,o),
(454,374,o),
(439,259,cs),
(424,141,o),
(348,56,o),
(254,56,cs)
);
}
);
width = 569;
},
{
layerId = "479E441D-7DC1-4B7F-91CA-24AB0BA7ACEE";
shapes = (
{
closed = 1;
nodes = (
(531,421,o),
(497,562,o),
(363,668,c),
(460,719,l),
(446,754,l),
(333,691,l),
(300,714,o),
(264,734,o),
(220,752,c),
(186,731,l),
(226,711,o),
(263,692,o),
(296,671,c),
(131,581,l),
(146,549,l),
(326,649,l),
(400,591,o),
(440,524,o),
(460,451,c),
(424,493,o),
(371,520,o),
(303,520,cs),
(175,520,o),
(67,409,o),
(47,254,cs),
(27,99,o),
(105,-10,o),
(242,-10,cs),
(388,-10,o),
(488,100,o),
(508,253,cs)
);
},
{
closed = 1;
nodes = (
(139,28,o),
(70,127,o),
(86,252,cs),
(104,379,o),
(200,482,o),
(311,482,cs),
(418,482,o),
(485,382,o),
(469,256,cs),
(452,128,o),
(358,28,o),
(248,28,cs)
);
}
);
width = 555;
}
);
leftKerningGroup = c;
rightKerningGroup = b;
unicode = 240;
},
{
glyphname = divide;
layers = (
{
layerId = "735450B9-CA28-42C1-9B3C-08680A8E3308";
shapes = (
{
closed = 1;
nodes = (
(230,243,l),
(230,61,l),
(420,61,l),
(420,243,l)
);
},
{
closed = 1;
nodes = (
(63,444,l),
(63,303,l),
(585,303,l),
(585,444,l)
);
},
{
closed = 1;
nodes = (
(230,686,l),
(230,504,l),
(420,504,l),
(420,686,l)
);
}
);
width = 613;
},
{
layerId = "AC69D05A-01B2-435C-837D-E8B538C011DB";
shapes = (
{
closed = 1;
nodes = (
(233,250,l),
(233,139,l),
(349,139,l),
(349,250,l)
);
},
{
closed = 1;
nodes = (
(71,408,l),
(71,337,l),
(509,338,l),
(509,408,l)
);
},
{
closed = 1;
nodes = (
(233,607,l),
(233,496,l),
(349,496,l),
(349,607,l)
);
}
);
width = 545;
},
{
layerId = "479E441D-7DC1-4B7F-91CA-24AB0BA7ACEE";
shapes = (
{
closed = 1;
nodes = (
(234,253,l),
(234,174,l),
(316,174,l),
(316,253,l)
);
},
{
closed = 1;
nodes = (
(74,391,l),
(74,353,l),
(475,354,l),
(475,392,l)
);
},
{
closed = 1;
nodes = (
(234,571,l),
(234,492,l),
(316,492,l),
(316,571,l)
);
}
);
width = 514;
}
);
unicode = 247;
},
{
glyphname = oslash;
layers = (
{
layerId = "735450B9-CA28-42C1-9B3C-08680A8E3308";
shapes = (
{
closed = 1;
nodes = (
(580,537,l),
(0,61,l),
(59,-9,l),
(638,468,l)
);
},
{
closed = 1;
nodes = (
(453,-10,o),
(584,104,o),
(607,262,cs),
(629,423,o),
(534,540,o),
(367,540,cs),
(209,540,o),
(72,429,o),
(49,262,cs),
(26,103,o),
(124,-10,o),
(288,-10,cs)
);
},
{
closed = 1;
nodes = (
(243,114,o),
(241,212,o),
(249,269,cs),
(257,326,o),
(285,418,o),
(349,418,cs),
(413,418,o),
(417,326,o),
(409,269,cs),
(401,212,o),
(371,114,o),
(307,114,cs)
);
}
);
width = 636;
},
{
layerId = "AC69D05A-01B2-435C-837D-E8B538C011DB";
shapes = (
{
closed = 1;
nodes = (
(556,534,l),
(-7,38,l),
(27,-6,l),
(591,491,l)
);
},
{
closed = 1;
nodes = (
(402,-10,o),
(507,103,o),
(529,263,cs),
(551,425,o),
(479,540,o),
(332,540,cs),
(187,540,o),
(80,426,o),
(58,262,c),
(35,102,o),
(109,-10,o),
(256,-10,cs)
);
},
{
closed = 1;
nodes = (
(165,55,o),
(131,151,o),
(146,266,cs),
(162,380,o),
(222,476,o),
(322,476,cs),
(423,476,o),
(457,381,o),
(442,266,cs),
(426,150,o),
(368,55,o),
(266,55,cs)
);
}
);
width = 582;
},
{
layerId = "479E441D-7DC1-4B7F-91CA-24AB0BA7ACEE";
shapes = (
{
closed = 1;
nodes = (
(545,532,l),
(-10,27,l),
(13,-4,l),
(569,502,l)
);
},
{
closed = 1;
nodes = (
(380,-10,o),
(473,102,o),
(495,264,cs),
(517,426,o),
(454,540,o),
(316,540,cs),
(177,540,o),
(82,425,o),
(61,262,cs),
(40,101,o),
(101,-10,o),
(241,-10,cs)
);
},
{
closed = 1;
nodes = (
(131,28,o),
(82,123,o),
(101,264,cs),
(120,405,o),
(194,502,o),
(310,502,cs),
(426,502,o),
(474,406,o),
(455,264,cs),
(436,122,o),
(365,28,o),
(249,28,cs)
);
}
);
width = 557;
}
);
leftKerningGroup = c;
rightKerningGroup = b;
unicode = 248;
},
{
glyphname = thorn;
leftMetricsKey = n;
rightMetricsKey = o;
layers = (
{
layerId = "735450B9-CA28-42C1-9B3C-08680A8E3308";
shapes = (
{
closed = 1;
nodes = (
(196,-165,l),
(228,68,l),
(288,-6,o),
(343,-10,o),
(374,-10,cs),
(482,-10,o),
(579,59,o),
(607,256,cs),
(634,448,o),
(558,540,o),
(443,540,cs),
(380,540,o),
(335,520,o),
(288,483,c),
(324,742,l),
(123,742,l),
(-4,-165,l)
);
},
{
closed = 1;
nodes = (
(276,110,o),
(243,129,o),
(237,146,c),
(269,357,ls),
(274,389,o),
(313,419,o),
(356,419,cs),
(404,419,o),
(424,395,o),
(409,284,c),
(386,182,o),
(374,110,o),
(292,110,cs)
);
}
);
width = 627;
},
{
layerId = "AC69D05A-01B2-435C-837D-E8B538C011DB";
shapes = (
{
closed = 1;
nodes = (
(120,-165,l),
(149,58,l),
(201,-2,o),
(259,-10,o),
(296,-10,cs),
(425,-10,o),
(526,90,o),
(550,268,cs),
(575,450,o),
(494,540,o),
(373,540,cs),
(281,540,o),
(232,488,o),
(204,464,c),
(242,742,l),
(154,742,l),
(31,-165,l)
);
},
{
closed = 1;
nodes = (
(227,54,o),
(186,79,o),
(156,116,c),
(191,361,ls),
(198,412,o),
(262,476,o),
(342,476,cs),
(422,476,o),
(480,420,o),
(461,276,c),
(440,139,o),
(372,54,o),
(271,54,cs)
);
}
);
width = 587;
},
{
layerId = "479E441D-7DC1-4B7F-91CA-24AB0BA7ACEE";
shapes = (
{
closed = 1;
nodes = (
(84,-165,l),
(112,54,l),
(160,0,o),
(220,-10,o),
(259,-10,cs),
(397,-10,o),
(500,104,o),
(523,273,cs),
(546,451,o),
(463,540,o),
(340,540,cs),
(235,540,o),
(183,473,o),
(164,455,c),
(203,742,l),
(166,742,l),
(46,-165,l)
);
},
{
closed = 1;
nodes = (
(203,28,o),
(159,56,o),
(118,103,c),
(154,363,ls),
(162,423,o),
(238,502,o),
(334,502,cs),
(428,502,o),
(504,431,o),
(483,273,cs),
(463,120,o),
(370,28,o),
(260,28,cs)
);
}
);
width = 568;
}
);
leftKerningGroup = b2;
rightKerningGroup = b;
unicode = 254;
},
{
glyphname = dcroat;
leftMetricsKey = d;
layers = (
{
layerId = "735450B9-CA28-42C1-9B3C-08680A8E3308";
shapes = (
{
closed = 1;
nodes = (
(338,687,l),
(323,580,l),
(695,580,l),
(709,687,l)
);
},
{
closed = 1;
nodes = (
(295,-10,o),
(351,41,o),
(382,90,c),
(395,0,l),
(536,0,l),
(643,762,l),
(443,762,l),
(399,450,l),
(377,524,o),
(318,540,o),
(266,540,cs),
(136,540,o),
(45,436,o),
(22,269,cs),
(-2,99,o),
(63,-10,o),
(209,-10,cs)
);
},
{
closed = 1;
nodes = (
(234,119,o),
(207,154,o),
(224,271,cs),
(240,387,o),
(278,410,o),
(319,410,cs),
(364,410,o),
(390,383,o),
(377,291,cs),
(370,245,ls),
(358,156,o),
(325,119,o),
(281,119,cs)
);
}
);
width = 673;
},
{
layerId = "AC69D05A-01B2-435C-837D-E8B538C011DB";
shapes = (
{
closed = 1;
nodes = (
(358,670,l),
(350,612,l),
(655,612,l),
(662,670,l)
);
},
{
closed = 1;
nodes = (
(313,-10,o),
(373,53,o),
(395,82,c),
(392,0,l),
(460,0,l),
(563,762,l),
(476,762,l),
(436,467,l),
(398,519,o),
(353,540,o),
(296,540,cs),
(158,540,o),
(66,428,o),
(43,259,cs),
(19,85,o),
(89,-10,o),
(218,-10,cs)
);
},
{
closed = 1;
nodes = (
(165,56,o),
(113,117,o),
(132,263,cs),
(151,404,o),
(217,473,o),
(308,473,cs),
(362,473,o),
(400,446,o),
(425,384,c),
(399,193,ls),
(389,124,o),
(324,56,o),
(247,56,cs)
);
}
);
width = 630;
},
{
layerId = "479E441D-7DC1-4B7F-91CA-24AB0BA7ACEE";
shapes = (
{
closed = 1;
nodes = (
(367,662,l),
(362,627,l),
(637,627,l),
(641,662,l)
);
},
{
closed = 1;
nodes = (
(319,-10,o),
(381,59,o),
(400,79,c),
(390,0,l),
(426,0,l),
(527,762,l),
(489,762,l),
(450,475,l),
(407,517,o),
(368,540,o),
(307,540,cs),
(167,540,o),
(74,425,o),
(52,255,cs),
(29,78,o),
(100,-10,o),
(221,-10,cs)
);
},
{
closed = 1;
nodes = (
(135,28,o),
(71,100,o),
(92,259,cs),
(112,411,o),
(191,502,o),
(302,502,cs),
(360,502,o),
(404,474,o),
(445,426,c),
(410,170,ls),
(402,110,o),
(323,28,o),
(232,28,cs)
);
}
);
width = 611;
}
);
leftKerningGroup = c;
unicode = 273;
},
{
glyphname = gcommaaccent;
layers = (
{
layerId = "735450B9-CA28-42C1-9B3C-08680A8E3308";
shapes = (
{
closed = 1;
nodes = (
(453,599,l),
(469,702,l),
(402,702,l),
(483,796,l),
(429,796,l),
(340,708,l),
(324,599,l)
);
},
{
alignment = -1;
pos = (1,0);
ref = g;
}
);
width = 654;
},
{
anchors = (
{
name = top;
position = "{321, 530}";
}
);
layerId = "AC69D05A-01B2-435C-837D-E8B538C011DB";
shapes = (
{
closed = 1;
nodes = (
(406,622,l),
(417,711,l),
(381,711,l),
(434,789,l),
(398,789,l),
(340,715,l),
(327,622,l)
);
},
{
alignment = -1;
pos = (1,0);
ref = g;
}
);
width = 591;
},
{
layerId = "479E441D-7DC1-4B7F-91CA-24AB0BA7ACEE";
shapes = (
{
closed = 1;
nodes = (
(384,632,l),
(394,715,l),
(371,715,l),
(411,786,l),
(384,786,l),
(340,718,l),
(329,632,l)
);
},
{
alignment = -1;
pos = (1,0);
ref = g;
}
);
width = 563;
}
);
leftKerningGroup = g2;
rightKerningGroup = g;
unicode = 291;
},
{
glyphname = Hbar;
layers = (
{
layerId = "735450B9-CA28-42C1-9B3C-08680A8E3308";
shapes = (
{
closed = 1;
nodes = (
(23,658,l),
(9,555,l),
(807,555,l),
(823,658,l)
);
},
{
alignment = -1;
pos = (-11,0);
ref = H;
}
);
width = 810;
},
{
anchors = (
{
name = bottom;
position = "{285, 0}";
},
{
name = top;
position = "{386, 742}";
}
);
layerId = "AC69D05A-01B2-435C-837D-E8B538C011DB";
shapes = (
{
closed = 1;
nodes = (
(20,631,l),
(12,571,l),
(717,571,l),
(725,631,l)
);
},
{
alignment = -1;
pos = (-30,0);
ref = H;
}
);
width = 716;
},
{
layerId = "479E441D-7DC1-4B7F-91CA-24AB0BA7ACEE";
shapes = (
{
closed = 1;
nodes = (
(18,618,l),
(14,578,l),
(676,578,l),
(680,618,l)
);
},
{
alignment = -1;
pos = (-40,0);
ref = H;
}
);
width = 673;
}
);
leftKerningGroup = B;
rightKerningGroup = H;
unicode = 294;
},
{
glyphname = hbar;
rightMetricsKey = h;
layers = (
{
layerId = "735450B9-CA28-42C1-9B3C-08680A8E3308";
shapes = (
{
closed = 1;
nodes = (
(63,687,l),
(48,580,l),
(420,580,l),
(434,687,l)
);
},
{
closed = 1;
nodes = (
(221,0,l),
(270,349,l),
(294,383,o),
(320,399,o),
(351,399,cs),
(383,399,o),
(400,381,o),
(396,351,cs),
(347,0,l),
(547,0,l),
(599,375,ls),
(614,481,o),
(566,540,o),
(467,540,cs),
(410,540,o),
(333,511,o),
(277,425,c),
(325,762,l),
(128,762,l),
(21,0,l)
);
}
);
width = 633;
},
{
layerId = "AC69D05A-01B2-435C-837D-E8B538C011DB";
shapes = (
{
closed = 1;
nodes = (
(70,670,l),
(62,612,l),
(367,612,l),
(375,670,l)
);
},
{
closed = 1;
nodes = (
(112,0,l),
(165,391,l),
(231,444,o),
(273,470,o),
(329,470,cs),
(397,470,o),
(422,432,o),
(413,369,cs),
(363,0,l),
(450,0,l),
(502,387,ls),
(515,480,o),
(470,540,o),
(369,540,cs),
(301,540,o),
(243,510,o),
(169,443,c),
(212,762,l),
(128,762,l),
(25,0,l)
);
}
);
width = 560;
},
{
layerId = "479E441D-7DC1-4B7F-91CA-24AB0BA7ACEE";
shapes = (
{
closed = 1;
nodes = (
(73,662,l),
(68,627,l),
(343,627,l),
(348,662,l)
);
},
{
closed = 1;
nodes = (
(65,0,l),
(119,410,l),
(203,471,o),
(252,502,o),
(319,502,cs),
(402,502,o),
(430,455,o),
(420,377,cs),
(370,0,l),
(408,0,l),
(460,393,ls),
(471,480,o),
(427,540,o),
(326,540,cs),
(254,540,o),
(204,509,o),
(122,451,c),
(163,762,l),
(128,762,l),
(27,0,l)
);
}
);
width = 527;
}
);
leftKerningGroup = b2;
rightKerningGroup = a;
unicode = 295;
},
{
glyphname = idotless;
layers = (
{
layerId = "735450B9-CA28-42C1-9B3C-08680A8E3308";
shapes = (
{
closed = 1;
nodes = (
(91,530,l),
(17,0,l),
(217,0,l),
(292,530,l)
);
}
);
width = 309;
},
{
layerId = "AC69D05A-01B2-435C-837D-E8B538C011DB";
shapes = (
{
closed = 1;
nodes = (
(124,530,l),
(51,0,l),
(138,0,l),
(212,530,l)
);
}
);
width = 261;
},
{
layerId = "479E441D-7DC1-4B7F-91CA-24AB0BA7ACEE";
shapes = (
{
closed = 1;
nodes = (
(137,530,l),
(66,0,l),
(104,0,l),
(176,530,l)
);
}
);
width = 239;
}
);
unicode = 305;
},
{
glyphname = kgreenlandic;
leftMetricsKey = k;
rightMetricsKey = k;
layers = (
{
layerId = "735450B9-CA28-42C1-9B3C-08680A8E3308";
shapes = (
{
closed = 1;
nodes = (
(473,351,l),
(680,530,l),
(468,530,l),
(272,339,l),
(298,530,l),
(98,530,l),
(24,0,l),
(224,0,l),
(244,143,l),
(329,212,l),
(390,0,l),
(607,0,l)
);
}
);
width = 648;
},
{
layerId = "AC69D05A-01B2-435C-837D-E8B538C011DB";
shapes = (
{
closed = 1;
nodes = (
(360,340,l),
(567,530,l),
(462,530,l),
(175,258,l),
(212,530,l),
(123,530,l),
(51,0,l),
(139,0,l),
(161,155,l),
(293,275,l),
(408,0,l),
(507,0,l)
);
}
);
width = 570;
},
{
layerId = "479E441D-7DC1-4B7F-91CA-24AB0BA7ACEE";
shapes = (
{
closed = 1;
nodes = (
(309,335,l),
(516,530,l),
(459,530,l),
(131,221,l),
(173,530,l),
(134,530,l),
(63,0,l),
(101,0,l),
(123,160,l),
(276,304,l),
(416,0,l),
(461,0,l)
);
}
);
width = 532;
}
);
leftKerningGroup = b2;
rightKerningGroup = k;
unicode = 312;
},
{
glyphname = Lslash;
rightMetricsKey = L;
layers = (
{
layerId = "735450B9-CA28-42C1-9B3C-08680A8E3308";
shapes = (
{
closed = 1;
nodes = (
(17,441,l),
(-7,273,l),
(459,400,l),
(482,561,l)
);
},
{
closed = 1;
nodes = (
(18,0,l),
(514,0,l),
(537,164,l),
(241,164,l),
(322,742,l),
(122,742,l)
);
}
);
width = 565;
},
{
layerId = "AC69D05A-01B2-435C-837D-E8B538C011DB";
shapes = (
{
closed = 1;
nodes = (
(37,388,l),
(26,309,l),
(370,401,l),
(380,477,l)
);
},
{
closed = 1;
nodes = (
(37,0,l),
(467,0,l),
(478,82,l),
(137,82,l),
(227,742,l),
(137,742,l)
);
}
);
width = 526;
},
{
layerId = "479E441D-7DC1-4B7F-91CA-24AB0BA7ACEE";
shapes = (
{
closed = 1;
nodes = (
(46,364,l),
(41,325,l),
(330,401,l),
(334,439,l)
);
},
{
closed = 1;
nodes = (
(44,0,l),
(445,0,l),
(451,44,l),
(92,44,l),
(185,742,l),
(143,742,l)
);
}
);
width = 508;
}
);
leftKerningGroup = B;
rightKerningGroup = L;
unicode = 321;
},
{
glyphname = lslash;
layers = (
{
layerId = "735450B9-CA28-42C1-9B3C-08680A8E3308";
shapes = (
{
closed = 1;
nodes = (
(30,327,l),
(5,151,l),
(396,385,l),
(420,553,l)
);
},
{
alignment = -1;
pos = (46,0);
ref = l;
}
);
width = 397;
},
{
anchors = (
{
name = bottom;
position = "{105, 0}";
},
{
name = top;
position = "{213, 763}";
},
{
name = topright;
position = "{375, 771}";
}
);
layerId = "AC69D05A-01B2-435C-837D-E8B538C011DB";
shapes = (
{
closed = 1;
nodes = (
(14,296,l),
(1,207,l),
(298,433,l),
(310,519,l)
);
},
{
alignment = -1;
pos = (9,0);
ref = l;
}
);
width = 284;
},
{
layerId = "479E441D-7DC1-4B7F-91CA-24AB0BA7ACEE";
shapes = (
{
closed = 1;
nodes = (
(6,282,l),
(-1,232,l),
(254,455,l),
(260,503,l)
);
},
{
alignment = -1;
pos = (-8,0);
ref = l;
}
);
width = 233;
}
);
leftKerningGroup = b2;
unicode = 322;
},
{
glyphname = Eng;
leftMetricsKey = N;
rightMetricsKey = N;
layers = (
{
layerId = "735450B9-CA28-42C1-9B3C-08680A8E3308";
shapes = (
{
closed = 1;
nodes = (
(602,742,l),
(555,404,l),
(323,742,l),
(128,742,l),
(22,0,l),
(208,0,l),
(265,409,l),
(488,73,l),
(486,63,ls),
(475,10,o),
(462,-13,o),
(409,-13,cs),
(388,-13,o),
(319,-4,o),
(296,1,c),
(260,-152,l),
(313,-167,o),
(370,-175,o),
(430,-175,cs),
(578,-175,o),
(663,-120,o),
(686,41,cs),
(784,742,l)
);
}
);
width = 777;
},
{
layerId = "AC69D05A-01B2-435C-837D-E8B538C011DB";
shapes = (
{
closed = 1;
nodes = (
(624,742,l),
(548,181,l),
(246,742,l),
(160,742,l),
(58,0,l),
(146,0,l),
(223,578,l),
(519,31,l),
(514,-8,ls),
(504,-73,o),
(477,-97,o),
(424,-97,cs),
(398,-97,o),
(360,-89,o),
(341,-83,c),
(324,-154,l),
(345,-163,o),
(385,-175,o),
(432,-175,cs),
(540,-175,o),
(592,-123,o),
(606,-20,cs),
(709,742,l)
);
}
);
width = 739;
},
{
layerId = "479E441D-7DC1-4B7F-91CA-24AB0BA7ACEE";
shapes = (
{
closed = 1;
nodes = (
(634,742,l),
(545,80,l),
(210,742,l),
(174,742,l),
(74,0,l),
(117,0,l),
(204,655,l),
(533,12,l),
(526,-40,ls),
(517,-111,o),
(484,-135,o),
(431,-135,cs),
(402,-135,o),
(378,-127,o),
(361,-121,c),
(353,-155,l),
(359,-161,o),
(391,-175,o),
(433,-175,cs),
(522,-175,o),
(559,-125,o),
(569,-47,cs),
(675,742,l)
);
}
);
width = 720;
}
);
leftKerningGroup = B;
rightKerningGroup = H;
unicode = 330;
},
{
glyphname = eng;
leftMetricsKey = n;
rightMetricsKey = j;
layers = (
{
layerId = "735450B9-CA28-42C1-9B3C-08680A8E3308";
shapes = (
{
closed = 1;
nodes = (
(395,540,o),
(333,507,o),
(281,461,c),
(292,530,l),
(97,530,l),
(17,0,l),
(220,0,l),
(270,344,l),
(296,369,o),
(321,401,o),
(359,401,cs),
(373,401,o),
(400,387,o),
(394,342,cs),
(352,40,ls),
(349,20,o),
(341,0,o),
(317,-8,c),
(274,-20,l),
(256,-151,l),
(256,-151,o),
(270,-170,o),
(320,-170,cs),
(433,-170,o),
(530,-109,o),
(549,23,cs),
(598,372,ls),
(612,471,o),
(554,540,o),
(457,540,cs)
);
}
);
width = 635;
},
{
layerId = "AC69D05A-01B2-435C-837D-E8B538C011DB";
shapes = (
{
closed = 1;
nodes = (
(332,540,o),
(280,518,o),
(199,456,c),
(209,530,l),
(124,530,l),
(51,0,l),
(140,0,l),
(194,387,l),
(249,435,o),
(304,471,o),
(357,471,cs),
(423,471,o),
(447,430,o),
(438,363,cs),
(386,-18,ls),
(379,-69,o),
(361,-92,o),
(318,-95,c),
(269,-100,l),
(259,-159,l),
(259,-159,o),
(269,-170,o),
(319,-170,cs),
(406,-170,o),
(461,-119,o),
(475,-22,c),
(530,386,ls),
(542,477,o),
(491,540,o),
(392,540,cs)
);
}
);
width = 602;
},
{
layerId = "479E441D-7DC1-4B7F-91CA-24AB0BA7ACEE";
shapes = (
{
closed = 1;
nodes = (
(303,540,o),
(256,523,o),
(161,453,c),
(171,530,l),
(136,530,l),
(66,0,l),
(104,0,l),
(159,407,l),
(228,465,o),
(296,503,o),
(356,503,cs),
(446,503,o),
(468,450,o),
(458,372,cs),
(402,-45,ls),
(393,-109,o),
(370,-134,o),
(319,-135,cs),
(266,-136,l),
(261,-163,l),
(261,-163,o),
(268,-170,o),
(318,-170,cs),
(393,-170,o),
(429,-124,o),
(441,-42,cs),
(499,392,ls),
(510,479,o),
(462,540,o),
(363,540,cs)
);
}
);
width = 584;
}
);
leftKerningGroup = b2;
rightKerningGroup = a;
unicode = 331;
},
{
glyphname = OE;
leftMetricsKey = O;
rightMetricsKey = E;
layers = (
{
layerId = "735450B9-CA28-42C1-9B3C-08680A8E3308";
shapes = (
{
closed = 1;
nodes = (
(715,164,l),
(733,292,l),
(1041,292,l),
(1065,453,l),
(756,453,l),
(772,578,l),
(1122,578,l),
(1146,742,l),
(620,742,l),
(620,742,l),
(586,749,o),
(521,752,o),
(466,752,cs),
(229,752,o),
(70,607,o),
(38,380,cs),
(5,144,o),
(126,-10,o),
(363,-10,cs),
(419,-10,o),
(473,-2,o),
(529,0,c),
(529,0,l),
(1051,0,l),
(1073,164,l)
);
},
{
closed = 1;
nodes = (
(272,146,o),
(251,200,o),
(273,355,cs),
(297,525,o),
(346,598,o),
(437,598,cs),
(518,598,o),
(540,537,o),
(518,377,cs),
(495,212,o),
(448,146,o),
(357,146,cs)
);
}
);
width = 1127;
},
{
layerId = "AC69D05A-01B2-435C-837D-E8B538C011DB";
shapes = (
{
closed = 1;
nodes = (
(637,79,l),
(670,335,l),
(993,335,l),
(1004,413,l),
(681,413,l),
(715,663,l),
(1069,663,l),
(1080,742,l),
(641,742,l),
(628,644,l),
(594,715,o),
(521,752,o),
(426,752,cs),
(230,752,o),
(95,615,o),
(62,372,cs),
(29,129,o),
(128,-10,o),
(326,-10,cs),
(419,-10,o),
(498,27,o),
(558,96,c),
(544,0,l),
(992,0,l),
(1003,79,l)
);
},
{
closed = 1;
nodes = (
(193,68,o),
(139,160,o),
(166,363,cs),
(195,574,o),
(280,675,o),
(417,675,cs),
(549,675,o),
(599,580,o),
(572,373,cs),
(543,165,o),
(463,68,o),
(327,68,cs)
);
}
);
width = 1085;
},
{
layerId = "479E441D-7DC1-4B7F-91CA-24AB0BA7ACEE";
shapes = (
{
closed = 1;
nodes = (
(600,40,l),
(640,355,l),
(970,355,l),
(975,395,l),
(646,395,l),
(687,702,l),
(1043,702,l),
(1049,742,l),
(649,742,l),
(630,599,l),
(596,699,o),
(519,752,o),
(407,752,cs),
(229,752,o),
(105,618,o),
(71,369,cs),
(38,122,o),
(127,-10,o),
(308,-10,cs),
(418,-10,o),
(508,40,o),
(569,139,c),
(549,0,l),
(964,0,l),
(969,40,l)
);
},
{
closed = 1;
nodes = (
(155,32,o),
(87,142,o),
(116,367,cs),
(147,596,o),
(248,710,o),
(406,710,cs),
(561,710,o),
(625,599,o),
(595,371,cs),
(564,143,o),
(469,32,o),
(312,32,cs)
);
}
);
width = 1064;
}
);
leftKerningGroup = C2;
rightKerningGroup = E;
unicode = 338;
},
{
glyphname = Tbar;
leftMetricsKey = T;
rightMetricsKey = T;
layers = (
{
layerId = "735450B9-CA28-42C1-9B3C-08680A8E3308";
shapes = (
{
closed = 1;
nodes = (
(115,422,l),
(96,281,l),
(533,281,l),
(553,422,l)
);
},
{
closed = 1;
nodes = (
(259,566,l),
(180,0,l),
(380,0,l),
(459,566,l),
(671,566,l),
(696,742,l),
(73,742,l),
(48,566,l)
);
}
);
width = 633;
},
{
layerId = "AC69D05A-01B2-435C-837D-E8B538C011DB";
shapes = (
{
closed = 1;
nodes = (
(118,408,l),
(108,335,l),
(484,335,l),
(493,408,l)
);
},
{
closed = 1;
nodes = (
(299,658,l),
(210,0,l),
(296,0,l),
(386,658,l),
(605,658,l),
(617,742,l),
(77,742,l),
(66,658,l)
);
}
);
width = 563;
},
{
layerId = "479E441D-7DC1-4B7F-91CA-24AB0BA7ACEE";
shapes = (
{
closed = 1;
nodes = (
(119,402,l),
(114,360,l),
(462,360,l),
(466,402,l)
);
},
{
closed = 1;
nodes = (
(315,700,l),
(222,0,l),
(260,0,l),
(353,700,l),
(576,700,l),
(581,742,l),
(79,742,l),
(73,700,l)
);
}
);
width = 531;
}
);
leftKerningGroup = T2;
rightKerningGroup = T;
unicode = 358;
},
{
glyphname = tbar;
layers = (
{
layerId = "735450B9-CA28-42C1-9B3C-08680A8E3308";
shapes = (
{
closed = 1;
nodes = (
(51,338,l),
(36,231,l),
(408,231,l),
(422,338,l)
);
},
{
alignment = -1;
pos = (1,0);
ref = t;
}
);
width = 482;
},
{
anchors = (
{
name = bottom;
position = "{196, 0}";
},
{
name = center;
position = "{176, 301}";
},
{
name = topright;
position = "{423, 774}";
}
);
layerId = "AC69D05A-01B2-435C-837D-E8B538C011DB";
shapes = (
{
closed = 1;
nodes = (
(58,322,l),
(50,265,l),
(316,265,l),
(323,322,l)
);
},
{
alignment = -1;
pos = (-2,0);
ref = t;
}
);
width = 383;
},
{
layerId = "479E441D-7DC1-4B7F-91CA-24AB0BA7ACEE";
shapes = (
{
closed = 1;
nodes = (
(61,315,l),
(56,280,l),
(274,280,l),
(278,315,l)
);
},
{
alignment = -1;
pos = (-3,0);
ref = t;
}
);
width = 338;
}
);
leftKerningGroup = t2;
rightKerningGroup = t;
unicode = 359;
},
{
glyphname = Schwa;
leftMetricsKey = O;
rightMetricsKey = O;
layers = (
{
layerId = "735450B9-CA28-42C1-9B3C-08680A8E3308";
shapes = (
{
closed = 1;
nodes = (
(44,425,l),
(8,150,o),
(110,-10,o),
(345,-10,cs),
(534,-10,o),
(722,152,o),
(753,369,cs),
(784,593,o),
(665,752,o),
(439,752,cs),
(289,752,o),
(171,685,o),
(88,550,c),
(266,458,l),
(322,539,o),
(367,578,o),
(433,578,cs),
(522,578,o),
(528,494,o),
(520,425,c)
);
},
{
closed = 1;
nodes = (
(499,290,l),
(474,198,o),
(434,146,o),
(349,146,cs),
(288,146,o),
(260,208,o),
(268,284,c)
);
}
);
width = 757;
},
{
layerId = "AC69D05A-01B2-435C-837D-E8B538C011DB";
shapes = (
{
closed = 1;
nodes = (
(65,394,l),
(36,170,o),
(95,-10,o),
(321,-10,cs),
(529,-10,o),
(652,171,o),
(678,366,cs),
(703,550,o),
(652,752,o),
(418,752,cs),
(220,752,o),
(138,595,o),
(97,527,c),
(185,485,l),
(214,533,o),
(257,668,o),
(415,668,cs),
(584,668,o),
(586,498,o),
(573,394,c)
);
},
{
closed = 1;
nodes = (
(562,324,l),
(539,194,o),
(479,68,o),
(324,68,cs),
(177,68,o),
(150,199,o),
(165,321,c)
);
}
);
width = 709;
},
{
layerId = "479E441D-7DC1-4B7F-91CA-24AB0BA7ACEE";
shapes = (
{
closed = 1;
nodes = (
(73,380,l),
(47,179,o),
(86,-10,o),
(309,-10,cs),
(525,-10,o),
(618,179,o),
(642,364,cs),
(664,530,o),
(645,752,o),
(407,752,cs),
(187,752,o),
(121,554,o),
(100,516,c),
(147,497,l),
(163,530,o),
(205,709,o),
(405,709,cs),
(610,709,o),
(611,500,o),
(595,380,c)
);
},
{
closed = 1;
nodes = (
(589,339,l),
(567,192,o),
(498,33,o),
(311,33,cs),
(125,33,o),
(99,195,o),
(117,338,c)
);
}
);
width = 685;
}
);
unicode = 399;
},
{
glyphname = florin;
layers = (
{
layerId = "735450B9-CA28-42C1-9B3C-08680A8E3308";
shapes = (
{
closed = 1;
nodes = (
(462,530,l),
(471,556,ls),
(480,584,o),
(513,612,o),
(536,612,cs),
(595,612,l),
(636,742,l),
(487,742,ls),
(390,742,o),
(316,693,o),
(288,606,cs),
(265,530,l),
(178,530,l),
(135,395,l),
(221,395,l),
(104,26,ls),
(88,-25,o),
(71,-42,o),
(36,-42,cs),
(-23,-42,l),
(-63,-172,l),
(90,-172,ls),
(187,-172,o),
(261,-124,o),
(289,-37,cs),
(426,395,l),
(521,395,l),
(564,530,l)
);
}
);
width = 574;
},
{
layerId = "AC69D05A-01B2-435C-837D-E8B538C011DB";
shapes = (
{
closed = 1;
nodes = (
(287,530,l),
(309,601,ls),
(322,645,o),
(357,677,o),
(392,677,cs),
(464,677,l),
(483,742,l),
(385,742,ls),
(306,742,o),
(250,699,o),
(225,615,cs),
(198,530,l),
(116,530,l),
(95,464,l),
(178,464,l),
(30,-23,ls),
(12,-83,o),
(-12,-105,o),
(-58,-106,cs),
(-114,-107,l),
(-133,-171,l),
(-47,-171,ls),
(36,-171,o),
(89,-124,o),
(115,-40,cs),
(269,464,l),
(393,464,l),
(414,530,l)
);
}
);
width = 445;
},
{
layerId = "479E441D-7DC1-4B7F-91CA-24AB0BA7ACEE";
shapes = (
{
closed = 1;
nodes = (
(207,530,l),
(235,622,ls),
(250,673,o),
(286,707,o),
(327,707,cs),
(404,707,l),
(413,742,l),
(339,742,ls),
(268,742,o),
(220,701,o),
(196,619,cs),
(168,530,l),
(88,530,l),
(77,495,l),
(158,495,l),
(-4,-45,ls),
(-23,-109,o),
(-50,-134,o),
(-101,-135,cs),
(-155,-136,l),
(-165,-170,l),
(-109,-170,ls),
(-33,-170,o),
(11,-124,o),
(36,-42,cs),
(197,495,l),
(335,495,l),
(346,530,l)
);
}
);
width = 386;
}
);
unicode = 402;
},
